<svg xmlns="http://www.w3.org/2000/svg" viewBox="0 0 1242 1091.12">
<g opacity="0.173">
	<path fill="#CBCBCB" d="M542.063,68.039c-261.771,0-474.746,214.355-474.746,477.854c0,263.512,212.975,477.893,474.746,477.893
		c261.796,0,474.783-214.38,474.783-477.893C1016.846,282.394,803.859,68.039,542.063,68.039L542.063,68.039z M542.063,1091.119
		C243.39,1091.12,0.426,846.526,0.426,545.894C0.426,245.275,243.39,0.706,542.063,0.706c298.697,0,541.688,244.569,541.688,545.187
		C1083.751,846.525,840.761,1091.12,542.063,1091.119L542.063,1091.119z"/>
	<path fill="#CBCBCB" d="M542.112,940.194c-141.15,0-289.06-92.058-359.692-223.865c-8.775-16.352-2.701-36.788,13.568-45.608
		c16.22-8.859,36.534-2.72,45.296,13.645c59.499,110.975,183.188,188.495,300.828,188.495c123.22,0,252.057-80.124,299.687-186.363
		c7.583-16.939,27.34-24.47,44.23-16.837c16.84,7.646,24.322,27.585,16.74,44.536C844.056,845.149,692.38,940.194,542.112,940.194
		L542.112,940.194z"/>
	<path fill="#CACACA" d="M1003.18,1091.12h-94.6l-9.79-9.86c-13.06-13.15-13.06-34.46,0-47.61c13.07-13.14,34.23-13.14,47.3,0
		L1003.18,1091.12z"/>
</g>
</svg>
