<svg xmlns="http://www.w3.org/2000/svg" viewBox="0 0 26 44">
    <g>
        <path d="M2.051 16.133c1.66 0 2.979-1.32 2.979-2.982V5.818a4.15 4.15 0 0 1 4.15-4.156h8.352c.927 0 1.709.782 1.709 1.711v2.005h-.977c-.928 0-1.66-.734-1.66-1.662a.751.751 0 0 0-.733-.734.751.751 0 0 0-.732.734c0 .88-.684 1.564-1.563 1.564h-3.81a3.17 3.17 0 0 0-3.173 3.178v3.569a7.038 7.038 0 0 0 7.032 7.04c3.907 0 7.032-3.178 7.032-7.04V3.373A3.17 3.17 0 0 0 17.483.196H9.18c-3.077 0-5.616 2.542-5.616 5.622v7.333c0 .831-.684 1.516-1.514 1.516a.751.751 0 0 0-.732.733.72.72 0 0 0 .732.733zM13.625 17.6a5.568 5.568 0 0 1-5.567-5.573v-3.57c0-.928.781-1.71 1.709-1.71h3.76c.928 0 1.71-.391 2.295-1.027.586.684 1.417 1.124 2.393 1.124h.977v5.183c.049 3.08-2.49 5.573-5.567 5.573z"/>
        <ellipse cx="11.525" cy="10.12" rx="1" ry="1"/>
        <ellipse cx="15.871" cy="10.12" rx="1" ry="1"/>
        <path d="M15.139 14.031c-.39.391-.928.636-1.514.636a2.141 2.141 0 0 1-1.514-.636.708.708 0 0 0-1.026 0 .71.71 0 0 0 0 1.027 3.63 3.63 0 0 0 2.54 1.075c.977 0 1.856-.39 2.54-1.075a.71.71 0 0 0 0-1.027c-.245-.293-.733-.293-1.026 0zM24.808 26.204v-3.422a2.888 2.888 0 0 0-2.881-2.884h-2.93c-.928 0-1.807.44-2.393 1.173-.684.88-1.758 1.369-2.881 1.369-1.075 0-2.1-.44-2.784-1.271a.381.381 0 0 0-.195-.196A3.043 3.043 0 0 0 8.4 19.898H3.077a2.888 2.888 0 0 0-2.882 2.884v12.516c0 1.613.733 3.178 1.954 4.253.244.196.488.391.732.538.098.489.342.88.39.978 1.075 1.71 2.98 2.689 4.933 2.689.88 0 1.807-.196 2.637-.636l1.66-.88h6.691c3.077 0 5.616-2.542 5.616-5.622v-6.16c.635-.391 1.026-1.076 1.026-1.907v-.244c0-1.271-.489-1.858-1.026-2.103zm-13.723.783c1.026.097 1.856.929 1.856 1.955v.05l-.928.488c-.537-.733-.83-1.613-.928-2.493zm3.077 2.982a4.35 4.35 0 0 1 3.32-.293c1.124.342 2.003 1.124 2.54 2.15.39.734.537 1.516.489 2.347-.635-.489-1.417-.733-2.198-.586L7.765 35.15c-.489.098-.977-.049-1.368-.391-.146-.147-.293-.293-.39-.44a.37.37 0 0 1 .195-.098l7.96-4.253zm6.544-.098v-.587c0-.928.781-1.71 1.71-1.71h1.708c.147 0 .293 0 .293.782v.244c0 .44-.342.782-.781.782h-1.22a2.608 2.608 0 0 0-1.71.49zm-7.032-5.964A5.092 5.092 0 0 0 17.678 22c.293-.391.781-.587 1.27-.587h2.93c.781 0 1.416.636 1.416 1.418v3.276h-.977c-.634 0-1.22.195-1.709.489v-1.418a.751.751 0 0 0-.732-.734.751.751 0 0 0-.733.734v3.715a5.99 5.99 0 0 0-1.27-.586c-1.123-.343-2.344-.343-3.418 0 .293-.783.977-1.32 1.856-1.32.39 0 .732-.343.732-.734a.751.751 0 0 0-.732-.733c-1.123 0-2.1.538-2.735 1.32-.635-.782-1.563-1.32-2.637-1.32v-2.347c.879.49 1.807.734 2.735.734zm-5.616 4.155v-6.698H8.4c.44 0 .83.196 1.123.49v4.35c0 1.37.39 2.738 1.123 3.96l-4.932 2.543V30.36c0-.244.195-.44.44-.44 1.074.049 1.904-.782 1.904-1.858zM1.66 35.347V22.83c0-.782.635-1.418 1.417-1.418h3.516v6.698c0 .245-.196.44-.44.44-.146 0-.293 0-.44.049v-3.373a.751.751 0 0 0-.732-.734.751.751 0 0 0-.732.734v8.262c0 .244.048.489.097.684v.098c.147.636.489 1.222 1.026 1.613.683.587 1.66.88 2.54.734l10.547-1.516c.489-.098.977.098 1.319.49.342.39.39.928.244 1.368-.195.489-.635.88-1.172.929L6.397 39.453c-1.172.196-2.393-.195-3.32-.977-.928-.783-1.417-1.956-1.417-3.13zm8.498 6.502c-1.758.929-3.956.489-5.226-.978.293.049.586.049.83.049.293 0 .538 0 .83-.049l7.18-.88-3.614 1.858zm9.034-1.027h-3.858l2.54-1.32c.048 0 .048-.049.097-.049l1.123-.146c1.075-.147 2.003-.88 2.344-1.858.196-.489.196-.978.147-1.467.049-.049.049-.098.098-.146a5.79 5.79 0 0 0-.293-4.596 1.705 1.705 0 0 1 1.074-.391h.977v5.818c-.098 2.297-1.954 4.155-4.249 4.155z"/>
    </g>
</svg>
