<svg xmlns="http://www.w3.org/2000/svg" viewBox="0 0 50 40">
    <path d="M42.513 8.565l-1.034.504-1.131-2.319a3.137 3.137 0 0 0-4.19-1.442 3.11 3.11 0 0 0-1.279 1.155 3.694 3.694 0 0 0-4.855-1.55l-.379.185a3.698 3.698 0 0 0-1.7 4.939l2.22 4.55-12.556 6.124-2.22-4.551a3.698 3.698 0 0 0-4.938-1.7l-.38.184a3.695 3.695 0 0 0-1.767 4.78 3.11 3.11 0 0 0-1.697.296 3.137 3.137 0 0 0-1.443 4.19l1.13 2.319-1.033.504a1.585 1.585 0 0 0-.728 2.117l.746 1.53a1.584 1.584 0 0 0 2.116.729l1.034-.505 1.131 2.319a3.137 3.137 0 0 0 4.19 1.442 3.11 3.11 0 0 0 1.278-1.155 3.694 3.694 0 0 0 4.855 1.55l.38-.185a3.698 3.698 0 0 0 1.7-4.939l-2.22-4.55L32.3 18.962l2.22 4.55a3.698 3.698 0 0 0 4.938 1.701l.38-.185a3.695 3.695 0 0 0 1.767-4.78 3.11 3.11 0 0 0 1.697-.295 3.137 3.137 0 0 0 1.443-4.19l-1.13-2.32 1.034-.504a1.584 1.584 0 0 0 .728-2.116l-.746-1.53a1.586 1.586 0 0 0-2.117-.728zM6.743 29.772a.096.096 0 0 1-.128-.044l-.746-1.53a.095.095 0 0 1 .044-.128l1.034-.504.83 1.701-1.035.505zm6.355 3.257a1.648 1.648 0 0 1-2.201-.758l-1.131-2.319-2.134-4.375L6.5 23.258a1.648 1.648 0 0 1 .758-2.201 1.648 1.648 0 0 1 2.201.758l4.396 9.012a1.648 1.648 0 0 1-.758 2.202zm7.528-2.74a2.209 2.209 0 0 1-1.016 2.95l-.379.185a2.209 2.209 0 0 1-2.95-1.016l-1.089-2.232-4.396-9.013-1.088-2.232a2.209 2.209 0 0 1 1.016-2.95l.379-.185a2.209 2.209 0 0 1 2.95 1.016l2.22 4.55 2.133 4.375 2.22 4.552zm-1.535-6.54l-.83-1.702 12.556-6.123.83 1.701L19.09 23.75zM40.2 20.742a2.209 2.209 0 0 1-1.016 2.95l-.379.185a2.209 2.209 0 0 1-2.95-1.016l-2.22-4.55-2.133-4.375-2.22-4.551a2.209 2.209 0 0 1 1.016-2.95l.38-.185a2.209 2.209 0 0 1 2.95 1.015l1.088 2.232 4.395 9.013 1.09 2.232zm3.208-4.327a1.648 1.648 0 0 1-.759 2.201 1.648 1.648 0 0 1-2.2-.758L36.05 8.846a1.648 1.648 0 0 1 .758-2.202 1.649 1.649 0 0 1 2.202.758l1.131 2.319 2.134 4.374 1.13 2.32zm.632-4.94a.095.095 0 0 1-.044.127l-1.035.505-.83-1.701 1.035-.505a.095.095 0 0 1 .127.044l.747 1.53z"/>
</svg>
