<svg xmlns="http://www.w3.org/2000/svg" viewBox="0 0 40 34">
    <g>
        <path d="M35.723.38H4.09C1.958.382.23 2.12.227 4.267v25.614c.003 2.146 1.731 3.885 3.864 3.887h31.632c2.133-.002 3.86-1.741 3.863-3.887V4.267C39.584 2.121 37.856.382 35.723.38zm2.5 29.5a2.512 2.512 0 0 1-2.5 2.516H4.09a2.512 2.512 0 0 1-2.5-2.515v-19h13.032c.34 2.68 2.608 4.688 5.293 4.688s4.952-2.008 5.293-4.688h13.014v19zM16.44 6.99l-.91-.915a6.005 6.005 0 0 1 1.583-1.244l.495 1.075a.68.68 0 1 0 1.192.124.69.69 0 0 0 .044-.7l-.454-.998a5.756 5.756 0 0 1 3.09 0l-.476 1.039a.69.69 0 0 0-.006.74.68.68 0 0 0 1.228-.164l.5-1.111c.588.32 1.118.738 1.568 1.234l-.909.915a.689.689 0 0 0 .296 1.167.68.68 0 0 0 .668-.197l.764-.769c.401.714.652 1.504.736 2.32h-1.273a.684.684 0 0 0-.682.685 4 4 0 0 1-3.295 3.938v-6.16a.684.684 0 0 0-.682-.687.684.684 0 0 0-.682.687v6.165a4 4 0 0 1-3.295-3.938.684.684 0 0 0-.682-.686h-1.282a5.972 5.972 0 0 1 .737-2.319l.763.768a.68.68 0 0 0 1.16-.298.689.689 0 0 0-.196-.671zm21.782 2.52h-11a7.362 7.362 0 0 0-3.368-5.635 7.27 7.27 0 0 0-6.5-.672.607.607 0 0 0-.31.114 7.388 7.388 0 0 0-4.431 6.175h-11V4.267a2.512 2.512 0 0 1 2.5-2.515h31.609a2.512 2.512 0 0 1 2.5 2.515V9.51z"/>
        <path d="M13.264 29.167H6.473a1.76 1.76 0 0 1-1.75-1.76v-2.1a.684.684 0 0 0-.682-.686.684.684 0 0 0-.682.686v2.1a3.128 3.128 0 0 0 3.114 3.132h6.79a.684.684 0 0 0 .682-.686.684.684 0 0 0-.681-.686zM28.314 13.79h6.109v4.793c0 .38.305.686.682.686a.684.684 0 0 0 .681-.686v-5.488a.684.684 0 0 0-.681-.686h-6.791a.684.684 0 0 0-.682.686c0 .379.305.686.682.686v.009z"/>
    </g>
</svg>
