<svg xmlns="http://www.w3.org/2000/svg" viewBox="0 0 40 36">
    <g>
        <path d="M19.776 35.58l.224.07.224-.07c1.987-.623 14.242-8.41 18.046-16.98 2.308-5.201 2.306-10.036-.006-13.616-1.992-3.081-5.472-4.92-9.309-4.92-3.63 0-6.897 1.703-8.955 4.615C17.941 1.767 14.675.063 11.045.063c-3.838 0-7.318 1.84-9.309 4.921C-.576 8.564-.578 13.4 1.73 18.6c3.804 8.57 16.059 16.357 18.046 16.98zM2.992 5.804C4.68 3.19 7.766 1.568 11.045 1.568c3.544 0 6.57 1.78 8.302 4.884L20 7.624l.653-1.172c1.732-3.104 4.758-4.885 8.303-4.885 3.278 0 6.363 1.624 8.051 4.236 2.027 3.137 1.99 7.464-.105 12.183C33.54 25.563 22.358 33.046 20 34.06c-2.358-1.013-13.54-8.497-16.902-16.072C1.003 13.267.966 8.94 2.992 5.804z"/>
        <path d="M23.495 14.375h3.306v3.322c0 .237.192.43.428.43h4.087a.429.429 0 0 0 .428-.43v-3.322h3.306a.429.429 0 0 0 .428-.43V9.843a.429.429 0 0 0-.428-.43h-3.306V6.09a.429.429 0 0 0-.428-.43h-4.087a.429.429 0 0 0-.428.43v3.322h-3.306a.429.429 0 0 0-.428.43v4.104c0 .237.192.43.428.43zm.428-4.103h3.306a.429.429 0 0 0 .428-.43V6.52h3.231v3.322c0 .237.192.43.428.43h3.307v3.244h-3.307a.429.429 0 0 0-.428.43v3.321h-3.23v-3.321a.429.429 0 0 0-.429-.43h-3.306v-3.244z"/>
    </g>
</svg>
