<svg xmlns="http://www.w3.org/2000/svg" viewBox="0 0 26 40">
    <path d="M8.176 22.465H5.862a.663.663 0 1 0 0 1.326h2.314a.664.664 0 0 0 0-1.326zm5.965 0h-2.313a.663.663 0 1 0 0 1.326h2.313a.664.664 0 0 0 0-1.326zm-1.156 14.353a1.052 1.052 0 1 0 0-2.105 1.052 1.052 0 0 0 0 2.105zM21.4 0H4.571A4.577 4.577 0 0 0 0 4.571v21.124c0 2.52 2.05 4.571 4.571 4.571h4.645v8.605c0 .366.298.663.664.663h6.21a.664.664 0 0 0 .664-.663v-8.605H21.4c2.52 0 4.57-2.051 4.57-4.571V4.57C25.97 2.051 23.92 0 21.4 0zm-5.972 38.207h-4.884v-4.884h4.884v4.884zm0-6.21h-4.884v-4.788h4.884v4.788zm9.217-6.302a3.249 3.249 0 0 1-3.245 3.244h-4.646v-1.73h2.198a.664.664 0 0 0 0-1.327H7.019a.663.663 0 1 0 0 1.327h2.197v1.73H4.571a3.249 3.249 0 0 1-3.244-3.244V4.57A3.249 3.249 0 0 1 4.57 1.327H21.4a3.249 3.249 0 0 1 3.244 3.244v21.124zm-4.536-3.23h-2.313a.663.663 0 1 0 0 1.326h2.313a.664.664 0 0 0 0-1.326zm.757-17.88H5.106a.663.663 0 0 0-.663.663V19.71c0 .366.297.663.663.663h15.759a.664.664 0 0 0 .663-.663V5.248a.664.664 0 0 0-.663-.663zM20.2 19.047H5.77V5.912h14.432v13.135zm-7.218-1.431a4.247 4.247 0 0 0 4.244-4.242c0-2.8-3.666-5.844-3.823-5.972a.663.663 0 0 0-.841 0c-.157.128-3.821 3.171-3.821 5.972a4.247 4.247 0 0 0 4.241 4.242zm0-8.82c1.085.994 2.917 3.004 2.917 4.578a2.919 2.919 0 0 1-2.917 2.915 2.918 2.918 0 0 1-2.915-2.915c0-1.574 1.831-3.584 2.915-4.579z"/>
</svg>
