<svg class="translate-Y1" xmlns="http://www.w3.org/2000/svg" width="14" height="14" viewBox="0 0 14 14">
    <path fill="#F8AA00" fill-rule="nonzero" d="M9.448 9.463l1.433-1.434v4.932c0 .395-.32.716-.716.716H.717A.717.717 0 0 1 0 12.961V3.512c0-.395.32-.716.717-.716h4.885L4.169 4.229H1.433v8.015h8.015V9.463zm4.212-6.494a.596.596 0 0 1-.172.423L7.604 9.275a.596.596 0 0 1-.264.155l-3.276.917a.596.596 0 0 1-.73-.73l.873-3.283c.027-.1.08-.191.152-.265L10.242.176A.596.596 0 0 1 10.663 0h.016a2.985 2.985 0 0 1 2.981 2.97zM6.863 8.332a1.79 1.79 0 0 0-1.546-1.53l-.343 1.28c.272.118.49.333.612.604l1.277-.354z"/>
</svg>
