<svg xmlns="http://www.w3.org/2000/svg" width="{{include.width}}" height="{{include.height}}" viewBox="0 0 27 26">
    <path fill="#EFAD00" fill-rule="nonzero" stroke="#EFAD00" d="M12.469 17.848l-7.53.598a.413.413 0 0 0-.379.415v1.896c0 .23.184.415.41.415l7.54-.199c.222-.006.4-.19.4-.415v-2.295a.417.417 0 0 0-.131-.305.408.408 0 0 0-.31-.11zm-.37 2.317l-6.717.177v-1.1l6.717-.53v1.453zm.644-11.403a.407.407 0 0 0-.362-.067L4.86 10.882a.415.415 0 0 0-.299.399v1.896c0 .23.184.415.41.415.032.004.063.004.094 0l7.539-1.79a.414.414 0 0 0 .318-.405V9.091a.416.416 0 0 0-.178-.33zm-.658 2.297l-6.703 1.595v-1.071l6.717-1.938-.014 1.414zm.658-6.84a.407.407 0 0 0-.381-.045l-7.539 2.98a.415.415 0 0 0-.274.387V9.4c0 .135.064.262.173.34a.407.407 0 0 0 .375.053l7.539-2.588a.415.415 0 0 0 .274-.393V4.562a.417.417 0 0 0-.167-.344zm-.644 2.283L5.382 8.814v-.997l6.717-2.643v1.328zm13.216 15.443h-.636V5.999a1.791 1.791 0 0 0-1.013-1.711L14.301.603c-.474-.186-1-.186-1.473 0L3.462 4.288c-.65.31-1.05.985-1.013 1.71v15.947h-.636a1.74 1.74 0 0 0-1.568.86 1.78 1.78 0 0 0 0 1.804 1.74 1.74 0 0 0 1.568.86h23.502a1.755 1.755 0 0 0 1.675-1.762c0-.947-.74-1.725-1.675-1.762zm0 2.694H1.813a.92.92 0 0 1-.84-.45.942.942 0 0 1 0-.963.92.92 0 0 1 .84-.45H2.86c.226 0 .41-.187.41-.416V6a1 1 0 0 1 .49-.936l9.366-3.688a1.2 1.2 0 0 1 .876 0l9.366 3.688c.328.19.518.554.49.936V22.36c0 .23.184.415.41.415h1.047c.49.027.872.436.872.932a.929.929 0 0 1-.872.932zm-12.87-11.373l-7.54 1.384a.414.414 0 0 0-.337.41v1.896c0 .23.184.415.411.415h.052l7.54-.996a.414.414 0 0 0 .358-.413v-2.284a.417.417 0 0 0-.147-.32.408.408 0 0 0-.338-.09v-.002zm-.338 2.34l-6.717.885v-1.074l6.717-1.243v1.431z"/>
</svg>
