<svg xmlns="http://www.w3.org/2000/svg" width="{{include.width}}" height="{{include.height}}" viewBox="0 0 24 27">
    <g fill="none" fill-rule="evenodd">
        <path stroke="#F8AA00" stroke-linecap="round" stroke-linejoin="round" stroke-width="2" d="M18.07 1H5.498a4.318 4.318 0 0 0-4.31 4.302v9.519a4.318 4.318 0 0 0 4.309 4.318H18.07a4.318 4.318 0 0 0 4.31-4.317V5.306A4.318 4.318 0 0 0 18.07 1h-.001z"/>
        <path fill="#EFAD00" d="M9.467 21.557v2.18a.78.78 0 0 1-1.178.71.78.78 0 0 1-.376-.71v-2.18a.78.78 0 0 1 1.178-.71.78.78 0 0 1 .376.71zM18.084 14.838a.765.765 0 0 1-1.084 0l-4.023-4.029-.692.605a.765.765 0 0 1-1.005 0l-.69-.602-4.023 4.026c-.299.3-.784.3-1.083 0-.3-.3-.3-.786 0-1.086l3.942-3.95-3.901-3.387a.771.771 0 0 1-.076-1.086.768.768 0 0 1 1.085-.075l5.25 4.563 5.25-4.563a.766.766 0 0 1 1.082.077.77.77 0 0 1-.077 1.084l-3.897 3.388 3.942 3.947a.768.768 0 0 1 0 1.088zM15.645 21.557v2.18a.78.78 0 0 1-1.178.71.78.78 0 0 1-.375-.71v-2.18a.78.78 0 0 1 1.178-.71.78.78 0 0 1 .375.71zM12.562 21.557v4.133a.779.779 0 0 1-1.554 0v-4.133a.78.78 0 0 1 1.179-.71.78.78 0 0 1 .375.71z"/>
    </g>
</svg>
