<svg xmlns="http://www.w3.org/2000/svg" x="0px" y="0px" viewBox="0 0 612 792">
<path d="M174.445,25.467c0,0,1.205,1.205,1.205,3.596c1.186,8.377,3.596,16.734,4.82,25.092
	c3.615,14.344,6.005,28.688,9.639,43.031c1.205,4.781,3.615,10.767,8.434,14.344c2.644,1.981,6.025,2.87,9.335,2.87
	c2.699,0,5.349-0.591,7.514-1.665c4.82-1.186,8.434-3.576,12.049-5.967c2.56-1.642,4.104-2.881,5.435-4.142
	c1.557-0.779,2.302-0.916,2.635-0.916c0.182,0,0.24,0.041,0.24,0.041l1.022,1.117l0.478,2.008
	c4.82,40.641,7.058,84.359,13.083,136.953c1.205,1.186,1.205,4.781-1.205,5.967c0,1.205,0,1.205-1.205,1.205
	c-0.266,0.133-0.517,0.193-0.755,0.193c-1.92,0-2.992-3.902-4.064-4.974l-3.615-8.358c-8.434-17.939-15.663-35.859-24.098-53.799
	c-3.615-8.358-8.415-10.748-12.049-11.953c-1.203-0.302-2.482-0.452-3.819-0.452c-4,0-8.516,1.349-13.03,4.029
	c-2.41,1.205-3.615,2.391-6.024,3.596c-2.41,1.186-4.82,3.576-7.229,4.781c-3.615,3.576-8.434,5.986-12.03,8.358
	c-2.429,1.205-3.634,1.205-3.634,1.205s-1.205,0-2.41-2.391l-21.669-43.031c-6.024-13.139-12.049-25.092-18.073-38.25
	c-3.615-8.358-8.434-17.92-14.458-28.688c-1.205-2.391-1.205-3.596-1.205-3.596s0-1.186,2.41-2.371
	c8.434-5.986,16.868-10.767,25.302-16.734l9.639-7.172c2.41-2.391,6.005-4.781,9.62-7.172c7.229-4.781,15.683-10.767,24.098-15.549
	C173.24,25.467,174.445,25.467,174.445,25.467 M174.445,3.467c-4.246,0-8.772,1.187-13.454,3.528l-1.029,0.549
	c-7.097,4.032-13.976,8.67-20.045,12.761c-1.832,1.235-3.612,2.435-5.321,3.566c-3.755,2.484-7.957,5.263-11.654,8.643l-8.384,6.238
	c-3.686,2.598-7.466,5.009-11.464,7.559c-4.077,2.6-8.282,5.282-12.608,8.308C81.15,60.093,77.761,68.931,77.761,75.67
	c0,4.27,1.197,8.811,3.559,13.497l0.447,0.84c5.633,10.067,10.163,19.043,13.465,26.679l0.189,0.425
	c3.119,6.813,6.251,13.336,9.279,19.645c2.897,6.035,5.892,12.276,8.8,18.616l0.349,0.725l21.669,43.031
	c4.576,9.08,12.821,14.496,22.059,14.496c4.221,0,8.733-1.176,13.41-3.497l2.336-1.343c0.626-0.413,1.505-0.946,2.437-1.511
	c2.965-1.799,6.839-4.148,10.631-7.427c1.405-0.902,2.592-1.785,3.567-2.511c0.278-0.207,0.632-0.47,0.876-0.646
	c2.126-1.1,3.709-2.147,4.783-2.857c0.268-0.177,0.633-0.419,0.761-0.494c3.765,8.092,7.388,16.387,10.901,24.428
	c3.866,8.851,7.862,17.999,12.153,27.14l3.479,8.045l4.636,6.823c-1.824-1.824-2.776-3.492-2.949-3.808
	c0.056,0.102,0.112,0.211,0.17,0.321c0.651,1.234,1.74,3.299,3.462,5.485c4.716,5.987,11.619,9.42,18.937,9.42
	c1.598,0,3.201-0.168,4.774-0.495c7.224-1.11,13.036-5.211,16.3-11.166c2.306-3.223,3.885-6.996,4.539-11.048
	c0.696-4.311,0.331-8.625-0.977-12.567c-2.862-25.485-4.826-48.662-6.729-71.111c-1.853-21.855-3.602-42.498-5.977-62.522
	l-0.445-2.505l-0.478-2.008l-5.171-9.756l-1.022-1.117l-3.507-3.096c-3.778-2.679-8.261-4.094-12.965-4.094
	c-5.374,0-9.693,1.849-12.474,3.239l-5.294,3.708c-0.206,0.195-0.635,0.602-2.182,1.594l-0.257,0.167
	c-1.575,1.041-2.994,1.98-4.081,2.523c-1.629-6.522-2.998-13.053-4.444-19.951c-1.442-6.876-2.93-13.976-4.714-21.164
	c-0.691-4.416-1.593-8.59-2.468-12.638c-0.785-3.633-1.531-7.082-2.029-10.3c-0.494-6.507-3.19-12.6-7.566-16.977L174.445,3.467
	L174.445,3.467z"/>
<path d="M379.402,612.361c-1.205-3.596-3.615-5.986-7.229-8.377c-24.098-14.344-48.176-20.33-61.41-20.33
	c-33.736,0-57.815,5.986-84.322,19.125c-4.82,2.391-7.229,4.781-8.415,8.377c-1.224,2.391,0,4.781,1.186,8.377
	c3.634,5.967,9.639,7.172,18.073,3.576c21.669-10.767,42.132-16.734,62.634-16.734c20.464,0,40.947,5.986,61.43,16.734
	c2.41,1.205,4.82,2.391,7.21,2.391c3.634,0,7.229-2.391,9.639-5.986c1.205-1.186,1.205-3.576,1.205-7.172L379.402,612.361z
	 M340.865,514.346c3.615-5.986,2.41-11.953-3.615-15.549c-4.82-3.595-10.844-2.391-15.663,3.595
	c-7.229,8.358-15.644,13.139-24.098,13.139c-8.415,0-16.849-4.781-22.874-13.158c-3.615-4.781-9.639-8.358-16.868-3.576
	c-6.005,3.595-6.005,10.767-2.41,16.734c9.639,14.344,22.893,22.721,40.966,22.721C316.767,538.252,331.226,529.875,340.865,514.346
	z M163.806,324.281c7.229,1.205,14.458,3.595,21.688,5.986c10.844,3.576,21.669,7.172,32.512,7.172c3.634,0,7.229,0,9.639-1.205
	c6.024-1.205,10.844-4.781,12.049-8.377c1.205-2.391,1.205-7.172-3.634-11.953c-4.8-4.781-12.03-7.153-19.259-8.358
	c-6.024-1.205-13.254-2.391-19.259-3.595h-1.205c-20.483-3.576-40.966-8.358-62.654-8.358c-4.82,0-9.639,0-14.459,1.205
	c-10.844,1.186-19.278,4.781-28.917,10.748c-6.005,3.595-13.234,9.562-13.234,15.549c0,2.391,1.205,4.781,3.615,7.172
	c2.41,1.186,4.8,2.391,7.21,1.186c15.683-4.781,33.737-8.377,50.605-8.377c8.415,0,16.849,0,25.283,1.205H163.806z M196.337,372.094
	c-10.844,0-20.483,1.205-30.122,1.205c-3.615,0-7.229,0-10.844,1.186c-24.098,1.205-45.766-3.595-65.025-13.158h-2.429
	c-1.205,0-2.41,1.205-3.596,2.391c-1.205,2.391-1.205,4.781,1.186,5.986l4.819,4.781c3.634,3.595,7.229,7.172,10.844,9.562
	c1.205,0,1.205,1.205,2.41,1.205c4.819,3.576,10.844,5.967,16.868,8.358c11.735,3.766,23.863,6.172,36.146,7.172h13.235
	c9.639,0,16.868-1.205,24.098-3.595c3.615-1.186,7.21-2.391,9.62-4.781c3.634-1.186,7.229-3.576,10.844-4.781
	c3.634-1.186,7.229-1.186,10.844-1.186c2.41,0,4.819-2.391,4.819-4.781s-1.205-4.781-4.819-5.986
	C218.006,373.28,208.367,372.094,196.337,372.094L196.337,372.094z M525.153,323.095c0-5.986-7.229-11.953-13.254-15.549
	c-8.574-5.976-18.523-9.681-28.917-10.767c-4.8,0-9.62-1.186-14.439-1.186c-21.688,0-42.171,4.781-62.634,8.377h-1.205
	c-6.024,1.186-13.254,2.371-19.278,3.576c-7.229,1.205-14.458,3.595-19.259,8.377c-4.82,4.781-4.82,9.562-3.634,11.934
	c1.224,4.781,6.024,7.172,12.049,8.377c3.634,1.205,6.024,1.205,9.639,1.205c10.844,0,22.893-3.595,32.513-7.172
	c7.248-2.391,14.459-4.781,21.688-5.986c24.098-3.595,51.79-1.205,74.683,5.986c2.782,1.393,6.136,0.912,8.415-1.205
	c2.264-1.128,3.678-3.457,3.634-5.986L525.153,323.095z M514.31,360.141h-2.41c-19.278,10.767-39.742,14.344-65.025,13.158
	c-3.634,0-7.248,0-10.863-1.205c-9.639-1.205-20.464-1.205-30.103-1.205c-12.049,0-21.688,1.205-31.327,2.391
	c-2.41,1.205-4.819,3.595-4.819,5.986s2.41,4.781,4.819,4.781c3.634,0,7.229,1.205,10.844,1.205
	c3.634,1.186,7.229,2.391,12.049,4.781c3.615,1.186,6.024,3.576,9.639,3.576c7.229,2.391,14.458,3.595,24.098,3.595h13.234
	c12.283-1,24.412-3.406,36.146-7.172c6.005-2.391,12.049-4.781,16.849-8.377c1.205,0,1.205-1.205,2.41-1.205
	c3.634-2.391,7.229-5.967,10.844-9.562l4.82-4.781c1.205-1.186,2.41-3.576,1.205-5.967H514.31L514.31,360.141z"/>
<path d="M303.514,771.328h-2.391c-26.507,0-54.2-7.172-81.912-22.721c-27.227-14.567-52.69-32.214-75.888-52.594
	c-28.898-26.278-52.976-58.561-74.664-102.778c-10.844-22.721-18.073-45.422-20.464-68.142
	c-2.429-21.516-10.863-43.031-20.483-65.752c-7.229-20.311-15.683-40.641-20.483-60.951C0,363.717,6.024,327.858,13.254,294.389
	c3.615-17.92,6.024-34.655,7.229-50.184l1.205-15.549l3.615-50.203c1.205-8.377,7.21-14.344,15.644-13.158
	c8.434,1.205,14.458,7.172,13.254,15.549c-1.161,16.342-2.366,32.682-3.615,49.017l-1.205,15.53
	c-1.205,17.939-4.82,35.859-8.415,53.799c-6.044,32.264-12.049,63.342-6.044,92.03c3.634,19.125,10.844,37.064,19.278,57.375
	c9.639,23.906,18.073,47.812,21.688,72.924c2.41,20.311,8.415,39.436,18.054,59.766c19.278,40.641,40.966,70.514,67.454,93.234
	c20.464,17.92,43.356,33.469,71.068,48.998c22.874,13.158,44.561,19.125,67.454,17.939c21.669,0,44.561-5.986,67.454-17.939
	c27.693-15.549,50.586-31.078,71.049-49.017c26.507-22.701,48.195-52.594,67.454-93.215c9.639-20.33,15.663-39.455,18.073-59.766
	c3.615-25.111,13.254-50.203,21.669-72.924c7.229-19.125,14.458-38.25,19.278-57.375c6.024-28.688,0-59.766-6.024-92.049
	c-3.615-17.92-6.024-35.84-8.415-53.78l-1.224-15.549c-1.205-14.344-2.41-29.873-3.615-45.403
	c-1.205-8.377,6.024-15.549,13.254-15.549c8.434-1.205,15.663,5.986,15.663,13.158c1.205,15.53,2.41,31.059,3.615,45.403
	L579.354,243c1.205,16.734,4.82,32.283,7.229,50.203c6.024,33.469,13.234,69.328,6.024,104.002
	c-4.827,20.935-11.687,41.349-20.483,60.951c-8.434,22.72-16.868,44.236-20.464,65.752c-3.634,23.906-9.658,45.422-20.483,68.123
	c-21.688,44.236-45.785,77.705-74.683,102.797c-21.688,19.125-46.971,35.859-75.888,52.594
	c-24.098,15.549-51.79,23.906-77.074,23.906H303.514z"/>
<path d="M429.413,25.062c0,0,1.205,0,3.615,1.205c8.415,4.781,16.868,10.767,24.098,15.549
	c3.615,2.391,7.21,4.781,9.62,7.172l9.639,7.172c8.434,5.967,16.868,10.748,25.302,16.734c2.41,1.186,2.41,2.372,2.41,2.372
	s0,1.205-1.205,3.596c-6.024,10.767-10.844,20.33-14.458,28.688c-6.024,13.158-12.049,25.111-18.073,38.25l-21.669,43.031
	c-1.205,2.391-2.41,2.391-2.41,2.391s-1.205,0-3.634-1.205c-3.596-2.371-8.415-4.781-12.03-8.358
	c-2.41-1.205-4.82-3.596-7.229-4.781c-2.41-1.205-3.615-2.391-6.024-3.596c-4.515-2.681-9.031-4.029-13.031-4.029
	c-1.337,0-2.616,0.151-3.819,0.452c-3.634,1.205-8.434,3.596-12.049,11.953c-8.434,17.939-15.663,35.859-24.098,53.799l-3.615,8.358
	c-1.072,1.072-2.144,4.974-4.064,4.974c-0.238,0-0.49-0.06-0.755-0.193c-1.205,0-1.205,0-1.205-1.205
	c-2.41-1.186-2.41-4.781-1.205-5.967c6.024-52.594,8.263-96.312,13.083-136.953l0.478-2.008l1.022-1.117c0,0,0.058-0.041,0.24-0.041
	c0.332,0,1.078,0.138,2.635,0.916c1.331,1.261,2.875,2.5,5.435,4.142c3.615,2.391,7.229,4.781,12.049,5.967
	c2.165,1.074,4.815,1.665,7.514,1.665c3.309,0,6.691-0.89,9.335-2.87c4.819-3.576,7.229-9.562,8.434-14.344
	c3.634-14.344,6.024-28.688,9.639-43.031c1.224-8.358,3.634-16.715,4.819-25.092C428.208,26.267,429.413,25.062,429.413,25.062
	 M429.413,3.062l-15.557,6.444c-4.376,4.376-7.072,10.47-7.566,16.977c-0.498,3.218-1.244,6.667-2.029,10.3
	c-0.875,4.048-1.777,8.222-2.468,12.638c-1.784,7.187-3.273,14.287-4.714,21.163c-1.448,6.906-2.819,13.445-4.444,19.952
	c-1.088-0.543-2.507-1.481-4.082-2.523l-0.257-0.167c-1.547-0.992-1.976-1.399-2.182-1.595l-5.294-3.708
	c-2.781-1.39-7.099-3.239-12.473-3.239c-4.704,0-9.187,1.416-12.965,4.094l-3.507,3.096l-1.022,1.117l-5.171,9.756l-0.478,2.008
	l-0.445,2.505c-2.375,20.023-4.124,40.666-5.977,62.522c-1.903,22.448-3.867,45.626-6.729,71.111
	c-1.308,3.942-1.673,8.256-0.977,12.567c0.654,4.052,2.233,7.825,4.539,11.048c3.264,5.955,9.076,10.056,16.3,11.166
	c1.574,0.327,3.176,0.495,4.774,0.495c7.318,0,14.221-3.434,18.937-9.42c1.722-2.185,2.811-4.251,3.462-5.485
	c0.058-0.11,0.114-0.218,0.17-0.321c-0.172,0.316-1.124,1.984-2.949,3.808l4.636-6.823l3.48-8.046
	c4.291-9.141,8.286-18.288,12.152-27.139c3.512-8.041,7.136-16.336,10.901-24.428c0.128,0.076,0.492,0.317,0.76,0.494
	c1.074,0.711,2.657,1.757,4.783,2.858c0.244,0.176,0.598,0.439,0.876,0.646c0.976,0.726,2.163,1.609,3.568,2.511
	c3.792,3.278,7.666,5.628,10.631,7.427c0.931,0.565,1.811,1.099,2.437,1.511l2.337,1.343c4.677,2.32,9.189,3.496,13.41,3.496
	c9.238,0,17.483-5.417,22.056-14.489l21.672-43.038l0.349-0.725c2.907-6.341,5.903-12.582,8.8-18.617
	c3.028-6.308,6.159-12.831,9.278-19.644l0.189-0.425c3.302-7.635,7.833-16.611,13.465-26.679l0.447-0.84
	c2.362-4.686,3.559-9.227,3.559-13.497c0-6.739-3.388-15.578-12.726-21.051c-4.325-3.026-8.53-5.708-12.607-8.308
	c-3.998-2.55-7.779-4.961-11.465-7.559l-8.383-6.238c-3.696-3.38-7.899-6.16-11.654-8.643c-1.709-1.13-3.488-2.33-5.32-3.565
	c-6.069-4.092-12.948-8.729-20.045-12.762l-1.029-0.549C438.185,4.249,433.659,3.062,429.413,3.062L429.413,3.062z"/>
</svg>
