<svg class="translate-Y1" xmlns="http://www.w3.org/2000/svg" width="19" height="12" viewBox="0 0 19 12">
    <g fill="none" fill-rule="evenodd">
        <path d="M-433-12h682.71v40H-433z"/>
        <g fill="#f8aa00" fill-rule="nonzero">
            <path d="M18.757 5.356C17.741 4.133 14.051.156 9.5.156 4.949.156 1.26 4.133.243 5.333c-.31.378-.31.934 0 1.311 1.016 1.223 4.728 5.178 9.257 5.178 4.53 0 8.24-3.978 9.257-5.178.31-.355.31-.933 0-1.288zM9.5 10.51c-3.8 0-7.092-3.4-8.064-4.511.972-1.111 4.286-4.511 8.064-4.511 3.778 0 7.092 3.4 8.064 4.511-.972 1.111-4.264 4.511-8.064 4.511z"/>
            <path d="M9.5 8.667c-1.414 0-2.54-1.2-2.54-2.667 0-1.467 1.148-2.667 2.54-2.667 1.392 0 2.54 1.2 2.54 2.667 0 1.467-1.126 2.667-2.54 2.667z"/>
        </g>
    </g>
</svg>
