<?xml version="1.0" encoding="UTF-8"?>
<svg width="15px" height="8px" viewBox="0 0 15 8" version="1.1" xmlns="http://www.w3.org/2000/svg" xmlns:xlink="http://www.w3.org/1999/xlink">
    <!-- Generator: Sketch 43.2 (39069) - http://www.bohemiancoding.com/sketch -->
    <title>icone grid</title>
    <desc>Created with Sketch.</desc>
    <defs></defs>
    <g id="ADMINISTRADOR" stroke="none" stroke-width="1" fill="none" fill-rule="evenodd">
        <g id="7.3_Questionário-novo" transform="translate(-756.000000, -1666.000000)" fill="#787878">
            <g id="Group-28" transform="translate(370.000000, 938.000000)">
                <g id="pergunta-ativa" transform="translate(18.000000, 715.000000)">
                    <g id="Group-29" transform="translate(368.000000, 13.000000)">
                        <g id="Group-27">
                            <path d="M1.5,3 C0.671572875,3 0,2.32842712 0,1.5 C0,0.671572875 0.671572875,0 1.5,0 C2.32842712,0 3,0.671572875 3,1.5 C3,2.32842712 2.32842712,3 1.5,3 Z M7.5,3 C6.67157288,3 6,2.32842712 6,1.5 C6,0.671572875 6.67157288,0 7.5,0 C8.32842712,0 9,0.671572875 9,1.5 C9,2.32842712 8.32842712,3 7.5,3 Z M13.5,3 C12.6715729,3 12,2.32842712 12,1.5 C12,0.671572875 12.6715729,0 13.5,0 C14.3284271,0 15,0.671572875 15,1.5 C15,2.32842712 14.3284271,3 13.5,3 Z M1.5,8 C0.671572875,8 0,7.32842712 0,6.5 C0,5.67157288 0.671572875,5 1.5,5 C2.32842712,5 3,5.67157288 3,6.5 C3,7.32842712 2.32842712,8 1.5,8 Z M7.5,8 C6.67157288,8 6,7.32842712 6,6.5 C6,5.67157288 6.67157288,5 7.5,5 C8.32842712,5 9,5.67157288 9,6.5 C9,7.32842712 8.32842712,8 7.5,8 Z M13.5,8 C12.6715729,8 12,7.32842712 12,6.5 C12,5.67157288 12.6715729,5 13.5,5 C14.3284271,5 15,5.67157288 15,6.5 C15,7.32842712 14.3284271,8 13.5,8 Z" id="icone-grid"></path>
                        </g>
                    </g>
                </g>
            </g>
        </g>
    </g>
</svg>