<svg xmlns="http://www.w3.org/2000/svg" viewBox="0 0 32 35">
    <path d="M9.534 5.126c-2.63 0-4.77 2.148-4.77 4.788s2.139 4.788 4.77 4.788c2.63 0 4.77-2.148 4.77-4.788s-2.14-4.788-4.77-4.788zm2.985 5.216h.779a3.803 3.803 0 0 1-3.316 3.347v-.8a.492.492 0 1 0-.982 0v.79a3.804 3.804 0 0 1-3.231-3.337h.693a.492.492 0 0 0 0-.986h-.676a3.803 3.803 0 0 1 3.2-3.205l-.02.654c-.008.272.205.5.476.508a.496.496 0 0 0 .505-.478l.022-.698a3.803 3.803 0 0 1 3.312 3.22h-.761a.492.492 0 0 0 0 .985zM9.791 9.48a.494.494 0 0 1-.298.885.488.488 0 0 1-.297-.1l-1.703-1.3a.494.494 0 0 1-.093-.691.49.49 0 0 1 .688-.094l1.703 1.3zm21.962 1.84c0-2.065-.898-3.933-2.312-4.864l-.347-2.492a.786.786 0 0 0-.778-.68h-1.701c-.39 0-.72.287-.778.673l-.373 2.516c-1.398.936-2.286 2.8-2.286 4.847 0 2.311 1.129 4.29 2.719 5.09a.487.487 0 0 0-.166.364V18.3c0 .272.22.493.49.493h.458v9.469c0 3.04-1.63 4.395-5.286 4.395-3.848 0-5.799-1.479-5.799-4.395V17.209h2.687a.787.787 0 0 0 .786-.788v-1.24l2.278-.066a.787.787 0 0 0 .762-.788V.788A.79.79 0 0 0 21.321 0h-.002l-4.762.017a.82.82 0 0 0-.154.013L.67 2.639a.781.781 0 0 0-.644.577A.787.787 0 0 0 0 3.43v12.99c0 .435.352.788.786.788h2.152V28.26c0 2.086 0 5.971 4.658 5.971 4.526 0 4.526-3.885 4.526-5.971V17.209h1.901v11.052c0 3.795 2.686 5.972 7.37 5.972 5.668 0 6.858-3.248 6.858-5.972v-9.47h.458c.27 0 .49-.22.49-.492v-1.525a.487.487 0 0 0-.166-.364c1.59-.8 2.72-2.779 2.72-5.09zm-11.217 2.241l-1.47.043V3.42a.787.787 0 0 0-.785-.789h-1.036V1.591l3.29-.011V13.56zm-4.273-11.91v.98h-5.905l5.905-.98zm-5.712 26.61c0 3.368-.691 4.395-2.955 4.395-2.365 0-3.086-1.027-3.086-4.395V17.209h6.041v11.052zM1.57 15.632V4.207h15.924v11.425H1.571zm25.894-.416c-1.472 0-2.716-1.784-2.716-3.896 0-1.582.699-3.04 1.74-3.629.051-.03.1-.064.143-.105l.09-.083a.79.79 0 0 0 .247-.465l.323-2.176h.34L27.931 7c.02.148.082.287.178.4l.075.09c.063.074.14.136.225.183 1.06.576 1.772 2.042 1.772 3.647 0 2.112-1.243 3.896-2.716 3.896z"/>
</svg>
