<svg xmlns="http://www.w3.org/2000/svg" width="{{include.width}}" height="{{include.height}}" viewBox="0 0 34 34">
    <g fill="none" fill-rule="evenodd" stroke="#EFAD00" stroke-linecap="round" stroke-linejoin="round" stroke-width="1.776" transform="scale(-1 1) rotate(44 -11.37 -28.143)">
        <path d="M14.802 10.29c-1.074 3.618-4.568 5.907-8.245 5.401-3.678-.506-6.45-3.658-6.543-7.437-.093-3.78 2.521-7.068 6.169-7.761 3.648-.694 7.25 1.414 8.5 4.974M14.683 5.453h14.222c.11 0 .217.044.298.121.505.488 2.376 2.237 2.398 2.264.022.027 0 .05 0 .05l-2.384 2.267a.435.435 0 0 1-.299.121H26.75l-2.16 1.955a.433.433 0 0 1-.597 0l-1.682-1.65a.433.433 0 0 0-.597 0l-1.875 1.686a.433.433 0 0 1-.597 0l-1.945-1.978h-2.494"/>
        <rect width="4.391" height="4.474" x="3.218" y="5.722" rx="2.195"/>
    </g>
</svg>
