<svg xmlns="http://www.w3.org/2000/svg" width="{{include.width}}" height="{{include.height}}" viewBox="0 0 24 25">
    <g fill="#EFAD00" fill-rule="evenodd">
        <path d="M22.286 24.181H1.714A1.72 1.72 0 0 1 0 22.454V1.727A1.72 1.72 0 0 1 1.714 0h20.572A1.72 1.72 0 0 1 24 1.727v20.727a1.72 1.72 0 0 1-1.714 1.727zm-20-2.303h19.428V2.303H2.286v19.575z"/>
        <path d="M12 17.848a1.147 1.147 0 0 1-1.143-1.152v-9.5c0-.635.512-1.15 1.143-1.15s1.143.515 1.143 1.15v9.5c0 .636-.512 1.152-1.143 1.152z"/>
        <path d="M16.571 13.242H7.43a1.147 1.147 0 0 1-1.143-1.151c0-.636.511-1.152 1.143-1.152h9.142c.632 0 1.143.516 1.143 1.152 0 .635-.511 1.151-1.143 1.151z"/>
    </g>
</svg>
