<svg xmlns="http://www.w3.org/2000/svg" width="{{include.width}}" height="{{include.height}}" viewBox="0 0 27 27">
    <path fill="#EFAD00" fill-rule="nonzero" d="M8.937 3.041A10.315 10.315 0 0 1 16.28 0c2.774 0 5.381 1.08 7.342 3.041a10.317 10.317 0 0 1 3.042 7.343c0 2.773-1.08 5.38-3.041 7.342a10.317 10.317 0 0 1-7.343 3.041c-2.774 0-5.38-1.08-7.342-3.04-4.048-4.05-4.048-10.637 0-14.686zm1.869 12.816a7.694 7.694 0 0 0 5.473 2.267c2.068 0 4.011-.804 5.473-2.267a7.695 7.695 0 0 0 2.267-5.473 7.689 7.689 0 0 0-2.267-5.474 7.69 7.69 0 0 0-5.473-2.266c-2.067 0-4.01.804-5.473 2.266-3.017 3.018-3.017 7.929 0 10.947zM.387 24.407l5.544-5.544A1.321 1.321 0 1 1 7.8 20.732l-5.544 5.544a1.317 1.317 0 0 1-.934.387 1.322 1.322 0 0 1-.934-2.257z"/>
</svg>
