<svg xmlns="http://www.w3.org/2000/svg" width="{{include.width}}" height="{{include.height}}" viewBox="0 0 20 18">
    <g fill="#EFAD00" fill-rule="evenodd">
        <path d="M.991 2.001h17.84a.993.993 0 0 0 0-1.985H.991A.993.993 0 0 0 .991 2zM13.876 15.902H.99a.993.993 0 0 0 0 1.986h12.885a.993.993 0 0 0 0-1.986zM.991 9.945h5.947a.993.993 0 0 0 0-1.986H.99a.993.993 0 0 0 0 1.986zM18.831 7.959h-4.955a.993.993 0 0 0 0 1.986h4.955a.993.993 0 0 0 0-1.986zM.991 5.973h1.982a.993.993 0 0 0 0-1.986H.991a.993.993 0 0 0 0 1.986zM18.831 3.987h-6.938a.993.993 0 0 0 0 1.986h6.938a.993.993 0 0 0 0-1.986zM7.929 3.987h-.991a.993.993 0 0 0 0 1.986h.99a.993.993 0 0 0 0-1.986zM10.902 7.959h-.99a.993.993 0 0 0 0 1.986h.99a.993.993 0 0 0 0-1.986zM.991 13.916h1.982a.993.993 0 0 0 0-1.986H.991a.993.993 0 0 0 0 1.986zM7.929 11.93h-.991a.993.993 0 0 0 0 1.986h.99a.993.993 0 0 0 0-1.986zM10.902 12.923c0 .547.445.993.991.993h.992a.993.993 0 0 0 0-1.986h-.992a.993.993 0 0 0-.99.993zM18.831 11.93H16.85a.993.993 0 0 0 0 1.986h1.982a.993.993 0 0 0 0-1.986zM18.831 15.902H16.85a.993.993 0 0 0 0 1.986h1.982a.993.993 0 0 0 0-1.986z"/>
    </g>
</svg>
