<svg xmlns="http://www.w3.org/2000/svg" viewBox="0 0 40 35">
    <g>
        <path d="M9.637 5.744c.491 0 .89-.403.89-.9V3.541c0-.95.764-1.724 1.704-1.724h.635c.94 0 1.705.773 1.705 1.724v1.303c0 .497.398.9.889.9.49 0 .888-.403.888-.9V3.541c0-1.943-1.562-3.523-3.482-3.523h-.635c-1.92 0-3.483 1.58-3.483 3.523v1.303c0 .497.398.9.89.9zM24.54 5.744c.491 0 .89-.403.89-.9V3.541c0-.95.764-1.724 1.704-1.724h.636c.94 0 1.704.773 1.704 1.724v1.303c0 .497.398.9.89.9.49 0 .888-.403.888-.9V3.541c0-1.943-1.562-3.523-3.482-3.523h-.636c-1.92 0-3.482 1.58-3.482 3.523v1.303c0 .497.397.9.888.9zM1.897 27.482v4.139c0 1.402 1.127 2.543 2.513 2.543h2.746c1.386 0 2.514-1.14 2.514-2.543v-4.139a2.544 2.544 0 0 0 1.802-2.44V19.08c0-2.376-1.911-4.31-4.26-4.31H4.355c-2.348 0-4.259 1.934-4.259 4.31v5.964c0 1.152.761 2.128 1.802 2.44zm-.024-8.403c0-1.384 1.113-2.51 2.48-2.51h2.86c1.368 0 2.48 1.126 2.48 2.51v5.964a.74.74 0 0 1-.735.744H7.892v5.834a.74.74 0 0 1-.735.744H4.41a.74.74 0 0 1-.736-.744v-5.834H2.61a.74.74 0 0 1-.735-.744v-5.964h-.001zM18.627 34.165h2.746c1.386 0 2.513-1.141 2.513-2.544v-4.138a2.544 2.544 0 0 0 1.802-2.44V19.08c0-2.376-1.91-4.31-4.259-4.31h-2.858c-2.349 0-4.26 1.934-4.26 4.31v5.964c0 1.152.762 2.128 1.803 2.44v4.138c0 1.403 1.127 2.544 2.513 2.544zm-2.538-9.122v-5.964c0-1.384 1.114-2.51 2.482-2.51h2.858c1.368 0 2.481 1.126 2.481 2.51v5.964a.74.74 0 0 1-.735.744h-1.066v5.834a.74.74 0 0 1-.736.744h-2.745a.74.74 0 0 1-.736-.744v-5.834h-1.066a.74.74 0 0 1-.737-.744zM16.2 10.14c0 1.943 1.562 3.524 3.482 3.524h.636c1.92 0 3.482-1.58 3.482-3.524V8.837c0-1.943-1.562-3.524-3.482-3.524h-.636c-1.92 0-3.482 1.581-3.482 3.524v1.303zm1.777-1.303c0-.95.765-1.724 1.705-1.724h.636c.94 0 1.704.773 1.704 1.724v1.303c0 .952-.765 1.725-1.704 1.725h-.636c-.94 0-1.705-.773-1.705-1.725V8.837zM1.861 10.14c0 1.943 1.563 3.524 3.483 3.524h.636c1.92 0 3.482-1.58 3.482-3.524V8.837c0-1.943-1.562-3.524-3.482-3.524h-.636c-1.92 0-3.483 1.581-3.483 3.524v1.303zM3.64 8.837c0-.95.765-1.724 1.705-1.724h.636c.94 0 1.704.773 1.704 1.724v1.303c0 .952-.765 1.725-1.704 1.725h-.636c-.94 0-1.705-.773-1.705-1.725V8.837zM32.787 14.77c-2.348 0-4.259 1.933-4.259 4.31v5.963c0 1.152.762 2.128 1.802 2.44v4.138c0 1.402 1.128 2.543 2.514 2.543h2.745c1.387 0 2.514-1.14 2.514-2.543v-4.139a2.544 2.544 0 0 0 1.802-2.44V19.08c0-2.376-1.91-4.31-4.259-4.31h-2.859zm5.34 4.31v5.963a.74.74 0 0 1-.735.744h-1.066v5.834c0 .41-.33.744-.736.744h-2.746a.74.74 0 0 1-.736-.744v-5.834h-1.065a.74.74 0 0 1-.736-.744v-5.964c0-1.384 1.113-2.51 2.481-2.51h2.86c1.366 0 2.48 1.126 2.48 2.51zM30.417 10.14c0 1.943 1.562 3.524 3.482 3.524h.636c1.92 0 3.482-1.58 3.482-3.524V8.837c0-1.943-1.562-3.524-3.482-3.524H33.9c-1.92 0-3.482 1.581-3.482 3.524v1.303zm1.778-1.303c0-.95.765-1.724 1.704-1.724h.636c.94 0 1.705.773 1.705 1.724v1.303c0 .952-.765 1.725-1.705 1.725H33.9c-.94 0-1.704-.773-1.704-1.725V8.837z"/>
    </g>
</svg>
