<svg xmlns="http://www.w3.org/2000/svg" viewBox="0 0 30 40">
    <g>
        <path d="M28.722 40H.896a.883.883 0 0 1-.87-.896V6.321c0-.494.39-.895.87-.895h27.826c.48 0 .87.4.87.895v32.783c0 .495-.39.896-.87.896zM1.766 38.209h26.087V7.216H1.766V38.21z"/>
        <path d="M21.168 13.179H8.449a.883.883 0 0 1-.869-.896V6.321c0-.494.39-.895.87-.895h12.718c.48 0 .869.4.869.895v5.962c0 .494-.39.896-.87.896zm-11.85-1.791h10.98V7.216H9.318v4.172z"/>
        <path d="M20.946 6.319h-1.74c0-2.497-1.974-4.528-4.4-4.528-2.424 0-4.396 2.031-4.396 4.528H8.671C8.671 2.835 11.423 0 14.806 0c3.386 0 6.14 2.835 6.14 6.319zM15.63 28.242h-.03a.864.864 0 0 1-.705-.42l-4.884-8.014-1.473 2.602a.866.866 0 0 1-.751.444H3.794v-1.79h3.493l1.946-3.437a.863.863 0 0 1 .736-.444.911.911 0 0 1 .752.42l4.964 8.147 4.828-6.806a.861.861 0 0 1 .75-.366.868.868 0 0 1 .706.45l1.132 2.035h2.722v1.79h-3.227a.86.86 0 0 1-.754-.45l-.715-1.288-4.794 6.76a.86.86 0 0 1-.703.367z"/>
    </g>
</svg>
