<svg xmlns="http://www.w3.org/2000/svg" viewBox="0 0 40 40">
    <path d="M17.5 30h-10a.834.834 0 0 0 0 1.667h10a.834.834 0 0 0 0-1.667zm5.175 8.333H1.667v-30H7.5c.46 0 .833-.373.833-.833V1.667h18.334v12.958a.834.834 0 0 0 1.666 0V.833A.834.834 0 0 0 27.5 0h-20a.846.846 0 0 0-.322.065c-.048.02-.085.057-.128.085-.047.03-.1.053-.14.093L.243 6.91c-.038.038-.06.09-.09.135-.03.045-.068.083-.088.133A.846.846 0 0 0 0 7.5v31.667c0 .46.373.833.833.833h21.842a.834.834 0 0 0 0-1.667zM6.667 2.845v3.822H2.845l3.822-3.822zM17.5 25h-10a.834.834 0 0 0 0 1.667h10a.834.834 0 0 0 0-1.667zm3.333-15H7.5a.834.834 0 0 0 0 1.667h13.333a.834.834 0 0 0 0-1.667zm14.125 11.72c1.024-.977 1.709-2.382 1.709-4.22a.834.834 0 0 0-.834-.833c-1.91 0-3.816.886-4.908 2.575a11.72 11.72 0 0 0-1.053-2.187.834.834 0 0 0-1.409.892c.635 1.003 1.279 2.65 1.459 4.471-.087-.036-.165-.065-.257-.105-.662-.288-1.487-.646-2.513-.646-3.282 0-5.485 3.091-5.485 7.695C21.667 33.597 24.59 40 28.998 40c.774 0 1.162-.178 1.525-.375.144-.077.194-.103.31-.113.117.008.169.036.31.113.364.198.752.375 1.525.375C37.075 40 40 33.597 40 29.362c0-4.387-2.015-7.369-5.042-7.642zm-.04-3.295c-.341 1.838-1.701 2.857-3.168 3.152.34-1.84 1.702-2.857 3.168-3.152zm-2.25 19.908c-.415 0-.54-.068-.73-.171a2.247 2.247 0 0 0-1.078-.317c-.05-.008-.098-.002-.15.003-.48.039-.77.197-.985.314-.192.103-.317.171-.73.171-2.918 0-5.665-5.053-5.665-8.971 0-3.605 1.535-6.029 3.818-6.029.68 0 1.25.249 1.852.509.57.248 1.16.503 1.817.503h.03c.656 0 1.246-.257 1.816-.503.602-.262 1.172-.509 1.852-.509 2.285 0 3.818 2.424 3.818 6.029 0 3.918-2.746 8.971-5.665 8.971zm-11.001-22.5a.834.834 0 0 0-.834-.833H7.5a.834.834 0 0 0 0 1.667h13.333c.46 0 .834-.374.834-.834zm-1.667 5a.834.834 0 0 0-.833-.833H7.5a.834.834 0 0 0 0 1.667h11.667c.46 0 .833-.374.833-.834z"/>
</svg>
