<svg xmlns="http://www.w3.org/2000/svg" width="18" height="25" viewBox="0 0 18 25">
    <path fill="#000" fill-rule="nonzero" d="M7.074 21.702h.01a.53.53 0 0 0 .52-.54L7.339 6.125a.518.518 0 0 0-.539-.52.53.53 0 0 0-.52.54l.265 15.037a.53.53 0 0 0 .529.52zm3.873 0a.53.53 0 0 0 .53-.52l.265-15.04a.53.53 0 0 0-.52-.538h-.01a.53.53 0 0 0-.53.52l-.265 15.039a.53.53 0 0 0 .52.539h.01zM16.15 5.604a.523.523 0 0 0-.546.513l-.53 16.474a.947.947 0 0 1-.945.946H3.893a.951.951 0 0 1-.946-.963l-.53-16.458a.53.53 0 0 0-1.059.034l.53 16.44c0 1.106.9 2.006 2.005 2.006H14.13c1.105 0 2.004-.9 2.004-1.989l.53-16.457a.53.53 0 0 0-.513-.546zm1.34-2.648H.53a.53.53 0 0 0 0 1.059h16.96a.53.53 0 0 0 0-1.06zM4.897 2.119a.53.53 0 0 0 .53-.53.53.53 0 0 1 .53-.53h6.107a.53.53 0 0 1 .53.53.53.53 0 0 0 1.06 0A1.59 1.59 0 0 0 12.063 0H5.956a1.59 1.59 0 0 0-1.589 1.59c0 .292.237.529.53.529z"/>
</svg>
