<svg xmlns="http://www.w3.org/2000/svg" viewBox="0 0 40 38">
    <g>
        <path d="M29.69 16.471L9.98 30.792a.733.733 0 0 0-.165 1.025.733.733 0 0 0 1.025.16l19.117-13.89 2.847 3.92a.733.733 0 0 0 1.026.16.733.733 0 0 0 .164-1.024l-3.278-4.512a.734.734 0 0 0-1.025-.16zM32.07 14.742a.733.733 0 0 0-.164 1.025l3.278 4.512a.733.733 0 0 0 1.025.16.733.733 0 0 0 .165-1.025l-3.278-4.512a.734.734 0 0 0-1.025-.16zM34.45 13.013a.733.733 0 0 0-.164 1.025l3.278 4.512a.733.733 0 0 0 1.025.16.733.733 0 0 0 .165-1.025l-3.278-4.512a.734.734 0 0 0-1.026-.16z"/>
        <path d="M30.59 22.712l-16.737 12.16-1.127-1.55a.733.733 0 0 0-1.025-.16.733.733 0 0 0-.165 1.024l1.557 2.143a.733.733 0 0 0 1.025.16L31.45 23.897a.733.733 0 0 0 .165-1.025.734.734 0 0 0-1.026-.16zM25.327 10.72a2.354 2.354 0 0 1-3.285-.512l-2.445-3.365a.733.733 0 0 0-1.025-.16.733.733 0 0 0-.164 1.025l2.444 3.364c1.234 1.7 3.628 2.073 5.336.833a2.354 2.354 0 0 1 3.285.513l.712.98a.733.733 0 0 0 1.025.16.733.733 0 0 0 .165-1.025l-.712-.98c-1.235-1.699-3.628-2.072-5.336-.832z"/>
        <path d="M24.473 7.954l-2.2-3.03a.733.733 0 0 0-1.026-.16.733.733 0 0 0-.164 1.025l2.607 3.589a.734.734 0 0 0 1.025.16c2.285-1.66 5.488-1.16 7.14 1.114l.728 1.003a.733.733 0 0 0 1.026.16.733.733 0 0 0 .164-1.025l-.728-1.003c-1.981-2.726-5.695-3.471-8.572-1.833z"/>
    </g>
</svg>
