<svg xmlns="http://www.w3.org/2000/svg" width="{{include.width}}" height="{{include.height}}" viewBox="0 0 28 26">
    <path fill="none" fill-rule="evenodd" stroke="#F8AA00" stroke-linecap="round" stroke-linejoin="round" stroke-width="2" d="M18.118 15.2a6.55 6.55 0 0 1 .001-.47c1.635-1.527 1.937-3.216 1.822-7.904C19.846 2.955 17.22 1 14 1c-3.22 0-5.846 1.955-5.94 5.826-.116 4.687.186 6.377 1.82 7.904a6.55 6.55 0 0 1 .001.471c-.22.056-.456.118-.703.186-1.07.297-2.142.653-3.149 1.07C2.92 17.746 1 19.328 1 21.472V25h26v-3.528c0-2.144-1.92-3.726-5.03-5.015a27.497 27.497 0 0 0-3.148-1.07c-.247-.068-.482-.13-.704-.186z"/>
</svg>
