<svg xmlns="http://www.w3.org/2000/svg" viewBox="0 131.675 612 527.743">
<g>
	<path d="M562.565,320.399c-25.179,0-45.665-20.23-45.665-45.096c0-3.727,0-15.071,19.243-43.782
		c8.22-12.264,16.5-22.577,18.211-24.687c1.904-2.561,4.93-4.121,8.197-4.121c3.206,0,6.183,1.501,8.093,3.976
		c6.726,8.216,37.572,47.082,37.572,68.614C608.216,300.17,587.738,320.399,562.565,320.399z M562.559,229.581
		c-2.828,3.789-6.138,8.377-9.446,13.313c-14.645,21.853-15.784,30.332-15.784,32.41c0,13.602,11.32,24.667,25.237,24.667
		c13.908,0,25.223-11.066,25.223-24.667c0-2.078-1.138-10.558-15.784-32.41C568.696,237.958,565.387,233.369,562.559,229.581z"/>
</g>
<g>
	<path d="M568.219,135.001c-3.798-4.169-10.261-4.457-14.43-0.65L441.581,236.893l-27.913-30.002l-46.4,43.178l-12.424-13.353
		l-240.87,224.146l-10.465-11.319l-15.006,13.863l10.511,11.375l25.647,27.736l-0.046,0.037l-66.03,61.452l-38.758-41.925
		L4.822,535.946l114.13,123.471l15.006-13.873l-37.523-40.597l66.077-61.48l40.123,43.41l15.006-13.873l-7.911-8.561
		l241.213-224.462l-11.951-12.842l46.4-43.169l-29.881-32.119l112.069-102.421C571.738,145.624,572.026,139.161,568.219,135.001z
		 M83.137,589.422l-10.149-10.911l64.944-60.44l10.149,10.911L83.137,589.422z M196.022,549.299l-44.497-47.812l-23.771-25.545
		l0.084-0.084l21.524-20.029l21.153,25.006c2.024,2.386,4.903,3.612,7.809,3.612c2.321,0,4.671-0.789,6.584-2.414
		c4.309-3.64,4.847-10.084,1.207-14.393l-21.775-25.74l31.906-29.696l20.438,24.18c2.024,2.386,4.903,3.612,7.809,3.612
		c2.331,0,4.671-0.789,6.593-2.414c4.299-3.64,4.838-10.084,1.198-14.393l-21.078-24.904l25.768-23.985l21.348,25.238
		c2.015,2.386,4.903,3.612,7.8,3.612c2.331,0,4.68-0.789,6.593-2.414c4.309-3.64,4.847-10.084,1.207-14.393l-21.97-25.972
		l32.667-30.401l22.193,26.223c2.024,2.386,4.903,3.621,7.809,3.621c2.321,0,4.671-0.799,6.584-2.414
		c4.309-3.649,4.847-10.094,1.207-14.402l-22.815-26.966l21.673-20.168l23.92,28.293c2.024,2.386,4.903,3.612,7.809,3.612
		c2.331,0,4.671-0.789,6.593-2.414c4.309-3.64,4.847-10.084,1.198-14.393l-24.551-29.027l17.568-16.352l68.268,73.357
		L196.022,549.299z M456.522,282.931l-31.042,28.888l-43.893-47.171l31.042-28.878L456.522,282.931z"/>
	<polygon points="151.526,501.487 127.754,475.942 127.838,475.859"/>
</g>
<g>
	<path d="M274.895,455.728l-30.763,28.544c-1.969,1.829-4.457,2.73-6.946,2.73c-2.739,0-5.479-1.096-7.494-3.269
		c-3.835-4.132-3.594-10.595,0.548-14.43l30.763-28.544c4.132-3.844,10.595-3.603,14.43,0.539
		C279.268,445.43,279.027,451.893,274.895,455.728z"/>
</g>
<g>
	<path d="M325.214,400.654l-30.763,28.544c-1.959,1.829-4.457,2.73-6.946,2.73c-2.739,0-5.469-1.096-7.484-3.269
		c-3.835-4.132-3.594-10.595,0.539-14.43l30.763-28.544c4.132-3.844,10.595-3.594,14.439,0.539
		C329.596,390.357,329.355,396.819,325.214,400.654z"/>
</g>
</svg>
