<svg xmlns="http://www.w3.org/2000/svg" viewBox="0 0 1242 1379" class="bg-lupa">
    <g>
        <path d="M542.063 68.039c-261.771 0-474.746 214.355-474.746 477.854 0 263.512 212.975 477.893 474.746 477.893 261.796 0 474.783-214.38 474.783-477.893 0-263.499-212.987-477.854-474.783-477.854m0 1023.08C243.39 1091.12.426 846.526.426 545.894.426 245.275 243.39.706 542.063.706c298.697 0 541.688 244.569 541.688 545.187 0 300.632-242.99 545.227-541.688 545.227"/>
        <path d="M542.112 940.194c-141.15 0-289.06-92.058-359.692-223.865-8.775-16.352-2.701-36.788 13.568-45.608 16.22-8.859 36.534-2.72 45.296 13.645 59.499 110.975 183.188 188.495 300.828 188.495 123.22 0 252.057-80.124 299.687-186.363 7.583-16.939 27.34-24.47 44.23-16.837 16.84 7.646 24.322 27.585 16.74 44.536-58.713 130.952-210.389 225.997-360.657 225.997"/>
        <path d="M1208.228 1378.827c-8.572 0-17.119-3.294-23.65-9.867L898.79 1081.259c-13.061-13.148-13.061-34.464 0-47.612 13.074-13.135 34.226-13.135 47.3 0l285.788 287.7c13.061 13.148 13.061 34.465 0 47.613a33.258 33.258 0 0 1-23.65 9.867"/>
    </g>
</svg>
