<svg xmlns="http://www.w3.org/2000/svg" viewBox="0 0 1242 1091.12"><g opacity=".173"><path fill="#CBCBCB" d="M542.063 68.039c-261.771 0-474.746 214.355-474.746 477.854 0 263.512 212.975 477.893 474.746 477.893 261.796 0 474.783-214.38 474.783-477.893 0-263.499-212.987-477.854-474.783-477.854zm0 1023.08C243.39 1091.12.426 846.526.426 545.894.426 245.275 243.39.706 542.063.706c298.697 0 541.688 244.569 541.688 545.187 0 300.632-242.99 545.227-541.688 545.226z"/><path fill="#CBCBCB" d="M542.112 940.194c-141.15 0-289.06-92.058-359.692-223.865-8.775-16.352-2.701-36.788 13.568-45.608 16.22-8.859 36.534-2.72 45.296 13.645 59.499 110.975 183.188 188.495 300.828 188.495 123.22 0 252.057-80.124 299.687-186.363 7.583-16.939 27.34-24.47 44.23-16.837 16.84 7.646 24.322 27.585 16.74 44.536-58.713 130.952-210.389 225.997-360.657 225.997z"/><path fill="#CACACA" d="M1003.18 1091.12h-94.6l-9.79-9.86c-13.06-13.15-13.06-34.46 0-47.61 13.07-13.14 34.23-13.14 47.3 0l57.09 57.47z"/></g></svg>