<svg xmlns="http://www.w3.org/2000/svg" xmlns:xlink="http://www.w3.org/1999/xlink" width="351" height="425" viewBox="0 0 351 425">
    <defs>
        <path id="a" d="M3.384.062H0v6.764h3.384V.062z"/>
        <path id="c" d="M178.344 56.653V0H0v56.653h178.344z"/>
        <path id="e" d="M7.282.045H0v5.183h7.282V.045z"/>
        <path id="g" d="M8.446.045H.1v4.181h8.347z"/>
        <path id="i" d="M8.398.045H.05v4.181h8.348V.046z"/>
    </defs>
    <g fill="none" fill-rule="evenodd">
        <path fill="#FFF" d="M201.478 399.166c-.92 0-1.693.768-1.693 1.729 0 .912.774 1.679 1.693 1.679h3.433c.918 0 1.692-.767 1.692-1.68 0-.96-.774-1.728-1.692-1.728h-3.433zM213.132 400.559c0 .957.726 1.678 1.693 1.678.918 0 1.692-.721 1.692-1.678v-3.36c0-.96-.774-1.727-1.692-1.727-.967 0-1.693.767-1.693 1.728v3.359zM213.132 387.029c0 .911.726 1.678 1.693 1.678.918 0 1.692-.767 1.692-1.678v-3.406c0-.914-.774-1.678-1.692-1.678-.967 0-1.693.764-1.693 1.678v3.406zM225.028 381.945c-.918 0-1.693.718-1.693 1.678 0 .91.775 1.679 1.693 1.679h3.433c.92 0 1.693-.768 1.693-1.679 0-.96-.773-1.678-1.693-1.678h-3.433zM238.665 381.945c-.919 0-1.693.718-1.693 1.678 0 .91.774 1.679 1.693 1.679h3.434c.919 0 1.692-.768 1.692-1.679 0-.96-.773-1.678-1.692-1.678h-3.434zM252.35 381.945c-.967 0-1.74.718-1.74 1.678 0 .91.773 1.679 1.74 1.679h3.386c.967 0 1.692-.768 1.692-1.679 0-.96-.725-1.678-1.692-1.678h-3.385zM265.987 381.945c-.967 0-1.691.718-1.691 1.678 0 .91.724 1.679 1.691 1.679h3.386c.967 0 1.74-.768 1.74-1.679 0-.96-.773-1.678-1.74-1.678h-3.386zM279.626 381.945c-.92 0-1.693.718-1.693 1.678 0 .91.774 1.679 1.693 1.679h3.433c.918 0 1.692-.768 1.692-1.679 0-.96-.774-1.678-1.692-1.678h-3.433zM293.263 381.945c-.919 0-1.693.718-1.693 1.678 0 .91.774 1.679 1.693 1.679h3.432c.92 0 1.693-.768 1.693-1.679 0-.96-.774-1.678-1.693-1.678h-3.432zM306.948 381.945c-.967 0-1.741.718-1.741 1.678 0 .91.774 1.679 1.741 1.679h3.385c.968 0 1.692-.768 1.692-1.679 0-.96-.724-1.678-1.692-1.678h-3.385zM320.585 381.945c-.967 0-1.692.718-1.692 1.678 0 .91.725 1.679 1.692 1.679h3.24c.968 0 1.693-.768 1.693-1.679v-.145c0-.96-.725-1.727-1.692-1.727-.243 0-.484.047-.725.194h-2.516z"/>
        <g transform="matrix(-1 0 0 1 325.518 368.16)">
            <mask id="b" fill="#fff">
                <use xlink:href="#a"/>
            </mask>
            <path fill="#FFF" d="M3.384 5.147c0 .912-.772 1.68-1.692 1.68A1.675 1.675 0 0 1 0 5.146V1.742C0 .829.725.062 1.692.062c.92 0 1.692.767 1.692 1.68v3.405z" mask="url(#b)"/>
        </g>
        <g fill="#FFF" fill-rule="nonzero">
            <path d="M182.982 400.141l-.025-.05c-1.458-2.976-4.007-4.632-4.147-4.721a1.654 1.654 0 0 0-.866-.259l-18.708-.243-30.717-12.872a1.653 1.653 0 0 0-2.027.631c-.028.042-1.932 2.942-5.2 4.759l-.074.04c-1.48.811-3.235 1.397-5.219 1.397l-.132-.001c-6.27-.081-8.463-4.827-8.549-5.02a1.655 1.655 0 0 0-1.497-1l-4.048-.053a1.644 1.644 0 0 0-1.566 1.064c-.057.147-5.113 13.349-8.297 24.07l-.007.023a138.72 138.72 0 0 0-1.014 3.577c-.586 2.193-.194 4.27 1.134 6.006 4.198 5.491 15.989 5.918 19.503 5.918 2.323 0 10.065-.197 12.889-2.699l.049-.041.03-.027c1.063-.989 2.324-1.47 3.858-1.47 2.284 0 4.317 1.101 4.501 1.204 4.559 2.846 10.95 3.445 15.512 3.445 10.394 0 24.646-3.275 31.375-10.466 3.177-3.393 4.572-6.823 4.147-10.195a9.678 9.678 0 0 0-.905-3.017zm-54.546-14.58l1.976.828-.407.536a1.664 1.664 0 0 0 .316 2.326 1.65 1.65 0 0 0 2.32-.317l.927-1.223 3.215 1.347-.375.496a1.664 1.664 0 0 0 .315 2.326 1.65 1.65 0 0 0 2.319-.317l.897-1.182 3.215 1.347-.344.454a1.664 1.664 0 0 0 .315 2.327 1.651 1.651 0 0 0 2.32-.317l.865-1.141 3.215 1.347-.313.413a1.664 1.664 0 0 0 .316 2.327 1.651 1.651 0 0 0 2.32-.317l.833-1.1 3.903 1.635c-1.768 2.23-5.146 2-5.97 1.907l-25.138-10.725a20.603 20.603 0 0 0 2.96-2.977zm-6.628 32.946c-1.463.812-5.253 1.58-10.282 1.58-7.983 0-14.765-1.856-16.877-4.619-.707-.924-.886-1.917-.563-3.124.186-.695.386-1.412.596-2.146l22.64 2.462c.782.198 4.806 1.438 4.486 5.847zm10.771-1.872c-1.112-.4-2.603-.785-4.226-.785-1.195 0-2.308.201-3.334.6-.743-4.428-4.676-6.527-7.058-7.051a1.566 1.566 0 0 0-.177-.03l-22.137-2.405c2.587-8.39 6.062-17.754 7.24-20.88l1.925.026c.95 1.548 3.25 4.467 7.558 5.583.157.168.349.306.574.4l9.152 3.803a1.655 1.655 0 0 0 2.162-.899 1.662 1.662 0 0 0-.895-2.169l-3.217-1.337c.688-.22 1.34-.485 1.957-.785l19.949 8.512h-3.314l-10.302-4.282a1.652 1.652 0 0 0-2.162.9c-.35.846.05 1.817.895 2.168l10.606 4.408c.201.083.416.126.634.126h11.651c.456.066.978.108 1.547.108 2.76 0 6.545-.942 8.366-4.447l17.406.226c.526.41 1.548 1.31 2.31 2.588-1.535 3.63-6.436 5.994-12.149 7.552-.7-2.622-2.856-4.973-6.334-6.864a1.652 1.652 0 0 0-2.244.669 1.663 1.663 0 0 0 .667 2.25c1.876 1.02 4.092 2.625 4.696 4.724-6.972 1.502-14.41 2.005-18.14 2.256-.797.054-1.478.1-2.017.144-5.462.441-9.838 3.488-11.589 4.89zm44.749-5.555c-5.107 5.457-17.288 9.418-28.963 9.418-5.046 0-9.378-.783-12.425-2.22 1.867-1.27 4.935-2.937 8.495-3.225.527-.042 1.193-.088 1.973-.14 4.392-.297 12.568-.848 20.012-2.624 6.599-1.574 11.314-3.818 14.098-6.698-.35 1.755-1.415 3.593-3.19 5.49zM194.242 374.907a1.659 1.659 0 0 0-.938-1.06l-15.767-6.754-14.518-29.725a1.659 1.659 0 0 0-1.936-.867c-.016.005-1.675.462-3.914.462-2.29 0-5.561-.49-8.15-2.826-4.663-4.206-3.194-9.225-3.132-9.427.2-.623.016-1.305-.469-1.743l-3.01-2.716a1.65 1.65 0 0 0-1.877-.236c-.14.074-12.614 6.66-22.052 12.62l-.02.012a137.375 137.375 0 0 0-3.113 2.02c-2.831 1.899-3.767 5.007-2.634 8.753 1.711 5.658 7.445 11.27 9.83 13.421 3.74 3.371 8.87 6.964 11.995 6.931l.023.001h.047c3.539-.113 5.441 3.056 6.146 4.567.025.066.054.13.088.193.128.292.204.498.227.564 3.655 12.075 26.01 20.083 39.213 20.082.997 0 1.955-.044 2.848-.132 4.617-.452 7.92-2.11 9.816-4.927a9.675 9.675 0 0 0 1.302-2.873c.004-.015.009-.03.012-.046.859-3.202.03-6.135-.017-6.294zm-37.073-34.623c1.387 0 2.588-.146 3.444-.293l.944 1.932-.658.135a1.66 1.66 0 0 0-1.29 1.958 1.657 1.657 0 0 0 1.952 1.295l1.5-.306 1.534 3.138-.608.124a1.66 1.66 0 0 0-1.29 1.959 1.657 1.657 0 0 0 1.951 1.295l1.451-.297 1.533 3.14-.556.113a1.66 1.66 0 0 0-1.292 1.959 1.657 1.657 0 0 0 1.953 1.295l1.4-.286 1.533 3.138-.506.104a1.66 1.66 0 0 0 .66 3.254l1.352-.276 1.86 3.81c-1.167.213-2.264-.083-3.186-.545a1.639 1.639 0 0 0-.269-.142 9.425 9.425 0 0 1-2.286-1.826L156.43 340.27c.244.009.49.014.738.014zm-4.703-.619l9.42 19.603-2.494-2.192-8.914-18.115c.636.278 1.3.513 1.988.704zm-18.478 20.727c-1.722-.376-5.281-2.458-9.233-6.02-4.538-4.091-7.856-8.545-8.875-11.915-.936-3.095.297-4.352 1.305-5.028.597-.4 1.218-.807 1.858-1.22l15.415 16.822c.376.546 2.701 4.216-.47 7.36zm3.768.573c2.347-3.821.768-7.998-.68-9.967a1.73 1.73 0 0 0-.113-.139l-15.069-16.445c7.456-4.6 16.222-9.345 19.16-10.918l1.432 1.292c-.303 1.792-.49 5.509 2.017 9.197.008.229.061.46.169.679l11.898 24.178c.096.196.23.37.393.514l8.756 7.696c.732.86 1.882 1.88 3.297 2.65.832.703 6.503 5.67 5.291 9.272a66.16 66.16 0 0 1-2.06-.665c-7.592-2.59-14.51-6.368-16.999-8.222-4.396-3.276-9.685-3.879-11.926-3.982-.95-1.723-2.716-4.106-5.566-5.14zm45.05 24.778c-.785.077-1.635.115-2.525.115-6.448 0-14.83-2.01-21.875-5.25-6.843-3.145-11.686-7.1-13.601-11.041 2.237.283 5.619 1.061 8.47 3.186 2.66 1.983 9.975 5.994 17.906 8.7 1.077.368 2.216.727 3.392 1.06l.012.003c3.439.97 7.204 1.707 10.723 1.706 1.066 0 2.108-.07 3.112-.218-1.387.924-3.262 1.508-5.613 1.739zm8.39-6.003c-2.998 1.517-7.73 1.545-13.676.114.618-1.975.397-4.678-2.124-8.175a20.981 20.981 0 0 0-.72-.939 7.718 7.718 0 0 0 1.696-.535l14.84 6.358c.115.723.216 1.908-.016 3.177z"/>
        </g>
        <g transform="rotate(-56 149.086 79.26)">
            <mask id="d" fill="#fff">
                <use xlink:href="#c"/>
            </mask>
            <path fill="#FFF" d="M118.746 2.806c.689.147 1.13.886.983 1.574-.147.69-.835 1.133-1.571.985l-.1-.05-.638-.147-.688-.148-.64-.147-.441-.05c-.69-.146-1.13-.836-.984-1.574a1.287 1.287 0 0 1 1.523-.985l.443.098.688.099.639.147.688.198h.098zm7.618 2.067c.687.197 1.081.935.884 1.625a1.25 1.25 0 0 1-1.621.837l-.492-.149-.64-.147-.638-.197-.638-.197h-.05c-.688-.197-1.13-.935-.933-1.625.196-.689.934-1.083 1.621-.886h.098l.64.197.638.197.689.197.442.148zm7.47 2.61c.688.245.983.984.736 1.673-.244.689-.982.984-1.67.738l-.295-.099-.589-.245-.639-.246-.59-.197-.295-.1a1.297 1.297 0 0 1-.787-1.672 1.294 1.294 0 0 1 1.672-.788l.295.098.639.246.638.246.59.247.295.098zm7.225 3.15c.687.295.933 1.082.638 1.723a1.315 1.315 0 0 1-1.72.64l-.197-.099-.54-.296-.59-.245-.59-.296-.441-.147a1.318 1.318 0 0 1-.64-1.723c.295-.69 1.032-.985 1.72-.69l.393.197.64.295.59.247.589.295.148.098zm7.028 3.642c.59.394.835 1.181.49 1.773-.392.64-1.179.885-1.769.492l-.147-.05-.54-.295-.541-.344-.59-.297-.442-.245a1.309 1.309 0 0 1-.54-1.773 1.304 1.304 0 0 1 1.77-.54l.441.245.59.345.589.345.59.295.099.049zm6.683 4.185c.59.393.787 1.23.344 1.821a1.268 1.268 0 0 1-1.769.344l-.098-.049-.54-.344-.541-.395-.541-.344-.443-.296c-.59-.344-.786-1.18-.393-1.77.393-.592 1.18-.789 1.77-.395l.492.295.54.345.541.344.54.394.098.05zm6.389 4.676c.59.443.688 1.23.246 1.822-.443.54-1.278.639-1.867.196l-.098-.05-.492-.393-.492-.394-.54-.394-.394-.295c-.589-.443-.687-1.28-.246-1.821a1.273 1.273 0 0 1 1.819-.295l.394.343.54.395.491.393.54.395.099.098zm6.045 5.07c.541.492.541 1.33.098 1.87a1.32 1.32 0 0 1-1.867.099l-.147-.148-.492-.442-.442-.394-.492-.443-.344-.295a1.316 1.316 0 0 1-.147-1.822c.49-.541 1.327-.64 1.868-.148l.343.296.492.442.49.444.493.443.147.098zm5.603 5.563c.54.492.492 1.329 0 1.82-.54.493-1.376.493-1.868-.048l-.197-.197-.442-.443-.442-.443-.443-.493-.245-.246a1.226 1.226 0 0 1 0-1.821 1.262 1.262 0 0 1 1.818-.05l.295.297.443.491.441.444.444.492.196.197zm5.258 5.907c.442.59.344 1.378-.195 1.87-.542.443-1.377.345-1.819-.196l-.247-.296-.393-.492-.442-.492-.393-.492-.196-.198c-.444-.54-.394-1.378.147-1.821.54-.492 1.376-.443 1.819.1l.196.245.443.491.392.493.443.492.245.296zM1.534 52.426c.344-.591 1.13-.788 1.768-.444.59.395.787 1.182.443 1.773l-.05.098-.343.542-.296.59-.343.542-.296.491a1.272 1.272 0 0 1-1.768.444 1.336 1.336 0 0 1-.492-1.773l.295-.491.345-.542.343-.591.344-.54.05-.099zm4.324-6.597c.394-.59 1.23-.738 1.818-.344.59.443.688 1.23.295 1.821l-.05.098-.392.542-.344.492-.393.542-.295.443c-.394.59-1.18.787-1.819.394-.59-.444-.737-1.232-.343-1.821l.343-.493.344-.542.394-.541.393-.542.049-.05zm4.767-6.3c.492-.542 1.278-.64 1.867-.15.54.444.64 1.282.148 1.823l-.097.098-.394.493-.393.492-.394.492-.343.443c-.443.542-1.23.64-1.819.197-.54-.443-.639-1.28-.196-1.821l.294-.444.442-.491.394-.493.442-.541.049-.098zm5.259-5.908c.492-.492 1.327-.54 1.818-.05.541.494.541 1.33.05 1.871l-.148.148-.393.444-.442.49-.443.445-.295.344c-.49.542-1.326.542-1.868.098a1.371 1.371 0 0 1-.049-1.87l.296-.345.442-.443.442-.492.442-.492.148-.148zm5.651-5.513a1.32 1.32 0 0 1 1.868.098c.442.542.442 1.33-.099 1.821l-.244.197-.444.443-.49.443-.443.444-.295.246c-.491.492-1.327.443-1.819-.05-.49-.541-.49-1.329.05-1.821l.295-.295.442-.443.491-.443.492-.444.196-.196zm6.046-5.07c.589-.444 1.375-.346 1.818.196.442.591.344 1.378-.197 1.822l-.295.246-.54.394-.492.394-.49.393-.198.197c-.54.443-1.375.394-1.819-.197-.49-.541-.393-1.378.149-1.822l.245-.196.491-.393.492-.395.54-.394.296-.245zm6.388-4.677a1.294 1.294 0 0 1 1.819.394c.393.59.246 1.378-.344 1.772l-.394.295-.54.345-.54.345-.492.393-.147.1c-.59.392-1.425.294-1.82-.296-.441-.591-.293-1.428.296-1.822l.147-.098.54-.394.542-.394.54-.345.393-.295zm6.733-4.135c.59-.344 1.426-.148 1.77.493.343.59.147 1.377-.49 1.772l-.493.295-.541.295-.54.345-.542.295-.097.05a1.243 1.243 0 0 1-1.77-.444c-.393-.59-.196-1.378.443-1.773l.05-.048.589-.345.54-.344.59-.296.491-.295zm6.98-3.692c.637-.295 1.424 0 1.72.64.343.64.049 1.427-.59 1.723l-.59.295-.54.295-.59.246-.591.296c-.638.344-1.425.099-1.72-.542-.344-.639-.098-1.427.54-1.772l.591-.295.589-.295.59-.296.59-.295zm7.273-3.15c.639-.247 1.424.098 1.672.737a1.391 1.391 0 0 1-.738 1.724h-.05l-.589.246-.59.246-.59.246-.59.197c-.639.296-1.424 0-1.67-.689-.296-.64 0-1.427.687-1.673l.541-.247.638-.246.59-.246.59-.246.1-.05zm7.42-2.56a1.25 1.25 0 0 1 1.623.837 1.252 1.252 0 0 1-.836 1.624l-.098.05-.59.147-.64.197-.587.197-.542.196a1.248 1.248 0 0 1-1.622-.836c-.245-.64.098-1.378.786-1.624l.54-.197.64-.198.639-.197.639-.197h.049zm7.619-2.068c.737-.148 1.425.247 1.572.985.147.689-.245 1.378-.982 1.526l-.05.049-.64.148-.59.148-.637.147-.541.148c-.738.147-1.425-.246-1.622-.936-.148-.738.247-1.427.934-1.624l.59-.148.639-.147.638-.148.64-.148h.049zm7.765-1.477c.688-.147 1.376.345 1.473 1.083.149.69-.343 1.38-1.08 1.478l-.59.097-.64.1-.638.097-.64.1c-.736.146-1.375-.345-1.522-1.035-.147-.69.344-1.377 1.032-1.526l.688-.099.639-.098.639-.098.64-.099zm7.863-.935c.688-.049 1.327.492 1.376 1.181.05.739-.442 1.33-1.18 1.428l-.49.05-.64.049-.64.048-.687.05h-.098c-.688.099-1.376-.394-1.425-1.131-.099-.69.441-1.38 1.13-1.43h.148l.688-.097.638-.05.689-.048.49-.05zM93.485 0c.737 0 1.327.59 1.327 1.28 0 .739-.59 1.328-1.277 1.328H91.913l-.64.049h-.343c-.689 0-1.278-.54-1.327-1.279 0-.69.54-1.28 1.277-1.329h.984L92.55 0H93.485zm7.912.245c.689.05 1.23.64 1.23 1.379-.05.738-.689 1.28-1.377 1.231l-.64-.049-.637-.05h-.688l-.64-.049c-.687-.05-1.277-.64-1.228-1.378 0-.69.64-1.28 1.327-1.23l.688.048h.688l.688.05.59.048zm7.029.69l.688.099.687.098.688.098.492.099a1.293 1.293 0 0 1 1.13 1.477c-.147.688-.786 1.181-1.474 1.083l-.54-.099-.689-.098-.688-.099-.638-.05-.688-.098-.688-.098-.345-.05c-.737-.048-1.229-.689-1.18-1.426.1-.74.738-1.232 1.426-1.133l.393.049.688.049.738.1z" mask="url(#d)"/>
        </g>
        <g>
            <path fill="#FFF" d="M65.89 275.04c0-1.185.942-2.132 2.06-2.132 1.178 0 2.12.947 2.12 2.131v4.145c0 1.184-.942 2.072-2.12 2.072a2.054 2.054 0 0 1-2.06-2.072v-4.145zM102.282 326.193c1.12 0 2.061.946 2.061 2.072a2.053 2.053 0 0 1-2.06 2.071h-4.18c-1.179 0-2.062-.887-2.062-2.07 0-1.127.883-2.073 2.061-2.073h4.18zM85.617 326.193c1.178 0 2.12.946 2.12 2.072 0 1.184-.942 2.071-2.12 2.071h-4.122c-1.178 0-2.12-.887-2.12-2.07 0-1.127.942-2.073 2.12-2.073h4.122z"/>
            <g transform="rotate(-90 198.09 132.246)">
                <mask id="f" fill="#fff">
                    <use xlink:href="#e"/>
                </mask>
                <path fill="#FFF" d="M3.848 4.226a2.067 2.067 0 0 1-1.777 1.002C.888 5.228 0 4.344 0 3.167v-1.06C0 .987.888.044 2.071.044H5.21c1.125 0 2.073.943 2.073 2.061 0 1.178-.948 2.12-2.073 2.12H3.85z" mask="url(#f)"/>
            </g>
            <g transform="rotate(-90 190.325 124.48)">
                <mask id="h" fill="#fff">
                    <use xlink:href="#g"/>
                </mask>
                <path fill="#FFF" d="M2.172 4.226c-1.126 0-2.073-.942-2.073-2.12 0-1.118.947-2.06 2.073-2.06h4.202c1.124 0 2.072.942 2.072 2.06 0 1.178-.948 2.12-2.072 2.12H2.172z" mask="url(#h)"/>
            </g>
            <g transform="rotate(-90 181.953 116.109)">
                <mask id="j" fill="#fff">
                    <use xlink:href="#i"/>
                </mask>
                <path fill="#FFF" d="M2.182 4.226A2.117 2.117 0 0 1 .05 2.106C.05.988.998.046 2.182.046h4.144c1.185 0 2.072.942 2.072 2.06 0 1.178-.887 2.12-2.072 2.12H2.182z" mask="url(#j)"/>
            </g>
        </g>
        <g fill="#FFF">
            <path d="M313.607 296.892a1.346 1.346 0 0 0-1.147.983c-1.123 4.356-.691 7.97 1.23 10.795.34.503.725.985 1.147 1.434a23.29 23.29 0 0 0-2.685-.164c-4.355-.003-7.808 1.342-10.326 3.667-4.476 4.133-5.837 10.943-5.04 17.72.796 6.777 3.76 13.657 8.462 18.21 4.59 4.449 11.055 6.537 18.214 3.73 7.16 2.807 13.624.719 18.215-3.73 4.701-4.553 7.666-11.433 8.462-18.21.797-6.777-.564-13.587-5.04-17.72-2.518-2.325-5.971-3.67-10.326-3.667-2.92.002-6.243.616-9.979 1.947 0-.345.008-.687 0-1.025v-.02c.266-3.196 1.296-4.855 2.992-6.166 1.723-1.332 4.3-2.237 7.478-3.319.587-.185.99-.828.902-1.436-.087-.609-.656-1.112-1.27-1.124-.16-.002-.321.026-.472.082-3.174 1.08-6.017 1.996-8.257 3.728a9.59 9.59 0 0 0-2.192 2.397 11.395 11.395 0 0 0-1.394-2.97c-1.644-2.482-4.435-4.258-8.584-5.122a1.31 1.31 0 0 0-.267-.02 1.282 1.282 0 0 0-.123 0zm1.107 2.888c2.917.803 4.598 2.062 5.675 3.687 1.206 1.82 1.694 4.284 1.783 7.334v.266c.006.26 0 .513 0 .779-2.978-1.323-5.083-2.844-6.311-4.65-1.293-1.904-1.762-4.203-1.147-7.416zm-2.5 12.742c2.914.02 6.427.76 10.613 2.437.465.176.829.14 1.291 0 9.621-3.852 15.622-2.729 19.199.574 3.597 3.322 4.932 9.262 4.2 15.486-.732 6.225-3.527 12.627-7.663 16.634-4.119 3.99-9.348 5.728-15.797 3.032-.422-.209-.747-.135-1.23.02-6.43 2.67-11.646.93-15.756-3.052-4.137-4.007-6.951-10.409-7.683-16.634-.732-6.224.623-12.164 4.22-15.486 2.024-1.869 4.815-3.039 8.606-3.012z"/>
            <path d="M307.595 319.567a1.311 1.311 0 0 0-1.102.529c-3.285 4.3-2.975 9.461-1.283 13.862 1.692 4.4 4.698 8.212 7.204 10.503a1.312 1.312 0 1 0 1.77-1.936c-2.195-2.005-5.031-5.619-6.526-9.507-1.495-3.889-1.716-7.881.92-11.331a1.31 1.31 0 0 0-.983-2.12z"/>
        </g>
        <g fill="#FFF" fill-rule="nonzero">
            <path d="M93.402 253.924H44.586l6.16-6.78a3.89 3.89 0 0 0 1.811.446 3.888 3.888 0 0 0 3.455-2.094l6.295 1.572c.166 1.965 1.836 3.514 3.865 3.514 2.14 0 3.88-1.722 3.88-3.838 0-1.166-.53-2.213-1.363-2.917l5.133-12.133 3.655 9.219a3.816 3.816 0 0 0-1.433 2.975c0 2.116 1.74 3.838 3.88 3.838 2.14 0 3.88-1.722 3.88-3.838a3.78 3.78 0 0 0-.207-1.236l4.484-4.434a1.109 1.109 0 0 0 0-1.58 1.139 1.139 0 0 0-1.598 0l-4.23 4.182a3.888 3.888 0 0 0-2.684-.753l-4.495-11.335 4.515-10.672a3.88 3.88 0 0 0 4.086-2.841h7.113c.624 0 1.13-.5 1.13-1.117s-.506-1.118-1.13-1.118h-7.197a3.883 3.883 0 0 0-3.667-2.584c-2.14 0-3.88 1.722-3.88 3.838 0 1.206.566 2.283 1.449 2.988l-3.604 8.518-5.264-13.277a3.81 3.81 0 0 0 1.29-2.854c0-2.116-1.741-3.838-3.88-3.838-2.14 0-3.88 1.722-3.88 3.838 0 .916.326 1.757.868 2.417l-9.314 13.958a3.9 3.9 0 0 0-2.61.01l-8.001-10.412v-11.413c0-.617-.506-1.117-1.13-1.117-.624 0-1.13.5-1.13 1.117v10.988h-1.896c-.624 0-1.13.5-1.13 1.117s.506 1.118 1.13 1.118h1.896v11.23h-1.896c-.624 0-1.13.5-1.13 1.117s.506 1.118 1.13 1.118h1.896v11.502h-1.896c-.624 0-1.13.5-1.13 1.117s.506 1.118 1.13 1.118h1.896v10.443c0 .617.506 1.118 1.13 1.118h9.734v1.466c0 .617.506 1.118 1.13 1.118.624 0 1.13-.5 1.13-1.118v-1.466h11.355v1.466c0 .617.506 1.118 1.13 1.118.624 0 1.13-.5 1.13-1.118v-1.466h11.63v1.466c0 .617.506 1.118 1.13 1.118.624 0 1.13-.5 1.13-1.118v-1.466H93.4c.624 0 1.13-.5 1.13-1.118 0-.617-.505-1.117-1.13-1.117zm-13.477-11.639c.893 0 1.62.72 1.62 1.603 0 .884-.727 1.603-1.62 1.603-.894 0-1.621-.719-1.621-1.603s.727-1.603 1.62-1.603zm0-29.65c.893 0 1.62.72 1.62 1.603 0 .884-.727 1.603-1.62 1.603-.894 0-1.621-.72-1.621-1.603 0-.884.727-1.603 1.62-1.603zm-27.368 32.72c-.893 0-1.62-.72-1.62-1.603 0-.884.727-1.603 1.62-1.603.894 0 1.621.72 1.621 1.603 0 .884-.727 1.603-1.62 1.603zm13.615 2.992c-.894 0-1.62-.719-1.62-1.603 0-.883.727-1.602 1.62-1.602.894 0 1.62.719 1.62 1.602 0 .884-.726 1.603-1.62 1.603zm-.137-40.336c.893 0 1.62.719 1.62 1.603 0 .883-.727 1.603-1.62 1.603-.894 0-1.62-.72-1.62-1.603 0-.884.726-1.603 1.62-1.603zM52.42 228.004c.893 0 1.62.72 1.62 1.603 0 .884-.727 1.603-1.62 1.603-.894 0-1.62-.719-1.62-1.603s.726-1.603 1.62-1.603zm-9.322-8.724l6.194 8.06a3.789 3.789 0 0 0-.752 2.267c0 2.116 1.74 3.838 3.88 3.838 2.14 0 3.88-1.722 3.88-3.838a3.79 3.79 0 0 0-.77-2.291l9.366-14.034a3.907 3.907 0 0 0 1.677.131l6.064 15.292-6.02 14.228a3.89 3.89 0 0 0-3.836 1.948l-6.373-1.592c-.232-1.898-1.87-3.375-3.85-3.375-2.14 0-3.881 1.722-3.881 3.838 0 .657.168 1.276.463 1.817l-6.042 6.649V219.28z"/>
            <path d="M91.932 232.693a1.139 1.139 0 0 0-1.598 0l-.894.884a1.109 1.109 0 0 0 0 1.58c.22.219.51.328.799.328.289 0 .578-.109.799-.327l.894-.884a1.11 1.11 0 0 0 0-1.58z"/>
        </g>
        <g fill="#FFF" fill-rule="nonzero">
            <path d="M163.23 281.845c16.835-.002 30.638-12.871 32.122-29.294h14.72c14.584-.002 26.403-11.801 26.405-26.36v-27.336a43.898 43.898 0 0 1 12.89-31.067l57.614-57.522v26.05a2.93 2.93 0 0 0 2.934 2.927 2.931 2.931 0 0 0 2.935-2.928v-33.137a2.934 2.934 0 0 0-2.935-2.93h-33.19a2.932 2.932 0 0 0-2.935 2.93 2.93 2.93 0 0 0 2.935 2.928h26.127l-57.635 57.542a49.754 49.754 0 0 0-14.607 35.21v27.334c-.002 5.67-2.294 10.776-6.015 14.497a20.478 20.478 0 0 1-14.52 6.005h-14.723c-1.488-16.419-15.291-29.284-32.122-29.286-17.823.002-32.269 14.423-32.27 32.218.001 17.796 14.447 32.217 32.27 32.219zm-18.67-50.86c4.788-4.773 11.37-7.72 18.67-7.721 7.3.002 13.882 2.946 18.67 7.722 4.782 4.78 7.732 11.352 7.734 18.64-.002 7.288-2.95 13.86-7.734 18.64-4.788 4.774-11.37 7.72-18.67 7.721-7.3-.002-13.882-2.945-18.67-7.721-4.781-4.78-7.732-11.352-7.734-18.64.002-7.288 2.953-13.86 7.734-18.64zM131.82 134.556a2.937 2.937 0 0 0 4.15 0l12.594-12.575 12.595 12.575a2.937 2.937 0 0 0 4.149 0 2.926 2.926 0 0 0 0-4.143l-12.595-12.574 12.595-12.573a2.926 2.926 0 0 0 0-4.142 2.937 2.937 0 0 0-4.15 0l-12.594 12.574-12.597-12.574a2.937 2.937 0 0 0-4.149 0 2.926 2.926 0 0 0 0 4.142l12.595 12.573-12.593 12.574a2.926 2.926 0 0 0 0 4.143z"/>
            <path d="M206.069 159.693a2.937 2.937 0 0 0-4.15 0l-12.594 12.572-12.595-12.572a2.937 2.937 0 0 0-4.149 0 2.926 2.926 0 0 0 0 4.142l12.595 12.575-12.595 12.572a2.926 2.926 0 0 0 0 4.143 2.937 2.937 0 0 0 4.15 0l12.594-12.575 12.595 12.575a2.937 2.937 0 0 0 4.149 0 2.926 2.926 0 0 0 0-4.143l-12.595-12.572 12.595-12.575a2.926 2.926 0 0 0 0-4.142zM290.572 247.551a2.937 2.937 0 0 0-4.149 0l-12.595 12.575-12.594-12.575a2.937 2.937 0 0 0-4.15 0 2.926 2.926 0 0 0 0 4.143l12.595 12.572-12.594 12.575a2.926 2.926 0 0 0 0 4.142 2.937 2.937 0 0 0 4.149 0l12.594-12.574 12.595 12.574a2.937 2.937 0 0 0 4.15 0 2.926 2.926 0 0 0 0-4.142l-12.595-12.575 12.594-12.572a2.926 2.926 0 0 0 0-4.143zM312.067 174.338a2.937 2.937 0 0 0-4.149 0l-12.594 12.572-12.595-12.572a2.937 2.937 0 0 0-4.15 0 2.926 2.926 0 0 0 0 4.142l12.596 12.575-12.595 12.572a2.926 2.926 0 0 0 0 4.143 2.937 2.937 0 0 0 4.149 0l12.595-12.575 12.594 12.575a2.937 2.937 0 0 0 4.15 0 2.926 2.926 0 0 0 0-4.143l-12.595-12.572 12.594-12.575a2.926 2.926 0 0 0 0-4.142z"/>
        </g>
        <g fill-rule="nonzero">
            <path fill="#E6AF00" stroke="#FFF" stroke-width="2" d="M197.119 62.532h-.247c-.328-.082-.575-.329-.74-.658l-.164-.41c-1.068-2.876-3.781-5.917-5.26-7.478-.905-.904-4.275-4.108-7.399-5.177l-.41-.164c-.33-.082-.576-.41-.658-.74a.927.927 0 0 1 .246-.903l6.905-7.067c2.137-2.137 6.412.986 8.549 2.794l9.289-9.04c-1.809-2.136-4.768-6.326-2.795-8.38.41-.411.986-.658 1.726-.658 2.137 0 5.59 2.137 8.631 5.341 3.288 3.205 5.426 6.574 5.426 8.71 0 .74-.247 1.397-.658 1.808-.329.41-.904.657-1.644.657-1.644.083-4.11-1.15-6.823-3.45l-9.124 9.12c2.055 2.547 4.768 6.574 2.795 8.546l-6.905 6.902c-.165.165-.411.247-.74.247zm-13.399-14.79c3.453 1.15 6.905 4.518 7.891 5.505 1.645 1.643 4.44 4.765 5.59 7.888l6.658-6.656c.987-.986-.328-3.862-3.205-7.313-.247-.247-.165-.575 0-.822l9.946-9.942c.247-.247.575-.247.822 0 2.548 2.218 5.014 3.615 6.412 3.533.329 0 .575-.164.74-.329.246-.246.328-.575.328-.986 0-1.725-2.055-4.93-5.014-7.806-2.63-2.876-5.918-4.93-7.645-4.93-.41 0-.657.082-.822.328-.986.986.33 3.862 3.206 7.15.247.246.165.574 0 .82l-10.11 9.944c-.247.246-.576.246-.823 0-3.37-2.959-6.247-4.191-7.316-3.205l-6.658 6.82z"/>
            <path fill="#E6AF00" stroke="#FFF" stroke-width="2" d="M221.944 37.388h-.165c-.328-.083-.575-.33-.74-.576-.164-.493-.493-1.068-.821-1.643-1.07-1.89-2.713-4.026-4.604-5.916-.986-.986-4.274-4.109-7.562-5.26-.329-.081-.576-.41-.658-.739a.927.927 0 0 1 .247-.904l6.74-6.738c.904-.903 2.384-.74 4.604.411 1.808.986 3.78 2.465 5.59 4.355 3.287 3.37 5.342 6.82 5.26 8.71 0 .576-.246 1.069-.575 1.397l-6.74 6.738c-.083.082-.33.165-.576.165zm-13.07-14.462c3.37 1.314 6.658 4.437 7.645 5.423 1.972 1.972 3.699 4.19 4.767 6.163.247.493.493 1.068.74 1.479l6.494-6.492c.082-.082.164-.164.247-.575.082-1.233-1.48-4.19-4.933-7.806-1.726-1.726-3.616-3.205-5.343-4.109-1.561-.821-2.712-1.068-3.123-.657l-6.494 6.574z"/>
            <path fill="#FFF" d="M193.256 65.49c-2.467 0-6.166-2.876-8.55-5.259-2.548-2.547-6.822-7.97-4.685-10.107.658-.657 1.973-1.068 4.686.41 1.726.905 3.699 2.466 5.507 4.274 2.548 2.547 6.823 7.97 4.686 10.107-.494.41-.987.575-1.644.575zM181.583 50.78c-.329 0-.576.083-.658.247-.904.904.822 4.52 4.686 8.381 2.877 2.876 6.083 4.93 7.727 4.93.329 0 .575-.082.657-.246.905-.904-.822-4.52-4.685-8.381-1.726-1.726-3.617-3.205-5.179-4.109-1.15-.575-1.973-.822-2.548-.822z"/>
            <path fill="#E6AF00" stroke="#FFF" stroke-width="2" d="M204.681 80.363c-6.74 0-13.563-.658-20.221-1.972-9.207-1.808-16.194-8.875-18.002-17.996a107.854 107.854 0 0 1 0-40.428c1.808-9.12 8.878-16.105 17.92-17.83C191.2.821 198.023.163 204.68.163c6.577 0 13.4.658 20.14 1.89 9.206 1.808 16.276 8.875 18.002 17.996a104.544 104.544 0 0 1 0 40.428c-1.808 9.12-8.796 16.187-17.92 17.913-6.987 1.314-13.645 1.972-20.222 1.972zm0-78.884c-6.576 0-13.316.657-20.057 1.89-8.63 1.643-15.207 8.217-16.933 16.845-2.548 13.312-2.548 26.705 0 40.017 1.644 8.628 8.302 15.202 16.933 16.927a102.47 102.47 0 0 0 20.057 1.972c6.577 0 13.153-.575 20.058-1.89 8.549-1.643 15.207-8.299 16.933-16.927a102.034 102.034 0 0 0 0-39.935c-1.726-8.71-8.384-15.366-17.098-17.091a110.56 110.56 0 0 0-19.893-1.808z"/>
            <path fill="#E6AF00" stroke="#FFF" stroke-width="2" d="M190.378 61.135c-.328 0-.904-.247-1.561-.657-.822-.494-1.644-1.233-2.384-1.89-.904-.904-3.124-3.616-2.384-4.438.904-.903 4.274 2.383 4.357 2.383.74.74 1.48 1.644 1.89 2.383.658 1.068.822 1.644.493 2.055a.628.628 0 0 1-.41.164z"/>
        </g>
    </g>
</svg>
