<svg xmlns="http://www.w3.org/2000/svg" width="{{include.width}}" height="361" viewBox="0 0 392 361">
    <path fill="#E6AF00" fill-rule="nonzero" d="M68.113 299.698h92.153a7.182 7.182 0 0 1 7.212 7.212v1.603c0 1.602 1.202 2.804 3.206 2.804h50.484c1.602 0 3.205-1.202 3.205-2.804v-1.603a7.182 7.182 0 0 1 7.212-7.212h92.554a7.182 7.182 0 0 1 7.212 7.212 7.182 7.182 0 0 1-7.212 7.212h-86.544c-2.404 6.811-8.815 11.62-16.027 11.62h-50.884c-7.613 0-14.024-4.809-16.027-11.62H68.113a7.182 7.182 0 0 1-7.212-7.212c0-4.007 3.606-7.212 7.212-7.212zm316.526 0h-21.636V115.792a7.182 7.182 0 0 0-7.212-7.212 7.182 7.182 0 0 0-7.212 7.212V306.51a7.182 7.182 0 0 0 7.212 7.212h21.636v11.62c0 11.619-9.616 21.235-21.235 21.235H35.659c-11.619 0-21.235-9.616-21.235-21.235v-11.62H36.06a7.182 7.182 0 0 0 7.212-7.212V115.792a7.182 7.182 0 0 0-7.212-7.212 7.182 7.182 0 0 0-7.212 7.212v183.906H7.212A7.182 7.182 0 0 0 0 306.91v18.831C0 345.374 16.027 361 35.259 361H355.79c19.633 0 35.259-16.027 35.259-35.259v-18.83c.4-4.408-2.805-7.213-6.41-7.213zm-277.26-55.292v-35.66h-9.216c-15.626 0-28.046-12.82-28.046-28.046V28.047C70.117 12.42 82.937 0 98.163 0H294.09c15.626 0 28.046 12.821 28.046 28.047V180.3c0 15.626-12.82 28.046-28.046 28.046H163.07l-36.861 42.872c-2.004 2.404-5.209 3.606-8.014 3.606-6.01.4-10.818-4.408-10.818-10.418zm6.81-49.682a7.182 7.182 0 0 1 7.213 7.212v34.056l33.255-38.864c1.202-1.603 3.205-2.404 5.209-2.404h133.822c8.013 0 14.023-6.411 14.023-14.024V28.047c0-8.014-6.41-14.024-14.023-14.024H98.163c-8.013 0-14.023 6.411-14.023 14.024V180.3c0 8.013 6.41 14.023 14.023 14.023h16.027v.4zm12.02-82.938c-1.201-1.202-2.003-3.206-2.003-4.808 0-2.004.802-3.606 2.004-4.808l24.841-24.44c2.805-2.805 7.212-2.805 10.017 0l18.831 18.83 51.686-51.285c2.805-2.804 7.212-2.804 10.017 0l24.44 24.842c1.202 1.202 2.004 3.205 2.004 4.808 0 2.003-.802 3.606-2.004 4.808l-81.736 80.533c-1.202 1.202-3.205 2.004-4.808 2.004-2.003 0-3.606-.802-4.808-2.004l-48.48-48.48zm14.825-5.209l38.464 38.464 71.319-70.918L235.992 59.7l-51.686 51.285c-2.804 2.805-7.212 2.805-10.016 0l-18.431-18.83-14.825 14.423z"/>
</svg>
