<svg xmlns="http://www.w3.org/2000/svg" width="312" height="52" viewBox="0 0 312 52">
    <g fill="none" fill-rule="evenodd">
        <path fill="#FFF" d="M230.597 7.11v25.885l80.234-.003V7.11zM199.17 33.008h27.667V7.11h-27.666z"/>
        <path fill="#242424" d="M202.907 11.563h20.24v-.681h-20.24v.681zm0 4.346h20.24v-.681h-20.24v.681zm0 4.465h20.24v-.682h-20.24v.682zm0 4.524h20.24v-.684h-20.24v.684zm0 4.36h20.24v-.682h-20.24v.681zM216.364 14.835h-.796l.611-2.882h.801l-.616 2.882zm-4.135 0l.617-2.882h1.119l.508 2.148.01-.01.456-2.138h.719l-.613 2.882h-1.106l-.509-2.21h-.01l-.472 2.21h-.719zm-.002-1.977h-.843c.038-.26-.13-.405-.456-.405-.455 0-.658.537-.747.972-.09.418-.106.913.347.913.337 0 .56-.15.635-.427h.84c-.145.727-.893.985-1.593.985-.898 0-1.265-.543-1.06-1.506.204-.966.796-1.492 1.7-1.497.695 0 1.343.242 1.177.965zM217.367 19.241h-.8l.613-2.882h.798l-.61 2.882zm-.905-2.034c.194-.698-.375-.908-.967-.908-.606 0-1.24.187-1.422.871-.064.308.029.574.29.7.563.274 1.171.192 1.092.587-.04.19-.295.284-.481.284-.288 0-.456-.15-.396-.42h-.795c-.158.786.397.979 1.064.979.67 0 1.33-.287 1.461-.893.164-.782-.532-.826-.984-.95-.203-.06-.446-.124-.398-.332.029-.147.213-.27.4-.27.132 0 .23.034.288.091.06.06.073.145.047.26h.8zm-3.237 2.034h-2.201l.618-2.882h2.194l-.121.56h-1.399l-.124.59h1.288l-.121.561h-1.285l-.129.61h1.398l-.118.561zm-2.313-2.034c.196-.698-.368-.908-.968-.908s-1.238.187-1.415.871c-.071.308.02.574.285.7.568.274 1.177.192 1.095.587-.045.19-.3.284-.481.284-.288 0-.454-.15-.393-.42h-.803c-.155.786.395.979 1.066.979.67 0 1.328-.287 1.459-.893.164-.782-.526-.826-.982-.95-.2-.06-.442-.124-.398-.332.032-.147.216-.27.398-.27.134 0 .234.034.287.091.058.06.08.145.05.26h.8zM219.253 23.732l.608-2.885h-.798l-.614 2.885h.804zm-2.929-1.118h.774l-.113-1.2h-.013l-.648 1.2zm-.63 1.118h-.797l1.751-2.885h.978l.523 2.885h-.903l-.071-.56h-1.172l-.308.56zm-3.907 0h.722l.47-2.208h.004l.51 2.208h1.11l.61-2.885h-.719l-.458 2.143-.006.005-.508-2.148h-1.118l-.617 2.885zm-.448 0h-2.196l.608-2.885h2.196l-.118.56h-1.396l-.123.596h1.285l-.121.558h-1.285l-.127.61h1.396l-.119.561zm-2.312-2.034c.192-.698-.368-.908-.966-.908-.603 0-1.24.186-1.417.87-.069.311.018.577.282.704.568.273 1.179.192 1.095.581-.04.192-.295.287-.481.287-.288 0-.454-.145-.393-.419h-.8c-.15.78.397.98 1.065.98.672 0 1.328-.287 1.457-.892.166-.782-.524-.827-.982-.953-.203-.056-.438-.121-.4-.337.037-.14.218-.26.402-.26.135 0 .232.033.293.088.055.064.073.145.045.259h.8zM216.03 28.176l.118-.561h-1.306l.495-2.322h-.8l-.612 2.883h2.105zm-2.565 0h-2.197l.611-2.883h2.2l-.122.56h-1.396l-.126.596h1.285l-.116.558h-1.288l-.131.608h1.398l-.118.56zm-2.74 0l.617-2.883h-.798l-.616 2.883h.797z"/>
        <path fill="#FEFEFE" d="M230.597 11.563h5.452v-.681h-5.452v.681zm0 4.346h5.452v-.681h-5.452v.681zm0 4.465h5.452v-.682h-5.452v.682zm0 4.524h5.452v-.684h-5.452v.684zm0 4.36h5.452v-.682h-5.452v.681zM305.384 11.563h5.452v-.681h-5.452v.681zm0 4.346h5.452v-.681h-5.452v.681zm0 4.465h5.452v-.682h-5.452v.682zm0 4.524h5.452v-.684h-5.452v.684zm0 4.36h5.452v-.682h-5.452v.681z"/>
        <path fill="#242424" d="M299.349 30.194h-5.357l4.113-19.32h5.352l-4.108 19.32zm-6.065-13.648c1.308-4.656-2.484-6.072-6.47-6.072-4.04 0-8.33 1.258-9.515 5.827-.443 2.093.142 3.86 1.914 4.717 3.808 1.846 7.896 1.28 7.337 3.901-.274 1.288-1.986 1.932-3.223 1.932-1.928 0-3.052-.992-2.642-2.813h-5.359c-1.032 5.243 2.655 6.562 7.153 6.562 4.471 0 8.896-1.935 9.762-6 1.106-5.216-3.534-5.54-6.597-6.372-1.337-.368-2.955-.824-2.654-2.242.202-.961 1.446-1.77 2.673-1.77.913 0 1.561.214 1.935.62.395.4.516.963.332 1.71h5.354zm-21.695 13.648h-14.725l4.11-19.32h14.721l-.798 3.743h-9.37l-.85 3.99h8.625l-.794 3.746h-8.621l-.872 4.096h9.37l-.796 3.745zm-15.487-13.648c1.304-4.656-2.486-6.072-6.475-6.072-4.047 0-8.325 1.258-9.512 5.827-.443 2.093.142 3.86 1.914 4.717 3.806 1.846 7.89 1.28 7.335 3.904-.272 1.285-1.986 1.93-3.221 1.93-1.928 0-3.055-.993-2.641-2.814h-5.354c-1.04 5.243 2.646 6.564 7.144 6.564 4.477 0 8.898-1.937 9.768-6.001 1.103-5.217-3.537-5.541-6.603-6.373-1.337-.368-2.952-.824-2.657-2.242.209-.961 1.446-1.77 2.681-1.77.911 0 1.562.214 1.93.62.398.4.517.963.335 1.71h5.356z"/>
        <path fill="#FFF" d="M252 49.633c-.003.492.213.735.645.73a.961.961 0 0 0 .708-.313c.205-.208.358-.459.469-.754.063-.147.11-.31.158-.484.06-.216.092-.405.092-.563a.67.67 0 0 0-.208-.495.709.709 0 0 0-.503-.19c-.398 0-.738.261-1.02.787a2.64 2.64 0 0 0-.342 1.282zm1.553.72c-.424.31-.806.465-1.153.465-.35-.003-.627-.119-.827-.345-.187-.213-.274-.5-.274-.858 0-.603.169-1.155.503-1.66.371-.554.858-.838 1.459-.84.45-.008.798.165 1.037.515l.57-1.953h.676l-1.456 5.04h-.603l.068-.365zm-5.227-4.676h.669l-1.477 5.04h-.68l1.488-5.04zm-2.723 3.24l-.68.035c-.795.06-1.195.35-1.203.887-.003.345.182.52.55.524a1 1 0 0 0 .804-.367 2.78 2.78 0 0 0 .379-.636c.045-.093.076-.171.103-.258l.047-.184zm-1.944-1.013c.024-.076.063-.145.103-.213a.842.842 0 0 1 .156-.187c.25-.255.647-.387 1.192-.39.685-.005 1.107.18 1.267.546.045.1.068.2.068.297-.005.194-.057.468-.16.816a18.808 18.808 0 0 0-.416 1.61l-.066.335h-.621l.058-.427a1.902 1.902 0 0 1-.235.214 1.413 1.413 0 0 1-.932.313 1.26 1.26 0 0 1-.498-.09.791.791 0 0 1-.324-.21c-.158-.16-.229-.374-.227-.632 0-.455.211-.813.627-1.08.296-.184.714-.294 1.26-.318.226-.013.481-.018.78-.023.054-.187.083-.348.088-.466-.005-.282-.223-.424-.66-.435-.154 0-.29.024-.425.077a.605.605 0 0 0-.334.303l-.063.152h-.701l.063-.192zm-3.955-.692h.616l-.097.484.165-.163a1.82 1.82 0 0 1 1.19-.419c.256 0 .464.056.62.172a.748.748 0 0 1 .329.545l.01.157c0 .203-.036.432-.118.687l-.618 2.043h-.66l.606-2.053c.07-.25.106-.45.108-.603-.007-.33-.192-.495-.548-.498-.655.008-1.16.595-1.508 1.772l-.406 1.382h-.68l.99-3.506zm-4.214 2.44c-.013.468.224.703.706.71.416.011.751-.218 1.004-.676a2.87 2.87 0 0 0 .184-.374c.163-.405.247-.758.247-1.055 0-.216-.06-.387-.187-.51a.713.713 0 0 0-.5-.183c-.371.01-.684.185-.937.53a2.543 2.543 0 0 0-.448 1.008c-.047.22-.072.397-.069.55zm-.703-.037a2.884 2.884 0 0 1 .235-1.116c.057-.142.126-.282.216-.421.334-.548.795-.866 1.39-.945.092-.016.192-.019.295-.019.43-.005.761.085.996.266.281.219.42.524.416.927 0 .192-.027.397-.085.61a3.269 3.269 0 0 1-.418.987 2.21 2.21 0 0 1-.293.374c-.366.363-.83.545-1.398.54-.421.002-.745-.092-.97-.284-.26-.21-.386-.52-.384-.919zm-.608-3.938h.77l-.198.7h-.778l.206-.7zm-.39 1.535h.688l-1.067 3.506h-.66l1.04-3.506zm-1.659 2.448l-.04.123c-.139.38-.389.656-.74.837-.244.124-.568.193-.977.198-.384 0-.687-.1-.905-.29a1.112 1.112 0 0 1-.364-.876c0-.327.069-.685.203-1.064.14-.376.324-.684.556-.913a1.87 1.87 0 0 1 .73-.458c.194-.068.415-.1.66-.103.246 0 .477.043.685.127.366.142.548.405.548.79a.796.796 0 0 1-.021.178l-.032.119h-.682c.024-.113.037-.213.037-.298-.005-.205-.1-.34-.287-.408a.852.852 0 0 0-.303-.058c-.498.008-.877.34-1.146.996-.07.184-.134.378-.176.584a2.41 2.41 0 0 0-.069.56c-.002.319.117.52.364.6a.705.705 0 0 0 .321.059.974.974 0 0 0 .587-.187c.113-.087.235-.258.354-.516h.697zm-4.542-.742l-.048.184a1.932 1.932 0 0 1-.092.258 2.65 2.65 0 0 1-.39.636.99.99 0 0 1-.798.367c-.374-.003-.55-.18-.548-.524.005-.538.403-.827 1.199-.887l.677-.034zm-1.944-1.014l-.058.192h.7l.064-.152a.58.58 0 0 1 .334-.303c.13-.053.274-.077.424-.077.435.01.654.153.656.435a1.92 1.92 0 0 1-.082.466c-.297.005-.558.01-.782.023-.545.024-.966.134-1.258.319-.422.266-.63.624-.635 1.08a.854.854 0 0 0 .558.841c.152.063.321.092.493.09.358.005.668-.1.937-.313.06-.048.137-.118.23-.214l-.053.427h.618l.066-.334c.095-.445.232-.982.416-1.611.106-.348.158-.622.161-.816a.766.766 0 0 0-.066-.297c-.16-.367-.585-.55-1.272-.546-.542.003-.94.135-1.19.39a.936.936 0 0 0-.15.187 1.484 1.484 0 0 0-.11.213zm-4.466-2.219h.858l1.27 4.267 1.222-4.267h.674l-1.498 5.033h-.843l-1.225-4.233-1.27 4.233h-.671l1.483-5.033zm85.65-5.033c-.008.472.226.706.705.716.416.005.75-.218 1.009-.679.068-.118.126-.242.179-.374.163-.405.25-.755.25-1.053 0-.218-.058-.387-.187-.507a.7.7 0 0 0-.503-.185c-.369.008-.68.185-.935.527-.213.291-.36.624-.445 1.01-.05.216-.076.4-.074.545zm-.699-.037c-.001-.355.077-.729.232-1.116.056-.14.127-.279.211-.413.34-.555.8-.874 1.398-.953.09-.008.19-.016.296-.016.426-.005.758.085.99.266.284.216.426.524.413.924 0 .195-.019.4-.079.613a3.425 3.425 0 0 1-.418.99c-.093.145-.19.266-.293.372-.36.36-.83.544-1.401.536-.419.006-.742-.09-.964-.279-.258-.21-.386-.52-.385-.924zm-2.673-2.969c.032-.134.064-.258.101-.363.11-.316.308-.476.605-.476a.629.629 0 0 1 .335.068l.493.242c.033.021.076.032.123.032.103.002.182-.053.238-.176l.062-.148h.448l-.026.126c-.121.492-.348.732-.674.719a.705.705 0 0 1-.335-.074l-.471-.223a.608.608 0 0 0-.17-.048c-.107 0-.186.071-.24.21l-.038.111h-.45zm1.157 2.274l-.671.032c-.798.06-1.196.358-1.204.89-.008.347.18.523.55.526.33-.003.6-.13.803-.368.13-.153.256-.363.382-.64.04-.084.071-.169.1-.253l.04-.187zm-1.939-1.013c.027-.074.064-.145.106-.213a.881.881 0 0 1 .147-.182c.256-.26.653-.387 1.196-.395.687-.005 1.109.18 1.272.543.045.105.066.2.066.302-.003.195-.058.463-.164.814a20.256 20.256 0 0 0-.416 1.616l-.063.332h-.622l.056-.43c-.09.098-.166.169-.232.214a1.375 1.375 0 0 1-.93.31 1.265 1.265 0 0 1-.5-.086.758.758 0 0 1-.322-.214c-.157-.158-.234-.368-.23-.626.001-.455.213-.819.626-1.082.297-.184.714-.292 1.262-.321.223-.01.484-.019.782-.021.057-.187.081-.343.086-.466-.005-.282-.221-.424-.658-.432a1.17 1.17 0 0 0-.423.074.596.596 0 0 0-.338.303l-.066.152h-.695l.06-.192zm-1.371 1.756l-.04.12c-.142.385-.382.661-.74.835-.245.132-.566.195-.977.2-.385 0-.687-.092-.906-.287-.245-.226-.363-.515-.36-.879 0-.329.07-.679.205-1.06.137-.38.316-.685.55-.911.216-.219.456-.369.727-.464.198-.065.419-.1.666-.1.245 0 .472.043.682.124.366.147.548.408.548.792a.983.983 0 0 1-.018.18l-.035.113h-.684c.02-.108.037-.206.037-.293-.003-.202-.1-.339-.285-.402a.743.743 0 0 0-.305-.06c-.496.004-.874.336-1.14.994a3.616 3.616 0 0 0-.182.582 2.262 2.262 0 0 0-.066.563c-.008.318.113.513.36.6.095.04.206.058.32.058a.961.961 0 0 0 .592-.192c.116-.084.23-.255.35-.513h.7zm-2.07 1.487h.61l-.61.924h-.762l.761-.924zm-2.473-2.23l-.047.187a1.469 1.469 0 0 1-.098.253 2.48 2.48 0 0 1-.385.64c-.202.239-.468.365-.8.368-.369-.003-.553-.179-.55-.526.008-.532.408-.83 1.206-.89l.674-.032zm-1.938-1.013l-.069.192h.7l.067-.152a.589.589 0 0 1 .334-.303c.132-.05.276-.074.427-.074.437.008.658.15.658.432 0 .123-.034.279-.087.466-.295.002-.555.01-.782.021-.545.029-.964.137-1.259.32-.418.264-.63.628-.63 1.083 0 .258.077.468.235.626a.73.73 0 0 0 .319.214c.153.06.321.092.497.086.356.008.667-.094.933-.31.065-.045.142-.116.236-.213l-.06.429h.622l.06-.332c.098-.453.237-.99.422-1.616.105-.35.158-.619.158-.814a.702.702 0 0 0-.063-.302c-.164-.364-.582-.548-1.273-.543-.54.008-.937.135-1.19.395a.704.704 0 0 0-.153.182c-.044.068-.076.14-.102.213zm-3.292 2.817l1.02-3.507h.584l-.116.596c.192-.248.35-.414.482-.496.2-.131.413-.2.655-.2l.187.024-.192.621-.272-.021a.917.917 0 0 0-.683.306 1.254 1.254 0 0 0-.177.226c-.047.09-.098.187-.142.297-.071.177-.135.35-.18.527l-.494 1.627h-.672zm-2.75-2.088l.161-.381c.218-.46.548-.69.977-.685.411.008.614.195.616.569a1.21 1.21 0 0 1-.042.303l-.055.194h-1.657zm-.141.455h2.433l.065-.194.056-.247c.026-.159.039-.309.044-.461 0-.292-.086-.532-.255-.706a.968.968 0 0 0-.363-.242 1.715 1.715 0 0 0-.643-.124c-.276 0-.542.053-.79.158a1.503 1.503 0 0 0-.547.361c-.227.24-.42.553-.577.948-.15.363-.222.72-.222 1.084 0 .16.03.326.1.492.156.437.556.658 1.198.658.57.008 1.017-.147 1.336-.46a2.15 2.15 0 0 0 .197-.237l.127-.192.081-.182h-.694c-.09.147-.17.26-.238.345-.163.182-.395.276-.69.276-.208.003-.384-.055-.513-.179-.137-.121-.203-.295-.203-.508-.005-.147.031-.342.098-.59zm-4.293.546c0 .492.213.734.642.731a.955.955 0 0 0 .709-.316c.205-.21.363-.46.474-.752.052-.15.108-.314.158-.485.06-.215.087-.408.087-.563a.664.664 0 0 0-.2-.492.725.725 0 0 0-.514-.19c-.392 0-.73.26-1.014.787a2.655 2.655 0 0 0-.342 1.28zm1.554.72c-.422.309-.806.461-1.148.461-.356 0-.63-.116-.833-.337-.181-.213-.276-.502-.276-.866 0-.602.17-1.153.506-1.655.378-.558.858-.835 1.46-.843.449-.007.796.164 1.036.516l.566-1.95h.677l-1.456 5.04h-.6l.068-.365zm-5.246-1.72l.16-.382c.221-.46.548-.69.98-.685.408.008.616.195.616.569 0 .097-.015.197-.042.303l-.055.194h-1.66zm-.145.454h2.435l.064-.194.06-.247c.026-.159.037-.309.043-.461 0-.292-.084-.532-.253-.706a1.022 1.022 0 0 0-.366-.242 1.693 1.693 0 0 0-.64-.124c-.279 0-.542.053-.793.158-.229.095-.41.216-.55.361-.221.24-.416.553-.577.948a2.862 2.862 0 0 0-.218 1.084c0 .16.029.326.1.492.155.437.555.658 1.2.658.572.008 1.014-.147 1.33-.46a1.17 1.17 0 0 0 .196-.237l.128-.192.09-.182h-.7a2.46 2.46 0 0 1-.24.345c-.16.182-.395.276-.69.276a.722.722 0 0 1-.514-.179.677.677 0 0 1-.203-.508c-.002-.147.035-.342.098-.59zm-2.562-1.418h-.662l.117-.456h.673l.172-.57c.102-.33.216-.564.343-.698.162-.166.4-.269.708-.303l.184-.008c.127 0 .3.016.524.045l-.128.421-.23-.01c-.39.005-.632.178-.724.52l-.172.603h.79l-.123.456h-.793l-.898 3.05h-.674l.893-3.05zm-4.42-.456h.62l-.098.482.166-.163a2.92 2.92 0 0 1 .232-.166c.277-.168.595-.253.953-.253.259 0 .464.053.627.172.19.139.297.316.324.547l.013.155c0 .2-.04.43-.119.69l-.619 2.043h-.663l.605-2.056a2.23 2.23 0 0 0 .111-.606c-.01-.326-.192-.492-.55-.492-.656.005-1.159.592-1.51 1.772l-.402 1.382h-.677l.988-3.507zm-4.215 2.435c-.011.472.229.706.708.716.413.005.745-.218 1.006-.679.064-.118.129-.242.182-.374.166-.405.247-.755.25-1.053 0-.218-.061-.387-.187-.507a.713.713 0 0 0-.508-.185c-.37.008-.677.185-.933.527a2.552 2.552 0 0 0-.444 1.01 2.19 2.19 0 0 0-.074.545zm-.701-.037c0-.355.077-.729.24-1.116.05-.14.124-.279.205-.413.34-.555.8-.871 1.393-.953.095-.008.19-.016.3-.016.425-.005.764.085.996.266.279.216.416.524.41.924 0 .195-.023.4-.078.613a3.42 3.42 0 0 1-.42.99 2.318 2.318 0 0 1-.3.372c-.357.36-.823.544-1.394.536-.414.006-.738-.09-.967-.279-.261-.21-.385-.52-.385-.924zm-.838-.24l-.039.13c-.042.11-.108.242-.198.381-.096.164-.189.282-.279.377-.17.174-.365.305-.595.387-.297.116-.62.174-.966.168-.59 0-1.054-.137-1.38-.41-.355-.292-.535-.73-.535-1.314-.005-.3.035-.608.11-.926.059-.266.138-.511.238-.735.513-1.234 1.39-1.842 2.623-1.842.79-.008 1.288.252 1.496.774.068.17.103.355.103.545l-.006.2h-.721v-.145c-.021-.558-.346-.84-.983-.843-.17.003-.332.027-.476.069-.182.05-.348.131-.485.24a2.1 2.1 0 0 0-.45.439c-.16.21-.295.45-.408.719-.1.234-.18.484-.232.742a3.526 3.526 0 0 0-.082.74c0 .141.014.276.042.402.058.26.209.466.458.619.209.126.461.192.754.197.28 0 .518-.066.738-.184.236-.134.402-.324.499-.571l.048-.158h.726zm-9.032-.786h1.762l-.147.481h-1.752l.137-.481zm-3.31-2.9l-1.485 5.035h.726l1.486-5.036h-.728zm-5.278 0h.856l1.265 4.271 1.227-4.272h.673l-1.498 5.036h-.847l-1.225-4.236-1.267 4.236h-.671l1.487-5.036zm-2.127 3.687l-.042.129c-.043.11-.108.242-.198.381-.097.164-.19.282-.28.377a1.56 1.56 0 0 1-.595.387 2.54 2.54 0 0 1-.963.168c-.588 0-1.056-.137-1.383-.41-.355-.292-.532-.73-.532-1.314-.005-.3.032-.608.108-.926.058-.266.137-.511.235-.735.516-1.234 1.393-1.842 2.628-1.842.793-.005 1.285.252 1.49.774.074.17.106.355.106.545l-.005.2h-.722v-.145c-.016-.558-.345-.84-.977-.843a1.888 1.888 0 0 0-.485.069c-.179.05-.34.131-.48.24a1.978 1.978 0 0 0-.45.439c-.163.21-.294.45-.407.719-.1.234-.177.484-.235.742a3.712 3.712 0 0 0-.081.74c0 .144.015.276.042.402.058.26.21.466.455.619.208.126.467.192.759.197.271 0 .521-.066.735-.184.237-.134.403-.324.497-.571l.05-.158h.73zm-8.245-.456l-.05.187a1.715 1.715 0 0 1-.1.253 2.475 2.475 0 0 1-.38.64c-.205.239-.471.365-.806.368-.368-.003-.55-.179-.548-.526.008-.532.406-.83 1.204-.89l.68-.032zm-1.944-1.013l-.06.192h.695l.065-.152a.612.612 0 0 1 .337-.303c.13-.05.274-.074.42-.074.44.008.658.15.66.432a1.832 1.832 0 0 1-.087.466c-.297.002-.558.01-.785.021-.54.029-.956.137-1.253.32-.419.264-.63.628-.63 1.083a.845.845 0 0 0 .551.84c.155.06.321.092.498.086.358.008.666-.094.937-.308.058-.047.137-.118.232-.215l-.058.429h.624l.06-.332c.095-.453.235-.99.42-1.616.102-.35.16-.619.16-.814a.718.718 0 0 0-.071-.302c-.16-.364-.58-.548-1.267-.543-.542.008-.94.135-1.19.395a.563.563 0 0 0-.148.182.917.917 0 0 0-.11.213zm-3.974 1.73c0 .492.21.734.642.731a.971.971 0 0 0 .711-.313c.206-.213.364-.463.475-.755.053-.15.105-.314.155-.485.06-.213.09-.405.09-.563a.68.68 0 0 0-.206-.492.711.711 0 0 0-.508-.19c-.395 0-.732.26-1.017.787a2.682 2.682 0 0 0-.342 1.28zm1.55.72c-.42.309-.802.461-1.145.461-.353 0-.629-.116-.829-.337-.185-.213-.276-.502-.274-.866 0-.602.166-1.153.503-1.655.374-.556.861-.835 1.46-.843.452-.007.794.166 1.037.516l.566-1.948h.676l-1.453 5.039h-.608l.068-.366zm-6.187-1.437l-.05.187a1.436 1.436 0 0 1-.095.253 2.435 2.435 0 0 1-.384.64 1.02 1.02 0 0 1-.804.368c-.369-.003-.548-.179-.545-.526.002-.532.406-.83 1.2-.89l.678-.032zm-1.939-1.013l-.066.192h.698l.063-.152a.615.615 0 0 1 .338-.303c.131-.05.27-.074.424-.074.437.008.652.15.66.432a2.162 2.162 0 0 1-.086.466c-.3.002-.559.01-.785.021-.543.029-.964.137-1.256.32-.422.264-.632.628-.632 1.083 0 .258.076.468.231.629a.756.756 0 0 0 .322.21c.152.06.318.093.498.087.355.008.668-.094.934-.308.058-.047.137-.118.232-.215l-.055.429h.619l.065-.332c.092-.453.232-.99.414-1.616.108-.35.163-.619.166-.814a.76.76 0 0 0-.071-.302c-.16-.364-.582-.548-1.267-.543-.542.008-.943.135-1.196.395a.736.736 0 0 0-.147.182 1.02 1.02 0 0 0-.103.213zm-3.505-.69l.403 2.875 1.723-2.875h.737l-2.27 3.507h-.671l-.617-3.507h.695zm-1.648-1.532h.769l-.195.695h-.78l.206-.695zm-.385 1.532l-1.04 3.507h.658l1.067-3.507h-.685zm-3.163 0h.751l.219-.695.708-.2-.276.895h.745l-.145.456h-.745l-.593 1.964-.071.281a.763.763 0 0 0-.032.203c-.01.16.103.244.332.247.071 0 .153-.01.237-.029l.164-.036-.143.455-.179.029c-.158.021-.29.037-.406.031-.455 0-.687-.181-.694-.544a1.051 1.051 0 0 1 .033-.295l.077-.306.068-.231.577-1.77h-.777l.15-.455zm-1.824 1.703l-.675.032c-.795.06-1.198.358-1.203.89 0 .347.182.523.55.526.33-.003.598-.13.806-.368.13-.153.258-.363.38-.64.041-.084.07-.169.1-.253l.042-.187zm-1.936-1.013a.982.982 0 0 1 .1-.213.727.727 0 0 1 .153-.182c.253-.26.653-.387 1.19-.395.692-.005 1.114.18 1.275.543.044.105.063.2.063.302 0 .195-.053.463-.161.814a21.251 21.251 0 0 0-.416 1.616l-.06.332h-.622l.052-.43a1.93 1.93 0 0 1-.23.216 1.39 1.39 0 0 1-.933.308 1.244 1.244 0 0 1-.498-.086.74.74 0 0 1-.321-.211c-.156-.16-.232-.371-.23-.63 0-.454.211-.818.63-1.081.286-.184.714-.292 1.253-.321.23-.01.488-.019.788-.021.053-.187.08-.343.084-.466-.005-.282-.223-.424-.659-.432-.152 0-.294.024-.423.074a.588.588 0 0 0-.337.303l-.066.152h-.698l.066-.192zm-1.088-2.222h.77l-.199.695h-.776l.205-.695zm-.39 1.532h.685l-1.06 3.507h-.665l1.04-3.507zm-1.656 2.446l-.04.12c-.141.385-.387.661-.74.835-.244.132-.57.195-.977.2-.384 0-.687-.092-.908-.287-.245-.226-.366-.515-.36-.879 0-.329.07-.679.202-1.06.137-.38.324-.685.559-.911.216-.219.45-.369.72-.464.196-.065.422-.1.667-.1.245 0 .472.043.685.124.366.147.548.408.545.792a.966.966 0 0 1-.018.18l-.037.113h-.68c.024-.108.035-.206.035-.293-.003-.202-.1-.339-.285-.402a.748.748 0 0 0-.303-.06c-.497.004-.88.336-1.137.994a3.34 3.34 0 0 0-.187.582 2.548 2.548 0 0 0-.069.563c0 .318.121.513.364.603.1.037.206.055.323.055.221 0 .42-.065.587-.192.12-.084.233-.255.353-.513h.701zm-3.642-3.978h.766l-.195.695h-.776l.205-.695zm-.39 1.532h.69l-1.066 3.507h-.662l1.038-3.507zm-4.24 0l-.987 3.507h.677l.405-1.382c.353-1.18.851-1.767 1.507-1.772.358 0 .545.168.553.495a2.35 2.35 0 0 1-.11.603l-.604 2.056h.658l.617-2.043c.078-.26.118-.49.118-.69l-.008-.155a.78.78 0 0 0-.329-.547c-.16-.12-.369-.172-.627-.172a1.786 1.786 0 0 0-1.185.419l-.16.163.095-.482h-.62zm-1.456-1.529h.727l-1.49 5.036h-.722l1.485-5.036zM289.595 48.917l-.677.035c-.796.06-1.196.35-1.204.887-.005.345.179.521.55.524.332 0 .598-.127.804-.366.129-.156.255-.369.376-.637.045-.093.076-.171.103-.258l.048-.185zm-1.941-1.013c.029-.076.06-.145.104-.213a.99.99 0 0 1 .146-.187c.258-.255.655-.387 1.195-.39.688-.005 1.112.18 1.275.543a.79.79 0 0 1 .063.3c0 .195-.053.468-.16.816a19.975 19.975 0 0 0-.417 1.61l-.063.335h-.624l.058-.427a2.097 2.097 0 0 1-.232.214 1.414 1.414 0 0 1-.934.313 1.278 1.278 0 0 1-.501-.09.83.83 0 0 1-.321-.21.858.858 0 0 1-.226-.632c0-.455.207-.813.626-1.079.298-.185.716-.295 1.259-.319.223-.013.487-.018.78-.024a1.8 1.8 0 0 0 .089-.465c-.003-.282-.221-.424-.659-.435-.152 0-.292.024-.426.077a.569.569 0 0 0-.332.303l-.066.152h-.7l.066-.192zm-1.088-2.227h.768l-.194.7h-.78l.206-.7zm-.385 1.535l-1.042 3.506h.66l1.065-3.506h-.683zm-3.581 3.506l1.022-3.506h.582l-.116.6c.192-.253.355-.416.481-.503.204-.126.42-.192.662-.194l.184.023-.192.616-.272-.016c-.263 0-.492.1-.684.303-.074.074-.127.15-.171.224a2.899 2.899 0 0 0-.148.3 7.467 7.467 0 0 0-.182.526l-.492 1.627h-.674zm-2.154-3.506h.75l.216-.695.706-.197-.271.892h.737l-.137.453h-.743l-.6 1.968-.068.285a.847.847 0 0 0-.035.197c-.005.16.103.245.335.248.074 0 .152-.01.237-.027l.168-.037-.145.453-.181.029c-.153.024-.29.04-.405.037-.456-.003-.688-.187-.698-.548 0-.086.01-.184.034-.297l.074-.308.073-.226.58-1.774h-.782l.155-.453zm-3.453 2.406c-.028.128-.04.234-.04.318.006.28.225.427.665.427.215.005.416-.04.586-.132.238-.119.356-.274.356-.463.003-.164-.116-.309-.356-.44l-.526-.266a4.471 4.471 0 0 1-.398-.224c-.297-.178-.442-.397-.437-.655a.717.717 0 0 1 .077-.358c.107-.245.318-.429.629-.558.252-.1.537-.15.853-.152.164 0 .319.015.469.047.492.097.735.368.735.803l-.016.2h-.688v-.13c-.002-.302-.207-.46-.613-.47-.177 0-.337.03-.477.094-.181.087-.274.208-.274.369.003.142.103.276.295.397l.305.169.404.208c.182.092.34.194.471.308a.684.684 0 0 1 .245.55c0 .397-.19.703-.571.916-.303.163-.67.245-1.107.242-.89-.003-1.332-.282-1.326-.837a.804.804 0 0 1 .026-.221l.055-.142h.658zm-2.022-3.886h.872l-1.062 1.045h-.59l.78-1.045zm-2.002 1.48l-.555 1.884-.108.406c-.04.171-.056.323-.056.46-.002.46.235.737.72.824.115.024.226.035.331.032.355.003.693-.119 1.009-.358l.26-.23-.11.488h.624l.071-.326.098-.366.094-.35.722-2.464h-.666L275 48.583l-.087.277c-.048.139-.09.263-.137.37a2.9 2.9 0 0 1-.187.383c-.193.333-.43.558-.716.673a.913.913 0 0 1-.385.077.575.575 0 0 1-.403-.127.449.449 0 0 1-.155-.374c-.005-.11.013-.234.053-.365l.11-.395.542-1.89h-.666zm-4.184 2.421c-.005.492.21.735.64.73a.966.966 0 0 0 .71-.314c.206-.208.362-.458.472-.753a5.13 5.13 0 0 0 .155-.484c.061-.216.087-.405.087-.563a.647.647 0 0 0-.202-.495.71.71 0 0 0-.503-.19c-.398 0-.74.261-1.017.788a2.585 2.585 0 0 0-.342 1.281zm1.551.72c-.424.31-.81.465-1.151.465-.353-.003-.63-.119-.827-.345-.189-.213-.281-.5-.276-.858 0-.603.166-1.156.506-1.66.373-.554.855-.838 1.459-.84.45-.008.792.165 1.032.515l.566-1.953h.68l-1.457 5.041h-.6l.068-.366zm-5.733-3.141l-.99 3.506h.68l.402-1.382c.35-1.177.853-1.764 1.51-1.772.357.003.54.169.547.498 0 .153-.037.353-.108.603l-.603 2.053h.661l.614-2.043a2.3 2.3 0 0 0 .12-.687l-.01-.157a.773.773 0 0 0-.327-.546c-.16-.115-.368-.17-.629-.17a1.8 1.8 0 0 0-1.185.418l-.165.163.1-.484h-.617zm-1.456-1.527h.721l-1.488 5.033h-.721l1.488-5.033zm-5.233 3.232l-.677.035c-.795.06-1.193.35-1.206.887 0 .345.18.521.554.524.328 0 .6-.124.802-.366.132-.153.256-.369.383-.637.042-.093.07-.171.094-.258l.05-.185zm-1.94-1.013a.951.951 0 0 1 .105-.213.813.813 0 0 1 .147-.187c.258-.255.653-.387 1.188-.39.695-.005 1.116.18 1.28.545.042.1.065.2.065.298-.002.195-.058.468-.163.816a22.858 22.858 0 0 0-.419 1.61l-.06.335h-.627l.058-.427c-.09.095-.166.166-.229.214a1.41 1.41 0 0 1-.935.313 1.245 1.245 0 0 1-.495-.09.83.83 0 0 1-.327-.21c-.153-.16-.229-.374-.229-.632.003-.455.214-.813.63-1.079.294-.185.716-.295 1.258-.319.224-.013.488-.018.786-.024.052-.186.08-.347.084-.465-.003-.282-.224-.424-.659-.435-.153 0-.295.024-.424.077a.564.564 0 0 0-.334.303l-.066.152h-.7l.065-.192zM127.718 26.074h3.12l4.793-14.408v14.406h3.055V8.138h-4.988l-4.382 13.79-4.5-13.79h-3.1zM142.38 26.074h3.069V8.154h-3.068v17.84zM152.203 26.02V12.34l7.242 13.68h4.14V8.15h-3.08v13.86l-7.298-13.86h-4.09V26.02zM112.55 26.522c5.577-.013 8.79-4.09 8.813-9.334-.026-5.37-3.197-9.423-8.708-9.494v2.666c1.911.023 3.31.887 4.16 2.158.875 1.295 1.227 2.975 1.227 4.67 0 1.62-.352 3.262-1.229 4.535-.867 1.277-2.297 2.143-4.264 2.14-3.205.011-4.856-2.271-5.322-4.801h-3.331c.708 4.31 3.755 7.447 8.653 7.46"/>
        <path fill="#FFF" d="M108.433 3.79c-5.095 0-5.411 2.945-5.509 3.938h4.387v8.207H97.128V8.781c0-5.523 4.682-8.576 11.305-8.576V3.79zM97.937 30.96h1.785v.36h-1.354v1.1h1.249v.356h-1.249v1.5h-.431zM102.134 33.621c0 .25.005.469.018.656h-.384l-.024-.39h-.01a.88.88 0 0 1-.788.442c-.374 0-.821-.213-.821-1.042v-1.39h.432v1.31c0 .454.145.764.534.764.29 0 .492-.2.57-.4a.598.598 0 0 0 .041-.218v-1.456h.432v1.724zM102.668 32.54c0-.25-.005-.448-.018-.643h.385l.024.387h.01a.887.887 0 0 1 .787-.445c.33 0 .84.197.84 1.016v1.422h-.432v-1.372c0-.387-.141-.71-.55-.71a.623.623 0 0 0-.61.644v1.438h-.436V32.54zM106.843 32.863a.751.751 0 0 0-.019-.187.637.637 0 0 0-.626-.495c-.448 0-.712.392-.712.913 0 .488.24.888.703.888.29 0 .556-.2.635-.524a.652.652 0 0 0 .019-.182v-.413zm.434-2.08v2.878c0 .21.003.452.019.615h-.388l-.021-.415h-.01c-.132.268-.416.468-.806.468-.576 0-1.024-.487-1.024-1.21-.006-.796.492-1.28 1.069-1.28.366 0 .613.174.719.36h.008v-1.416h.434zM108.804 34.005c.414 0 .722-.39.722-.931 0-.403-.202-.908-.713-.908-.509 0-.73.47-.73.92 0 .524.295.92.714.92h.007zm-.023.324c-.637 0-1.138-.471-1.138-1.224 0-.797.524-1.266 1.18-1.266.682 0 1.145.497 1.145 1.219 0 .887-.616 1.27-1.182 1.27h-.005zM114.005 32.818a27.987 27.987 0 0 1-.055-1.43h-.01c-.116.385-.25.807-.417 1.259l-.587 1.608h-.324l-.542-1.579a15.108 15.108 0 0 1-.379-1.287h-.01c-.006.413-.032.966-.064 1.466l-.087 1.422h-.408l.23-3.317h.547l.566 1.603c.137.408.247.776.335 1.124h.008c.089-.335.204-.705.355-1.124l.59-1.603h.548l.207 3.317h-.423l-.08-1.459zM116.963 33.621c0 .25.005.469.021.656h-.387l-.024-.39h-.008a.886.886 0 0 1-.787.442c-.377 0-.822-.213-.822-1.042v-1.39h.432v1.31c0 .454.142.764.532.764a.623.623 0 0 0 .611-.618v-1.456h.432v1.724zM117.5 34.277h.51v-3.493h-.51zM119.001 31.323v.574h.62v.326H119v1.28c0 .294.084.463.327.463a.98.98 0 0 0 .25-.029l.018.326a1.14 1.14 0 0 1-.384.06c-.203 0-.364-.067-.467-.18-.118-.132-.168-.346-.168-.624v-1.296h-.371v-.326h.371v-.44l.424-.134zM119.926 34.277h.434v-2.38h-.434v2.38zm.208-2.785a.257.257 0 0 1-.261-.266c0-.153.11-.271.268-.271.161 0 .267.118.267.27a.26.26 0 0 1-.272.267h-.002zM120.894 34.277h.51v-3.493h-.51zM123.128 33.058c-.469-.008-1.006.076-1.006.54 0 .284.184.413.403.413a.599.599 0 0 0 .585-.4.397.397 0 0 0 .018-.137v-.416zm.426.645c0 .208.011.41.032.574h-.387l-.04-.303h-.015a.873.873 0 0 1-.727.355c-.482 0-.73-.34-.73-.684 0-.574.514-.89 1.433-.885v-.047c0-.2-.053-.558-.54-.553-.23 0-.458.063-.627.177l-.097-.287a1.51 1.51 0 0 1 .787-.21c.732 0 .911.497.911.973v.89zM124.587 31.323v.574h.619v.326h-.62v1.28c0 .294.082.463.324.463a.943.943 0 0 0 .25-.029l.022.326c-.085.032-.216.06-.385.06a.615.615 0 0 1-.466-.18c-.115-.132-.169-.346-.169-.624v-1.296h-.368v-.326h.368v-.44l.425-.134zM127.023 32.855c.002-.276-.114-.705-.595-.705-.443 0-.63.405-.666.705h1.261zm-1.264.308c.008.582.378.821.81.821.311 0 .504-.052.659-.123l.08.31c-.15.071-.417.153-.796.153-.73 0-1.172-.487-1.172-1.2 0-.719.427-1.285 1.125-1.285.776 0 .974.687.974 1.124 0 .087-.006.153-.013.2h-1.667zM127.797 32.637c0-.282-.006-.521-.021-.74h.38l.017.466h.016c.108-.321.374-.524.667-.524.042 0 .076.008.115.013v.408a.821.821 0 0 0-.147-.013c-.303 0-.522.232-.582.553a1.27 1.27 0 0 0-.013.2v1.277h-.432v-1.64zM130.478 33.058c-.471-.008-1.009.076-1.009.54 0 .284.187.413.403.413a.6.6 0 0 0 .585-.4.395.395 0 0 0 .02-.137v-.416zm.424.645c0 .208.01.41.031.574h-.387l-.037-.303h-.016a.882.882 0 0 1-.73.355c-.48 0-.728-.34-.728-.684 0-.574.51-.89 1.432-.885v-.047c0-.2-.052-.558-.54-.553-.229 0-.458.063-.627.177l-.097-.287c.198-.127.488-.21.788-.21.731 0 .91.497.91.973v.89zM131.412 34.277h.51v-3.493h-.51zM134.878 32.863a.745.745 0 0 0-.021-.187.633.633 0 0 0-.621-.495c-.45 0-.717.392-.717.913 0 .488.24.888.706.888.29 0 .556-.2.632-.524a.64.64 0 0 0 .021-.182v-.413zm.432-2.08v2.878c0 .21.005.452.021.615h-.387l-.021-.415h-.01c-.132.268-.42.468-.806.468-.58 0-1.025-.487-1.025-1.21-.005-.796.493-1.28 1.067-1.28.37 0 .613.174.718.36h.011v-1.416h.432zM137.359 32.855c.003-.276-.116-.705-.595-.705-.442 0-.63.405-.666.705h1.26zm-1.264.308c.008.582.377.821.811.821.308 0 .503-.052.658-.123l.08.31a1.895 1.895 0 0 1-.796.153c-.73 0-1.175-.487-1.175-1.2 0-.719.43-1.285 1.125-1.285.777 0 .98.687.98 1.124a.946.946 0 0 1-.016.2h-1.667zM139.002 34.276h.51V30.96h-.51zM139.987 32.54c0-.25-.005-.448-.018-.643h.381l.024.387h.011a.887.887 0 0 1 .79-.445c.329 0 .84.197.84 1.016v1.422h-.432v-1.372c0-.387-.145-.71-.553-.71-.28 0-.5.2-.58.442a.594.594 0 0 0-.031.202v1.438h-.432V32.54zM142.702 31.897l.469 1.332c.08.22.142.416.192.613h.013c.053-.197.124-.392.203-.613l.463-1.332h.45l-.932 2.38h-.413l-.908-2.38h.463zM146.231 32.855c.005-.276-.113-.705-.595-.705-.443 0-.632.405-.664.705h1.26zm-1.264.308c.008.582.376.821.813.821.309 0 .5-.052.66-.123l.078.31c-.15.071-.419.153-.798.153-.727 0-1.169-.487-1.169-1.2 0-.719.424-1.285 1.122-1.285.777 0 .977.687.977 1.124 0 .087-.006.153-.013.2h-1.67zM146.947 33.834c.132.077.358.166.574.166.31 0 .459-.152.459-.355 0-.208-.124-.314-.44-.432-.432-.158-.632-.394-.632-.674 0-.384.313-.7.821-.7.242 0 .45.066.582.148l-.105.313a.958.958 0 0 0-.487-.14c-.255 0-.393.148-.393.324 0 .198.138.284.446.41.407.15.626.359.626.711 0 .424-.33.719-.887.719-.259 0-.5-.069-.67-.164l.106-.326zM149.294 31.323v.574h.619v.326h-.62v1.28c0 .294.085.463.327.463a.94.94 0 0 0 .248-.029l.02.326c-.081.032-.218.06-.384.06a.625.625 0 0 1-.468-.18c-.116-.132-.166-.346-.166-.624v-1.296h-.369v-.326h.369v-.44l.424-.134zM150.218 34.277h.432v-2.38h-.432v2.38zm.208-2.785a.26.26 0 0 1-.263-.266c0-.153.11-.271.273-.271.156 0 .264.118.264.27 0 .143-.1.267-.269.267h-.005zM151.19 32.54c0-.25-.01-.448-.021-.643h.379l.02.382h.011c.135-.227.359-.44.756-.44.319 0 .564.197.666.48h.014a.958.958 0 0 1 .268-.311.798.798 0 0 1 .522-.169c.32 0 .79.21.79 1.034v1.404h-.424v-1.35c0-.462-.174-.732-.52-.732-.247 0-.436.184-.516.389a.822.822 0 0 0-.033.216v1.477h-.422v-1.432c0-.38-.168-.65-.497-.65-.267 0-.47.215-.535.434a.525.525 0 0 0-.037.21v1.438h-.421V32.54zM156.62 32.855c.005-.276-.11-.705-.593-.705-.444 0-.629.405-.664.705h1.257zm-1.264.308c.01.582.38.821.813.821.309 0 .501-.052.66-.123l.078.31a1.898 1.898 0 0 1-.798.153c-.727 0-1.17-.487-1.17-1.2 0-.719.427-1.285 1.12-1.285.777 0 .98.687.98 1.124 0 .087-.006.153-.014.2h-1.67zM157.394 32.54c0-.25-.005-.448-.018-.643h.381l.027.387h.01a.877.877 0 0 1 .785-.445c.33 0 .843.197.843 1.016v1.422h-.435v-1.372c0-.387-.142-.71-.548-.71a.627.627 0 0 0-.613.644v1.438h-.432V32.54zM160.465 31.323v.574h.619v.326h-.62v1.28c0 .294.085.463.327.463a.961.961 0 0 0 .25-.029l.018.326c-.084.032-.215.06-.384.06a.615.615 0 0 1-.466-.18c-.119-.132-.168-.346-.168-.624v-1.296h-.367v-.326h.367v-.44l.424-.134zM162.38 34.005c.413 0 .723-.39.723-.931 0-.403-.2-.908-.713-.908-.506 0-.73.47-.73.92 0 .524.295.92.717.92h.002zm-.02.324c-.64 0-1.142-.471-1.142-1.224 0-.797.527-1.266 1.18-1.266.687 0 1.148.497 1.148 1.219 0 .887-.617 1.27-1.183 1.27h-.002zM122.978 38.725a28.186 28.186 0 0 1-.056-1.435h-.01c-.12.385-.25.808-.416 1.262l-.588 1.605h-.323l-.543-1.577a14.177 14.177 0 0 1-.377-1.29h-.01c-.01.414-.037.97-.063 1.467l-.09 1.421h-.408l.23-3.314h.547l.566 1.603c.14.408.245.777.335 1.121h.01c.087-.334.206-.703.356-1.121l.586-1.603h.549l.205 3.314h-.424l-.076-1.453zM125.45 38.757c.008-.277-.11-.703-.592-.703-.443 0-.632.402-.666.703h1.259zm-1.264.31c.014.582.382.821.814.821.308 0 .503-.058.661-.12l.076.308a1.952 1.952 0 0 1-.797.152c-.724 0-1.17-.487-1.17-1.203 0-.716.43-1.282 1.123-1.282.776 0 .979.685.979 1.121 0 .09-.005.153-.016.203h-1.67zM126.227 38.443c0-.25-.01-.447-.023-.644h.38l.022.384h.01c.138-.23.357-.44.757-.44.319 0 .566.198.669.477h.008a.954.954 0 0 1 .271-.308.806.806 0 0 1 .524-.169c.316 0 .782.208.782 1.032v1.403h-.418V38.83c0-.463-.174-.731-.517-.731-.252 0-.44.181-.519.386a.852.852 0 0 0-.034.216v1.477h-.421v-1.432c0-.38-.168-.647-.498-.647-.268 0-.466.216-.537.431a.62.62 0 0 0-.035.21v1.438h-.42v-1.735zM130.58 39.225a.78.78 0 0 0 .016.158c.084.3.337.505.648.505.458 0 .727-.368.727-.913 0-.484-.248-.892-.714-.892a.681.681 0 0 0-.65.532.654.654 0 0 0-.027.184v.426zm-.434-2.538h.434v1.49h.011c.153-.265.427-.434.814-.434.587 0 1 .492 1 1.211 0 .856-.54 1.28-1.071 1.28-.343 0-.617-.135-.798-.448h-.008l-.024.392h-.374c.01-.163.016-.403.016-.613v-2.878zM132.769 38.538c0-.279-.005-.519-.021-.74h.376l.021.47h.016c.108-.322.374-.525.664-.525.044 0 .079.006.118.01v.408a1.22 1.22 0 0 0-.147-.007c-.306 0-.524.229-.58.547a1.02 1.02 0 0 0-.015.206v1.271h-.432v-1.64zM135.183 39.907c.412 0 .725-.387.725-.93 0-.402-.203-.91-.716-.91-.506 0-.727.471-.727.927 0 .52.294.913.71.913h.008zm-.018.326c-.642 0-1.142-.473-1.142-1.227 0-.795.529-1.263 1.179-1.263.684 0 1.148.498 1.148 1.222 0 .884-.614 1.268-1.182 1.268h-.003zM139.2 38.767a.902.902 0 0 0-.019-.187.643.643 0 0 0-.63-.497c-.444 0-.71.395-.71.915 0 .488.24.885.706.885.289 0 .553-.197.634-.52a.776.776 0 0 0 .018-.183v-.413zm.434-2.08v2.878c0 .21.003.45.019.613h-.39l-.018-.41h-.011c-.134.262-.419.465-.808.465-.572 0-1.022-.49-1.022-1.21-.006-.798.492-1.28 1.066-1.28.371 0 .616.174.722.36h.007v-1.416h.435zM141.159 39.907c.411 0 .724-.387.724-.93 0-.402-.203-.91-.713-.91s-.73.471-.73.927c0 .52.294.913.714.913h.005zm-.021.326c-.64 0-1.143-.473-1.143-1.227 0-.795.53-1.263 1.182-1.263.685 0 1.146.498 1.146 1.222 0 .884-.614 1.268-1.18 1.268h-.005zM146.197 40.028c-.21.077-.622.184-1.062.184-.563 0-.99-.142-1.306-.442-.295-.28-.46-.719-.46-1.219.002-1.053.747-1.721 1.843-1.721.408 0 .73.081.882.155l-.132.487c-.182-.082-.402-.14-.753-.14-.708 0-1.206.417-1.206 1.19 0 .756.464 1.2 1.15 1.2.222 0 .38-.031.459-.065v-.832h-.587v-.477h1.172v1.68zM146.612 38.554c0-.324-.007-.558-.02-.771h.521l.024.452h.016c.118-.334.397-.508.658-.508.06 0 .095.008.144.016v.566c-.057-.008-.11-.016-.183-.016-.285 0-.488.184-.54.458a.98.98 0 0 0-.016.182v1.245h-.604v-1.624zM150.326 39.46c0 .284.01.52.021.718h-.526l-.03-.36h-.016a.878.878 0 0 1-.773.415c-.433 0-.83-.26-.83-1.045v-1.405h.605v1.303c0 .4.127.655.448.655a.492.492 0 0 0 .46-.323.42.42 0 0 0 .036-.19v-1.445h.605v1.676zM151.406 39.175a.552.552 0 0 0 .55.593c.384 0 .608-.322.608-.793 0-.424-.205-.769-.592-.769a.573.573 0 0 0-.545.448.73.73 0 0 0-.021.153v.368zm-.609-.595c0-.313-.01-.57-.019-.797h.533l.029.37h.01c.18-.27.461-.425.822-.425.55 0 1.008.473 1.008 1.218 0 .869-.547 1.287-1.092 1.287-.3 0-.55-.129-.672-.318h-.01v1.237h-.609V38.58zM154.563 39.794c.345 0 .587-.335.587-.819 0-.376-.166-.81-.58-.81-.428 0-.6.42-.6.818 0 .463.23.81.588.81h.005zm-.018.44c-.674 0-1.204-.464-1.204-1.235 0-.787.519-1.271 1.243-1.271.714 0 1.19.502 1.19 1.231 0 .88-.618 1.274-1.227 1.274h-.002zM157.552 39.741c.08.013.182.013.319.013.39 0 .74-.142.74-.555 0-.382-.34-.543-.759-.543h-.3v1.085zm0-1.521h.311c.424 0 .653-.198.653-.477 0-.313-.234-.455-.622-.455-.176 0-.276.008-.342.02v.912zm-.6-1.309a5.06 5.06 0 0 1 .885-.07c.445 0 .724.057.945.21.205.124.345.34.345.624 0 .305-.193.582-.553.716v.013c.35.087.671.363.671.816 0 .295-.129.524-.318.684-.232.206-.624.308-1.233.308-.334 0-.584-.024-.742-.042v-3.259zM159.604 40.178h.605v-3.314h-.605zM161.328 39.723c.082.013.21.013.332.013.788.005 1.256-.435 1.256-1.274.005-.727-.419-1.153-1.177-1.153a1.96 1.96 0 0 0-.41.037v2.377zm-.608-2.811c.274-.043.608-.072.967-.072.618 0 1.042.127 1.348.382.324.26.521.66.521 1.221 0 .595-.202 1.035-.516 1.316-.332.303-.855.453-1.501.453-.35 0-.614-.018-.819-.042v-3.258zM31.931 29.561h1.411c.356 0 .64.095.82.276a.7.7 0 0 1 .213.519v.008c0 .379-.216.581-.448.7.366.126.622.337.622.76v.014c0 .56-.465.858-1.162.858h-1.456v-3.135zm1.298 1.321c.353 0 .592-.139.592-.428v-.011c0-.245-.197-.395-.55-.395h-.795v.834h.753zm.163 1.327c.377 0 .606-.15.606-.432v-.01c0-.263-.214-.419-.648-.419h-.874v.861h.916zM36.382 32.696v-.29c-.164.195-.409.34-.767.34-.45 0-.845-.255-.845-.732v-.007c0-.527.408-.777.961-.777.284 0 .468.042.653.097v-.042c0-.326-.205-.508-.582-.508-.266 0-.461.06-.677.147l-.15-.434c.26-.116.514-.197.903-.197.698 0 1.04.369 1.04 1v1.403h-.536zm.013-.99a1.534 1.534 0 0 0-.546-.094c-.34 0-.542.139-.542.365v.014c0 .22.203.347.456.347.36 0 .632-.203.632-.498v-.134zM37.385 30.33h.542v.368c.15-.226.374-.419.74-.419.535 0 .845.359.845.911v1.506h-.544v-1.342c0-.372-.182-.58-.506-.58-.314 0-.535.216-.535.585v1.337h-.542V30.33zM39.855 31.527v-.01c0-.674.52-1.238 1.23-1.238.45 0 .73.164.948.409l-.338.36c-.162-.174-.339-.295-.613-.295-.395 0-.685.345-.685.756v.008c0 .423.296.763.711.763.256 0 .448-.12.616-.297l.325.324c-.23.26-.503.442-.967.442-.706 0-1.227-.55-1.227-1.222M42.172 31.527v-.01c0-.677.538-1.238 1.267-1.238.724 0 1.258.55 1.258 1.23v.008c0 .674-.537 1.232-1.268 1.232-.722 0-1.257-.55-1.257-1.222m1.986 0v-.01c0-.416-.303-.764-.73-.764-.434 0-.713.345-.713.756v.008c0 .413.3.763.724.763.44 0 .719-.345.719-.753M46.33 32.696h.554v-3.135h-.554zM47.481 30.33h.543v.368c.152-.226.371-.419.74-.419.534 0 .845.359.845.911v1.506h-.545v-1.342c0-.372-.182-.58-.506-.58-.313 0-.534.216-.534.585v1.337h-.543V30.33zM50.2 32.043v-1.248h-.306v-.465h.305v-.65h.54v.65h.637v.465h-.637v1.164c0 .208.108.295.29.295a.751.751 0 0 0 .34-.082v.445a.949.949 0 0 1-.49.121c-.398 0-.68-.176-.68-.695M51.547 31.522v-.008c0-.676.482-1.235 1.16-1.235.75 0 1.134.593 1.134 1.277 0 .048-.005.095-.01.15h-1.744c.06.385.335.6.685.6.263 0 .45-.097.64-.281l.32.281a1.204 1.204 0 0 1-.971.443c-.684 0-1.214-.495-1.214-1.227zm1.751-.173c-.034-.35-.239-.627-.597-.627-.332 0-.567.258-.614.627h1.211zM54.21 30.33h.54v.534c.15-.355.42-.6.84-.58v.574h-.03c-.479 0-.81.309-.81.938v.9h-.54V30.33zM57.217 32.696v-.29c-.16.192-.405.34-.766.34-.45 0-.843-.255-.843-.732v-.007c0-.527.408-.777.961-.777.285 0 .472.042.653.097v-.045c0-.323-.205-.505-.584-.505-.264 0-.461.06-.677.147l-.147-.434a2.05 2.05 0 0 1 .903-.197c.698 0 1.04.369 1.04 1v1.403h-.54zm.016-.99a1.518 1.518 0 0 0-.543-.094c-.34 0-.545.139-.545.365v.014c0 .22.206.347.459.347.36 0 .629-.203.629-.498v-.134zM58.225 30.33h.54v.358c.156-.21.362-.409.725-.409.34 0 .579.163.703.42.195-.257.445-.42.803-.42.516 0 .832.324.832.906v1.511h-.543v-1.342c0-.38-.176-.58-.482-.58-.294 0-.507.206-.507.585v1.337h-.543v-1.348c0-.368-.18-.574-.48-.574s-.507.224-.507.59v1.332h-.54V30.33zM62.179 31.522v-.008c0-.676.476-1.235 1.156-1.235.753 0 1.137.593 1.137 1.277 0 .048-.008.095-.01.15h-1.744c.064.385.335.6.685.6.263 0 .45-.097.643-.281l.315.281a1.195 1.195 0 0 1-.969.443c-.684 0-1.213-.495-1.213-1.227zm1.75-.173c-.033-.35-.239-.627-.6-.627-.331 0-.563.258-.613.627h1.213zM64.838 30.33h.543v.534c.15-.355.42-.6.84-.58v.574h-.032c-.476 0-.808.309-.808.938v.9h-.543V30.33zM66.521 29.966h.582v-.516h-.582v.516zm.02 2.73h.546V30.33h-.545v2.366zM67.485 31.527v-.01c0-.674.521-1.238 1.23-1.238.447 0 .73.164.945.409l-.334.36c-.166-.174-.34-.295-.614-.295-.395 0-.685.345-.685.756v.008c0 .423.293.763.708.763.259 0 .446-.12.614-.297l.332.324c-.232.26-.508.442-.969.442-.706 0-1.227-.55-1.227-1.222M71.448 32.696v-.29a.959.959 0 0 1-.766.34c-.45 0-.843-.255-.843-.732v-.007c0-.527.406-.777.956-.777.29 0 .474.042.658.097v-.045c0-.323-.208-.505-.584-.505-.264 0-.464.06-.678.147l-.146-.434a2.03 2.03 0 0 1 .9-.197c.7 0 1.04.369 1.04 1v1.403h-.537zm.013-.99a1.518 1.518 0 0 0-.542-.094c-.34 0-.542.139-.542.365v.014c0 .22.202.347.458.347.358 0 .626-.203.626-.498v-.134zM72.454 30.33h.542v.368c.153-.226.372-.419.74-.419.535 0 .843.359.843.911v1.506h-.543v-1.342c0-.372-.181-.58-.507-.58-.314 0-.533.216-.533.585v1.337h-.542V30.33zM74.927 31.527v-.01c0-.677.537-1.238 1.264-1.238s1.261.55 1.261 1.23v.008c0 .674-.54 1.232-1.269 1.232-.722 0-1.256-.55-1.256-1.222m1.983 0v-.01c0-.416-.303-.764-.727-.764-.437 0-.717.345-.717.756v.008c0 .413.301.763.725.763.44 0 .719-.345.719-.753M31.749 36.15v-.009c0-.789.535-1.229 1.1-1.229.388 0 .638.198.807.417v-1.275h.545v3.272h-.545v-.395c-.174.248-.422.445-.806.445-.556 0-1.101-.445-1.101-1.227m1.917 0v-.008c0-.457-.324-.76-.687-.76-.371 0-.682.29-.682.76v.008c0 .456.313.759.682.759.363 0 .687-.306.687-.759M34.567 36.154v-.01c0-.676.482-1.232 1.156-1.232.753 0 1.138.593 1.138 1.275 0 .047-.006.094-.01.15h-1.744c.06.384.335.6.684.6.264 0 .456-.098.643-.28l.319.28a1.193 1.193 0 0 1-.97.444c-.687 0-1.216-.497-1.216-1.227zm1.756-.176c-.037-.35-.244-.623-.603-.623-.332 0-.566.255-.613.623h1.216zM38.46 34.191h1.168c.988 0 1.67.674 1.67 1.558v.01c0 .885-.682 1.567-1.67 1.567H38.46v-3.135zm1.168 2.635c.662 0 1.09-.445 1.09-1.058v-.008c0-.616-.428-1.069-1.09-1.069h-.621v2.135h.621zM41.593 36.154v-.01c0-.676.482-1.232 1.158-1.232.754 0 1.135.593 1.135 1.275 0 .047-.002.094-.007.15h-1.744c.06.384.335.6.685.6.263 0 .453-.098.642-.28l.32.28a1.2 1.2 0 0 1-.973.444c-.684 0-1.216-.497-1.216-1.227zm1.754-.176c-.035-.35-.243-.623-.598-.623-.334 0-.57.255-.617.623h1.215zM44.063 37.018l.242-.368c.256.194.535.292.775.292.231 0 .368-.098.368-.253v-.013c0-.182-.253-.245-.529-.33-.35-.097-.737-.241-.737-.694v-.008c0-.453.368-.721.84-.721.298 0 .621.1.871.266l-.216.387c-.229-.14-.47-.227-.668-.227-.211 0-.333.1-.333.24v.008c0 .17.256.242.535.334.345.105.735.26.735.69v.008c0 .497-.385.745-.88.745-.334 0-.708-.122-1.003-.356M46.188 36.154v-.01c0-.676.48-1.232 1.159-1.232.753 0 1.138.593 1.138 1.275 0 .047-.006.094-.014.15h-1.74c.06.384.334.6.684.6.264 0 .45-.098.642-.28l.317.28a1.193 1.193 0 0 1-.969.444c-.685 0-1.217-.497-1.217-1.227zm1.754-.176c-.035-.35-.24-.623-.598-.623-.332 0-.569.255-.618.623h1.216zM48.853 34.96h.54v.369c.153-.227.372-.417.74-.417.535 0 .843.358.843.911v1.503h-.543v-1.342c0-.369-.184-.58-.508-.58-.31 0-.532.219-.532.587v1.335h-.54V34.96zM51.14 34.96h.581l.637 1.74.643-1.74h.571l-.971 2.384h-.487zM53.588 36.157v-.008c0-.679.54-1.237 1.264-1.237.73 0 1.262.55 1.262 1.23v.007c0 .674-.537 1.232-1.27 1.232-.721 0-1.256-.55-1.256-1.224m1.983 0v-.008c0-.418-.3-.763-.727-.763-.434 0-.713.342-.713.755v.008c0 .411.303.761.721.761.44 0 .719-.345.719-.753M56.52 37.326h.54v-3.272h-.54zM57.367 34.96h.585l.634 1.74.643-1.74h.571l-.971 2.384h-.487zM60.09 34.596h.582v-.513h-.582v.513zm.024 2.73h.543v-2.367h-.543v2.367zM61.186 34.96h.542v.36c.153-.213.358-.408.722-.408.34 0 .582.164.705.417.193-.253.445-.417.804-.417.518 0 .83.327.83.903v1.511h-.543v-1.342c0-.377-.177-.58-.48-.58-.297 0-.508.206-.508.587v1.335h-.543v-1.348c0-.368-.179-.574-.481-.574-.298 0-.506.225-.506.593v1.33h-.542V34.96zM65.139 36.154v-.01c0-.676.481-1.232 1.158-1.232.756 0 1.135.593 1.135 1.275 0 .047-.005.094-.008.15h-1.74c.057.384.33.6.68.6.263 0 .455-.098.642-.28l.315.28a1.19 1.19 0 0 1-.966.444c-.687 0-1.216-.497-1.216-1.227zm1.753-.176c-.034-.35-.242-.626-.6-.626-.33 0-.564.258-.614.626h1.214zM67.8 34.96h.543v.369c.15-.227.372-.417.738-.417.537 0 .848.358.848.911v1.503h-.546v-1.342c0-.369-.184-.58-.508-.58-.31 0-.532.219-.532.587v1.335h-.542V34.96zM70.513 36.673v-1.248h-.3v-.465h.3v-.65h.542v.65h.64v.465h-.64v1.161c0 .213.111.298.296.298a.73.73 0 0 0 .334-.08v.443a.94.94 0 0 1-.487.121c-.4 0-.685-.174-.685-.695M71.864 36.157v-.008c0-.679.54-1.237 1.267-1.237.727 0 1.258.55 1.258 1.23v.007c0 .674-.534 1.232-1.269 1.232-.724 0-1.256-.55-1.256-1.224m1.983 0v-.008c0-.418-.298-.763-.727-.763-.437 0-.71.342-.71.755v.008c0 .411.297.761.72.761.44 0 .717-.345.717-.753M44.66 16.49c1.246-.843 1.852-1.988 1.852-3.489v-.044c0-1.19-.392-2.161-1.201-2.966-.995-.998-2.541-1.525-4.46-1.525h-7.862v16.886h8.048c4.056 0 6.386-1.73 6.386-4.748v-.046c0-1.942-.856-3.21-2.762-4.069zm-3.623 5.19H37.01v-3.088h3.906c1.601 0 2.415.511 2.415 1.522v.045c0 1.01-.772 1.521-2.294 1.521zm-4.027-6.596v-2.949h3.3c.962 0 2.107.25 2.107 1.427v.048c0 .979-.787 1.474-2.338 1.474H37.01zM59.9 8.466h-6.644l.003 16.886 6.641-.003c2.531 0 4.822-.863 6.46-2.435 1.614-1.544 2.502-3.682 2.502-6.006v-.048c0-4.864-3.769-8.394-8.962-8.394m4.68 8.442v.047c0 2.769-1.88 4.63-4.68 4.63h-2.528V12.23H59.9c2.8 0 4.68 1.88 4.68 4.678M49.561 8.44c1.138 0 2.06.919 2.06 2.056v14.859h-4.116V8.437l2.056.003zM14.74 19.456c-2.17 3.514 4.806 3.566 1.575 10.134l-.285.048C8.507 30.74 1.515 25.536.414 18.013a13.716 13.716 0 0 1 2.262-9.765c-.35 7.933 14.091 7.928 12.064 11.208m3.076 9.797c.745-1.382 2.364-3.398 5.825-7.465 5.172-6.078-10.16-4.035-12.788-8.634C8.688 9.361 16.744 6.64 21.61 4.528a13.722 13.722 0 0 1 6.048 9.5c1.014 6.907-3.3 13.364-9.843 15.225m-4.543-17.357c-.513.27.41 1.472 2.773 1.535 2.365.066-.685-2.633-2.773-1.535m5.22 1.282c-1.775-.574-.609.845.236.937.843.092 1.017-.532-.236-.937m1.845 1.387c-.587-.021-.694.332.193.519 1.248.263.397-.495-.193-.519"/>
    </g>
</svg>
