<svg xmlns="http://www.w3.org/2000/svg" width="{{include.width}}" viewBox="0 0 221 46">
    <g fill="none" fill-rule="evenodd">
        <path fill="{{include.cor1}}" d="M49.526 31.096c-1.985-1.052-5.455-1.073-5.455-4.798 0-2.547 1.63-4.104 4.222-4.104 1.044 0 3.574.253 3.574 1.431 0 .421-.314.8-.837.8-.647 0-1.19-.59-2.612-.59-1.338 0-2.612.527-2.612 2.357 0 1.39.73 1.853 1.212 2.105 2.006 1.052 5.455 1.094 5.455 4.777 0 2.778-1.944 4.377-4.577 4.377-1.338 0-3.846-.421-3.846-1.557 0-.421.335-.82.752-.82.586 0 1.484.736 3.114.736 1.861 0 2.802-.947 2.802-2.589 0-1.368-.67-1.852-1.192-2.125M56.797 32.253h4.306L58.95 25.12l-2.153 7.134zm-1.379 4.567c-.125.379-.502.631-.794.631-.48 0-.877-.336-.877-.842 0-.084.02-.252.041-.315l4.075-12.984c.188-.632.48-1.116 1.087-1.116.627 0 .899.463 1.108 1.116l4.076 12.984c.02.063.042.231.042.315 0 .506-.377.842-.879.842-.313 0-.71-.252-.815-.631l-.898-2.925h-5.288l-.878 2.925zM71.572 18.195c.292-.273.397-.483.773-.483.293 0 .649.294.649.694a.593.593 0 0 1-.105.358l-1.693 1.81c-.25.231-.397.379-.669.379-.377 0-.69-.295-.69-.737a.48.48 0 0 1 .105-.316l1.63-1.705zm-.899 19.256c-2.968 0-4.619-2.146-4.619-5.05v-9.323c0-.505.376-.884.857-.884.44 0 .815.4.815.884V32.4c0 2.02.941 3.409 2.947 3.409 2.007 0 2.926-1.431 2.926-3.41v-9.322c0-.463.356-.884.815-.884.503 0 .878.421.878.884V32.4c0 2.925-1.713 5.05-4.619 5.05zM85.594 27.75c0-2.083-.982-3.725-3.699-3.725h-2.048V35.6h2.048c2.759 0 3.7-1.746 3.7-3.914V27.75zm-4.054 9.49h-2.362a1.02 1.02 0 0 1-1.004-1.01V23.395c0-.548.46-1.01 1.004-1.01h2.362c4.263 0 5.726 2.545 5.726 5.366v3.935c0 2.883-1.442 5.556-5.726 5.556zM96.397 37.24H90.86c-.69 0-1.316-.231-1.316-.988V23.393c0-.484.417-.988.982-.988h5.663c.46 0 .836.378.836.841 0 .464-.376.8-.836.8h-4.974v4.924h4.577c.418 0 .815.358.815.821 0 .463-.355.82-.815.82h-4.577V35.6h5.183c.44 0 .836.358.836.779a.846.846 0 0 1-.836.863M112.571 37.24h-5.538c-.69 0-1.316-.231-1.316-.988V23.393c0-.484.417-.988.982-.988h5.663c.46 0 .836.378.836.841 0 .464-.376.8-.836.8h-4.974v4.924h4.577c.418 0 .815.358.815.821 0 .463-.355.82-.815.82h-4.577V35.6h5.183c.44 0 .836.358.836.779a.846.846 0 0 1-.836.863M126.697 31.096c-1.986-1.052-5.455-1.073-5.455-4.798 0-2.547 1.63-4.104 4.222-4.104 1.045 0 3.574.253 3.574 1.431 0 .421-.314.8-.836.8-.648 0-1.191-.59-2.612-.59-1.338 0-2.613.527-2.613 2.357 0 1.39.731 1.853 1.212 2.105 2.007 1.052 5.455 1.094 5.455 4.777 0 2.778-1.944 4.377-4.578 4.377-1.337 0-3.844-.421-3.844-1.557 0-.421.333-.82.752-.82.585 0 1.483.736 3.114.736 1.86 0 2.8-.947 2.8-2.589 0-1.368-.668-1.852-1.19-2.125M138.901 37.24h-5.539c-.69 0-1.316-.231-1.316-.988V23.393c0-.484.418-.988.982-.988h5.663c.46 0 .837.378.837.841 0 .464-.376.8-.837.8h-4.973v4.924h4.577c.418 0 .815.358.815.821 0 .463-.356.82-.815.82h-4.577V35.6h5.183c.439 0 .836.358.836.779a.846.846 0 0 1-.836.863M143.037 32.064c0 2.357.774 3.83 3.136 3.83 1.002 0 1.734-.295 2.361-.779v-4.524h-2.027a.81.81 0 0 1-.794-.8c0-.442.376-.8.794-.8h2.487c.67 0 1.192.295 1.192.968v5.03c0 1.705-2.258 2.441-4.118 2.441-3.219 0-4.702-2.125-4.702-5.366V27.56c0-3.24 1.483-5.366 4.702-5.366 1.903 0 3.7.821 3.7 1.81 0 .4-.314.736-.753.736-.293 0-.418-.147-.752-.357-.627-.442-1.275-.653-2.09-.653-2.362 0-3.136 1.473-3.136 3.83v4.504zM157.269 37.451c-2.968 0-4.62-2.147-4.62-5.05v-9.323c0-.505.377-.884.857-.884.44 0 .816.4.816.884V32.4c0 2.02.94 3.409 2.947 3.409 2.006 0 2.925-1.431 2.925-3.41v-9.322c0-.463.356-.884.816-.884.502 0 .878.421.878.884V32.4c0 2.925-1.714 5.05-4.62 5.05M169.284 24.046h-2.842v5.05h2.968c1.839 0 2.842-.862 2.842-2.483 0-1.241-.544-2.567-2.968-2.567m1.4 6.566l3.344 5.535c.063.126.105.315.105.483 0 .442-.564.8-.899.8a.78.78 0 0 1-.69-.4l-3.698-6.313h-2.404v5.85c0 .463-.397.884-.857.884-.439 0-.815-.4-.815-.884V23.415c0-.548.438-1.01.96-1.01h3.638c3.449 0 4.556 2.125 4.556 4.208 0 2.23-1.254 3.599-3.24 3.999M178.938 32.253h4.305l-2.153-7.134-2.152 7.134zm-1.38 4.567c-.125.379-.5.631-.794.631-.48 0-.877-.336-.877-.842 0-.084.02-.252.041-.315l4.076-12.984c.187-.632.48-1.116 1.086-1.116.627 0 .899.463 1.108 1.116l4.076 12.984c.021.063.042.231.042.315 0 .506-.376.842-.878.842-.313 0-.71-.252-.815-.631l-.9-2.925h-5.286l-.878 2.925zM196.054 36.967l-6.02-11.216v10.837a.879.879 0 0 1-.857.864c-.46 0-.815-.401-.815-.864V23.12c0-.526.377-.926.899-.926.355 0 .71.19.878.505l6.019 11.196V23.057c0-.463.397-.863.857-.863.46 0 .815.4.815.863v13.468c0 .505-.376.927-.92.927-.334 0-.69-.19-.856-.485M204.119 41.681c-.648-.084-1.254-.505-1.003-.99.188-.357.502-.167 1.107-.041.983.19 1.443-.4 1.443-.863 0-.505-.439-.716-1.254-.758-.649-.042-.858-.168-.774-.673l.188-1.031c-2.403-.463-3.51-2.441-3.51-5.261V27.56c0-3.24 1.483-5.366 4.702-5.366 1.902 0 3.699.821 3.699 1.81 0 .4-.314.736-.753.736-.292 0-.418-.147-.752-.357-.627-.442-1.274-.653-2.09-.653-2.361 0-3.135 1.473-3.135 3.83v4.504c0 2.357.774 3.83 3.135 3.83.816 0 1.463-.21 2.09-.653.356-.21.46-.357.752-.357.44 0 .753.336.753.736 0 .99-1.797 1.81-3.7 1.81h-.188l-.104.652c1.713.022 2.299.758 2.299 1.852 0 1.032-.941 2.02-2.905 1.747M213.292 32.253h4.306l-2.153-7.134-2.153 7.134zm-1.38 4.567c-.125.379-.501.631-.794.631-.48 0-.877-.336-.877-.842 0-.084.02-.252.042-.315l4.075-12.984c.188-.632.48-1.116 1.087-1.116.627 0 .899.463 1.107 1.116l4.076 12.984c.02.063.042.231.042.315 0 .506-.377.842-.878.842-.314 0-.711-.252-.815-.631l-.899-2.925h-5.288l-.877 2.925z"/>
        <path fill="{{include.cor2}}" d="M44.264 12.758v2.857h1.39c1.14 0 1.699-.562 1.699-1.388 0-.952-.74-1.469-1.744-1.469h-1.345zm1.311-.895c.741 0 1.561-.436 1.561-1.365 0-.609-.342-1.182-1.368-1.182h-1.504v2.547h1.311zM43.9 16.511a.55.55 0 0 1-.547-.55V8.97c0-.31.251-.55.547-.55h1.927c1.481 0 2.222 1.021 2.222 2.088 0 .987-.627 1.48-1.47 1.836.764.241 1.686.585 1.686 1.87 0 1.297-.945 2.296-2.484 2.296H43.9zM54.18 16.51h-3.02c-.376 0-.718-.125-.718-.539V8.96c0-.264.228-.54.536-.54h3.089c.25 0 .455.207.455.46 0 .252-.205.436-.455.436h-2.713V12h2.496c.228 0 .445.195.445.447a.439.439 0 0 1-.445.448h-2.496v2.72h2.826c.24 0 .456.195.456.424 0 .264-.204.47-.456.47M60.952 16.362l-3.283-6.117v5.91c0 .252-.216.47-.466.47-.252 0-.445-.218-.445-.47V8.811c0-.287.205-.505.49-.505.194 0 .388.103.479.275l3.281 6.105v-5.91c0-.252.217-.47.468-.47.25 0 .444.218.444.47v7.345a.493.493 0 0 1-.5.504.554.554 0 0 1-.468-.263M64.19 11.232c0-1.767.81-2.926 2.564-2.926 1.037 0 2.017.448 2.017.987a.4.4 0 0 1-.41.401c-.16 0-.228-.08-.41-.195a1.873 1.873 0 0 0-1.14-.355c-1.287 0-1.71.803-1.71 2.088v2.455c0 1.286.423 2.09 1.71 2.09.445 0 .798-.115 1.14-.356.194-.115.25-.195.41-.195a.4.4 0 0 1 .41.401c0 .54-.98.987-2.017.987-1.755 0-2.564-1.16-2.564-2.927v-2.455zM75.28 16.625a.477.477 0 0 1-.456-.47v-3.248h-3.111v3.248c0 .252-.205.47-.456.47a.47.47 0 0 1-.456-.47v-7.39c0-.24.206-.459.456-.459s.456.218.456.459v3.247h3.11V8.765c0-.24.218-.459.457-.459.24 0 .456.218.456.459v7.39c0 .252-.205.47-.456.47M84.65 16.178c0 .24-.206.447-.445.447-.251 0-.467-.206-.467-.447V10.59l-1.835 3.947a.474.474 0 0 1-.444.275.468.468 0 0 1-.433-.275L79.19 10.59v5.588c0 .24-.216.447-.479.447a.445.445 0 0 1-.433-.447v-7.39c0-.275.206-.482.48-.482.228 0 .386.103.49.299l2.221 4.796 2.223-4.808a.515.515 0 0 1 .479-.287c.273 0 .479.218.479.482v7.39zM88.287 13.791h2.348l-1.174-3.89-1.174 3.89zm-.752 2.49c-.069.207-.274.344-.433.344-.263 0-.479-.183-.479-.458 0-.046.012-.138.023-.173l2.222-7.08c.103-.344.263-.608.593-.608.342 0 .49.252.604.608l2.222 7.08a.791.791 0 0 1 .023.173c0 .275-.206.458-.479.458a.495.495 0 0 1-.445-.344l-.489-1.595h-2.884l-.478 1.595zM96.756 9.316h-1.55v2.753h1.619c1.003 0 1.55-.47 1.55-1.353 0-.677-.297-1.4-1.619-1.4m.764 3.58l1.823 3.018a.639.639 0 0 1 .057.264c0 .24-.308.436-.49.436a.426.426 0 0 1-.376-.218l-2.017-3.443h-1.31v3.19a.489.489 0 0 1-.468.482c-.24 0-.445-.218-.445-.481V8.972c0-.299.24-.551.524-.551h1.984c1.88 0 2.484 1.159 2.484 2.295 0 1.216-.683 1.962-1.766 2.18M103.014 12.793l-.57.7v2.662c0 .252-.204.47-.455.47a.468.468 0 0 1-.456-.47v-7.39c0-.24.205-.459.456-.459.25 0 .456.218.456.459v3.34l2.883-3.58a.543.543 0 0 1 .41-.219c.171 0 .422.138.4.459a.543.543 0 0 1-.103.287l-2.451 3.029 2.655 3.833a.39.39 0 0 1 .058.218c0 .218-.091.493-.422.493-.17 0-.285-.069-.388-.218l-2.473-3.614zM108.178 8.765c0-.24.205-.459.456-.459.25 0 .456.218.456.459v7.402c0 .24-.205.458-.456.458a.467.467 0 0 1-.456-.458V8.765zM115.871 16.362l-3.282-6.117v5.91a.48.48 0 0 1-.467.47c-.25 0-.445-.218-.445-.47V8.811c0-.287.206-.505.49-.505.194 0 .388.103.479.275l3.283 6.105v-5.91c0-.252.215-.47.467-.47.25 0 .445.218.445.47v7.345a.494.494 0 0 1-.502.504.555.555 0 0 1-.468-.263M120.022 13.688c0 1.285.421 2.088 1.709 2.088.548 0 .946-.16 1.287-.424v-2.467h-1.105a.442.442 0 0 1-.433-.436c0-.241.206-.437.433-.437h1.357c.364 0 .649.161.649.528v2.743c0 .93-1.23 1.331-2.245 1.331-1.755 0-2.564-1.16-2.564-2.926v-2.456c0-1.767.81-2.926 2.564-2.926 1.037 0 2.017.448 2.017.987a.4.4 0 0 1-.41.401c-.16 0-.228-.08-.41-.195a1.872 1.872 0 0 0-1.14-.356c-1.288 0-1.71.804-1.71 2.09v2.455zM134.337 16.51h-3.02c-.375 0-.717-.125-.717-.539V8.96c0-.264.227-.54.535-.54h3.088c.251 0 .456.207.456.46 0 .252-.205.436-.456.436h-2.711V12h2.495c.228 0 .445.195.445.447a.44.44 0 0 1-.445.448h-2.495v2.72h2.825c.24 0 .456.195.456.424 0 .264-.204.47-.456.47M143.24 16.178c0 .24-.206.447-.445.447-.251 0-.467-.206-.467-.447V10.59l-1.835 3.947a.474.474 0 0 1-.444.275.469.469 0 0 1-.434-.275l-1.834-3.947v5.588c0 .24-.217.447-.48.447a.445.445 0 0 1-.432-.447v-7.39c0-.275.205-.482.478-.482.229 0 .387.103.49.299l2.222 4.796 2.223-4.808a.515.515 0 0 1 .479-.287c.273 0 .479.218.479.482v7.39zM146.706 12.632h1.31c1.083 0 1.653-.528 1.653-1.652 0-.826-.308-1.664-1.653-1.664h-1.31v3.316zm0 .895v2.616c0 .253-.205.482-.456.482-.24 0-.456-.218-.456-.482V8.972c0-.299.251-.551.547-.551h1.675c1.892 0 2.565 1.227 2.565 2.57 0 1.63-1.003 2.536-2.565 2.536h-1.31zM155.084 9.316h-1.55v2.753h1.619c1.003 0 1.55-.47 1.55-1.353 0-.677-.297-1.4-1.619-1.4m.764 3.58l1.823 3.018a.639.639 0 0 1 .057.264c0 .24-.308.436-.49.436a.426.426 0 0 1-.376-.218l-2.017-3.443h-1.31v3.19a.489.489 0 0 1-.468.482c-.24 0-.444-.218-.444-.481V8.972c0-.299.238-.551.523-.551h1.984c1.88 0 2.484 1.159 2.484 2.295 0 1.216-.683 1.962-1.766 2.18M163.598 16.51h-3.02c-.375 0-.717-.125-.717-.539V8.96c0-.264.227-.54.535-.54h3.088c.251 0 .456.207.456.46 0 .252-.205.436-.456.436h-2.711V12h2.496c.227 0 .444.195.444.447a.439.439 0 0 1-.444.448h-2.496v2.72h2.825c.24 0 .456.195.456.424 0 .264-.204.47-.456.47M168.888 13.16c-1.082-.574-2.975-.585-2.975-2.616 0-1.389.89-2.238 2.303-2.238.57 0 1.948.138 1.948.78 0 .23-.17.436-.456.436-.352 0-.649-.32-1.424-.32-.73 0-1.424.286-1.424 1.284 0 .758.398 1.01.66 1.148 1.095.574 2.975.596 2.975 2.605 0 1.514-1.06 2.386-2.496 2.386-.729 0-2.096-.229-2.096-.849 0-.23.182-.447.41-.447.319 0 .809.402 1.698.402 1.014 0 1.527-.517 1.527-1.412 0-.746-.365-1.01-.65-1.159M173.767 13.791h2.348l-1.174-3.89-1.174 3.89zm-.751 2.49c-.07.207-.274.344-.433.344-.263 0-.48-.183-.48-.458 0-.046.012-.138.024-.173l2.221-7.08c.104-.344.263-.608.593-.608.342 0 .49.252.604.608l2.223 7.08a.791.791 0 0 1 .023.173c0 .275-.206.458-.48.458a.495.495 0 0 1-.444-.344l-.49-1.595h-2.883l-.478 1.595zM182.236 9.316h-1.55v2.753h1.62c1.002 0 1.549-.47 1.549-1.353 0-.677-.297-1.4-1.619-1.4m.764 3.58l1.823 3.018a.639.639 0 0 1 .058.264c0 .24-.308.436-.49.436a.426.426 0 0 1-.377-.218l-2.017-3.443h-1.31v3.19a.489.489 0 0 1-.467.482c-.24 0-.445-.218-.445-.481V8.972c0-.299.239-.551.524-.551h1.983c1.88 0 2.485 1.159 2.485 2.295 0 1.216-.684 1.962-1.767 2.18M187.013 8.765c0-.24.205-.459.456-.459.25 0 .456.218.456.459v7.402c0 .24-.205.458-.456.458a.467.467 0 0 1-.456-.458V8.765zM191.573 13.791h2.348l-1.174-3.89-1.174 3.89zm-.753 2.49c-.068.207-.273.344-.433.344-.262 0-.479-.183-.479-.458 0-.046.012-.138.023-.173l2.223-7.08c.102-.344.262-.608.593-.608.342 0 .49.252.604.608l2.221 7.08a.791.791 0 0 1 .023.173c0 .275-.205.458-.478.458a.494.494 0 0 1-.445-.344l-.49-1.595H191.3l-.479 1.595zM201.352 16.51h-3.213a.52.52 0 0 1-.514-.516v-7.23c0-.24.206-.458.456-.458s.456.218.456.459v6.862h2.815c.228 0 .433.195.433.436a.437.437 0 0 1-.433.448M211.714 16.51h-3.02c-.376 0-.718-.125-.718-.539V8.96c0-.264.227-.54.535-.54h3.089c.25 0 .456.207.456.46 0 .252-.206.436-.456.436h-2.712V12h2.496c.227 0 .444.195.444.447a.439.439 0 0 1-.444.448h-2.496v2.72h2.826c.24 0 .456.195.456.424 0 .264-.205.47-.456.47M220.616 16.178c0 .24-.205.447-.445.447-.25 0-.467-.206-.467-.447V10.59l-1.835 3.947a.474.474 0 0 1-.444.275.468.468 0 0 1-.433-.275l-1.835-3.947v5.588c0 .24-.216.447-.48.447a.445.445 0 0 1-.432-.447v-7.39c0-.275.205-.482.478-.482.229 0 .388.103.49.299l2.223 4.796 2.222-4.808a.515.515 0 0 1 .479-.287c.274 0 .479.218.479.482v7.39zM17.902 2.648c-8.652 0-15.691 7.087-15.691 15.8 0 8.711 7.04 15.799 15.691 15.799 8.653 0 15.693-7.088 15.693-15.8S26.555 2.648 17.902 2.648m0 33.825C8.03 36.473 0 28.386 0 18.447S8.03.422 17.902.422c9.873 0 17.904 8.086 17.904 18.025 0 9.94-8.031 18.026-17.904 18.026"/>
        <path fill="{{include.cor3}}" d="M17.904 31.483c-4.666 0-9.554-3.043-11.889-7.401-.29-.54-.09-1.216.449-1.508a1.1 1.1 0 0 1 1.497.451c1.966 3.67 6.054 6.232 9.943 6.232 4.072 0 8.33-2.649 9.905-6.161.25-.56.904-.81 1.462-.557.556.253.804.912.553 1.472-1.94 4.33-6.954 7.472-11.92 7.472M39.92 45.985c-.283 0-.566-.109-.782-.326l-9.445-9.512a1.119 1.119 0 0 1 0-1.574 1.1 1.1 0 0 1 1.563 0l9.446 9.512c.432.435.432 1.14 0 1.574a1.1 1.1 0 0 1-.782.326M219.53 42.163h-8.524a1.11 1.11 0 0 1-1.106-1.114 1.11 1.11 0 0 1 1.106-1.112h8.524c.611 0 1.106.498 1.106 1.112a1.11 1.11 0 0 1-1.106 1.114"/>
    </g>
</svg>