<?xml version="1.0" encoding="UTF-8"?>
<svg width="166px" height="21px" viewBox="0 0 166 21" version="1.1" xmlns="http://www.w3.org/2000/svg" xmlns:xlink="http://www.w3.org/1999/xlink">
    <!-- Generator: Sketch 43.2 (39069) - http://www.bohemiancoding.com/sketch -->
    <title>logo_fiesc</title>
    <desc>Created with Sketch.</desc>
    <defs>
        <polygon id="path-1" points="165.759748 19.8000315 165.759748 0 3.90285572e-05 0 3.90285572e-05 19.8000315 165.759748 19.8000315"></polygon>
    </defs>
    <g id="Symbols" stroke="none" stroke-width="1" fill="none" fill-rule="evenodd">
        <g id="logo_fiesc">
            <g id="Page-1" transform="translate(0.000000, 0.063830)">
                <mask id="mask-2" fill="white">
                    <use xlink:href="#path-1"></use>
                </mask>
                <g id="Clip-2"></g>
                <path d="M156.370491,19.3845522 L160.442536,0.596802503 L165.759787,0.596802503 L161.894984,19.3845522 L156.370491,19.3845522 Z M118.90171,19.3845522 L122.792272,0.596802503 L137.290991,0.596802503 L136.460658,4.2556761 L127.486432,4.2556761 L126.656685,7.94071239 L135.034555,7.94071239 L134.230371,11.8332931 L125.852696,11.8332931 L125.022559,15.4921667 L134.230371,15.4921667 L133.400234,19.3845522 L118.90171,19.3845522 Z M96.287198,18.8120966 L96.287198,18.8120966 L90.7230918,18.8120966 L90.7230918,19.3845522 L96.287198,19.3845522 L96.287198,18.8120966 Z M96.287198,0.596802503 L96.287198,0.596802503 L90.7230918,0.596802503 L90.7230918,1.16945332 L96.287198,1.16945332 L96.287198,0.596802503 Z M96.287198,5.1504796 L96.287198,5.1504796 L90.7230918,5.1504796 L90.7230918,5.72313041 L96.287198,5.72313041 L96.287198,5.1504796 Z M96.287198,9.70454718 L96.287198,9.70454718 L90.7230918,9.70454718 L90.7230918,10.2768075 L96.287198,10.2768075 L96.287198,9.70454718 Z M96.287198,14.2584195 L96.287198,14.2584195 L90.7230918,14.2584195 L90.7230918,14.8308751 L96.287198,14.8308751 L96.287198,14.2584195 Z M3.90285572e-05,19.3845522 L3.86484193,0.596802503 L17.1443086,0.596802503 L16.5477571,4.2556761 L8.37790918,4.2556761 L7.54777176,8.3559965 L15.1212633,8.3559965 L14.2913211,12.2224145 L6.74378348,12.2224145 L5.3172897,19.3845522 L3.90285572e-05,19.3845522 Z M17.5383019,19.3845522 L21.6105416,0.596802503 L26.9272068,0.596802503 L23.0627942,19.3845522 L17.5383019,19.3845522 Z M28.1021616,19.3845522 L31.9927233,0.596802503 L46.4914421,0.596802503 L45.6611096,4.2556761 L36.6868831,4.2556761 L35.8571359,7.94071239 L44.2348109,7.94071239 L43.4308227,11.8332931 L35.0529525,11.8332931 L34.2232054,15.4921667 L43.4308227,15.4921667 L42.6006852,19.3845522 L28.1021616,19.3845522 Z M49.0091744,6.92837196 C49.1994386,4.59286258 50.1979842,2.88896771 52.0048113,1.81610163 C53.8118335,0.743821277 55.9427928,0.207290613 58.3984696,0.207290613 C58.6059064,0.207095369 58.8174412,0.211585982 59.0336594,0.220371965 C59.2496824,0.229157947 59.4618026,0.242044055 59.6690443,0.259030288 C61.0005035,0.363095369 62.2195605,0.713363204 63.3262153,1.31022428 C64.4330651,1.90708536 64.9946861,2.95808411 65.0124441,4.46302528 C65.0124441,4.74027184 64.9903929,5.0339189 64.9472664,5.34552841 C64.9039447,5.65674743 64.830571,5.98592891 64.726755,6.33151089 L59.4098947,6.30554343 C59.4442398,6.20186884 59.4659006,6.09780375 59.4744869,5.99451965 C59.4830732,5.89025932 59.4877566,5.79537071 59.4877566,5.70868235 C59.5049292,5.10323054 59.2974924,4.66666483 58.8652511,4.3983995 C58.4326196,4.13013417 57.939884,3.9960015 57.3864591,3.9960015 C57.3347463,3.99580626 57.2830334,3.9960015 57.2309303,3.9960015 C57.1792175,3.99580626 57.1189183,3.9960015 57.0496426,3.9960015 C56.47885,4.04813166 55.9470859,4.24259474 55.4543504,4.57978123 C54.9616148,4.91716295 54.7153446,5.36290513 54.7153446,5.91642203 C54.7153446,6.43538073 55.2123733,6.89830438 56.2064307,7.3048025 C57.2008783,7.71130063 58.4070559,8.0701592 59.8245731,8.38157347 C60.9833309,8.64105282 61.8521066,9.02197397 62.4312904,9.52375119 C63.0104742,10.0249427 63.4038821,10.5528826 63.6117092,11.1063995 C63.71533,11.3658788 63.7887037,11.6298488 63.8320254,11.8981141 C63.8751519,12.165989 63.8968128,12.421173 63.8968128,12.6634708 C63.8968128,14.497203 63.0797499,16.1452581 61.4458194,17.6070503 C59.8118888,19.0690378 57.3608954,19.8000315 54.0928391,19.8000315 C51.2572193,19.7998363 49.4066802,19.3068451 48.5421977,18.3208626 C47.6777151,17.3342944 47.2454739,16.2098839 47.2454739,14.9472406 C47.2454739,14.808422 47.249767,14.6701892 47.2583533,14.5317612 C47.2669396,14.3937237 47.2712327,14.2551004 47.2712327,14.1168676 C47.2887956,13.9782443 47.305773,13.8398163 47.3233358,13.7015835 C47.3405084,13.5629602 47.3578761,13.4247274 47.3750487,13.2862994 L52.6661502,13.2603319 C52.6489776,13.3813832 52.6401962,13.4895484 52.6401962,13.5848275 L52.6401962,13.8573882 C52.6401962,14.5317612 52.8218742,15.0809827 53.1848397,15.5048576 C53.5480005,15.9287324 54.1273794,16.1409627 54.9225863,16.1409627 C55.0956779,16.1409627 55.3118961,16.1190954 55.5712409,16.0759464 C55.8303905,16.0326023 56.0897353,15.9677812 56.3492752,15.8812881 C56.8160567,15.7256786 57.2399069,15.4921667 57.620045,15.1805572 C58.0003783,14.8691429 58.1906425,14.4540541 58.1906425,13.9352906 L58.1906425,13.8183394 L58.1906425,13.7015835 C58.1906425,13.2691179 57.8622172,12.9055735 57.2051714,12.6115359 C56.5481257,12.3173031 55.8218042,12.0582143 55.0265974,11.8330979 C54.5250804,11.6946698 54.040736,11.5648325 53.5737593,11.4439765 C53.1069778,11.3227299 52.7180582,11.2016786 52.4066103,11.0806273 C52.3896329,11.0806273 52.3677769,11.0761367 52.342018,11.0675459 C52.316064,11.0589552 52.2945983,11.0458738 52.2772306,11.0284971 L52.2641561,11.0284971 L52.2510815,11.0284971 C52.078185,10.9591855 51.8965071,10.8947549 51.706438,10.834034 C51.516564,10.7735084 51.3173233,10.6999014 51.1098865,10.6136035 C50.5913921,10.3886824 50.1113408,10.0165472 49.6705133,9.49758849 C49.2294906,8.97862979 49.0091744,8.1308801 49.0091744,6.95453467 L49.0091744,6.92837196 Z M66.9057194,12.6378939 C66.9057194,11.9629352 66.9574322,11.2061692 67.0612482,10.3670103 C67.1652593,9.52785131 67.346547,8.68459224 67.6060869,7.83684255 C68.2114198,5.91661727 69.3395402,4.14751089 70.9908385,2.53010914 C72.6421368,0.91251214 75.1622107,0.0692530663 78.5514507,-5.85732169e-05 C78.9491517,-5.85732169e-05 79.3726115,0.0128275344 79.8220254,0.0387949937 C80.2718295,0.0647624531 80.7300247,0.112402003 81.1970014,0.181323154 C82.5108978,0.371686108 83.7211734,0.795560951 84.8280233,1.45314293 C85.9344829,2.11052966 86.4879078,3.18339574 86.4879078,4.6709602 C86.488103,4.89588135 86.4748333,5.12958849 86.4492696,5.37169111 C86.4231204,5.61379374 86.3755056,5.86448711 86.306425,6.12396646 L80.6002548,6.097999 C80.6176225,6.01170113 80.6306971,5.92091264 80.6390882,5.82563354 C80.6476745,5.73074493 80.6521628,5.64835194 80.6521628,5.57923554 C80.6521628,4.95640701 80.4749731,4.49777872 80.1203987,4.20393642 C79.7660194,3.90950839 79.3813929,3.71074994 78.9663242,3.6068801 C78.7413246,3.55494518 78.5212035,3.52038698 78.3047902,3.50340075 C78.0889623,3.48582879 77.9029912,3.47723805 77.7474624,3.47723805 C77.5917384,3.47723805 77.4360145,3.49012416 77.2804857,3.51609161 C77.1247618,3.54205907 76.969233,3.57251715 76.813509,3.6068801 C76.0354747,3.84917797 75.2831993,4.44193892 74.557073,5.38457722 C73.8307515,6.32741076 73.2599588,7.73316796 72.8452804,9.60184881 C72.810545,9.75726308 72.7802979,9.91306783 72.7543439,10.0686773 C72.728585,10.2244821 72.706729,10.3802869 72.6895565,10.5357011 C72.6374534,10.8642969 72.5988151,11.1843019 72.5728611,11.4959114 C72.5469071,11.8071304 72.5340277,12.1101492 72.5340277,12.4041867 C72.5340277,13.3903645 72.728585,14.2291329 73.1175046,14.9212731 C73.5064242,15.613218 74.2372339,15.9591905 75.3091533,15.9591905 L75.594452,15.9591905 C75.698268,15.9591905 75.8020839,15.9505997 75.9055096,15.933223 C76.0787964,15.933223 76.2557909,15.9119414 76.4372737,15.8685972 C76.6189516,15.8252531 76.813509,15.760432 77.0209458,15.6739389 C77.5226579,15.4490178 77.9892443,15.1071454 78.4214856,14.6487124 C78.853922,14.1902793 79.1046805,13.6670253 79.1739562,13.0789502 L84.6722993,13.0529827 C84.6894719,13.1049176 84.7027416,13.152362 84.7113279,13.1955109 C84.7199142,13.2388551 84.7242073,13.2862994 84.7242073,13.3386248 C84.7242073,13.6498438 84.6116099,14.0823094 84.3871957,14.6358263 C84.1623912,15.1891479 83.7990354,15.7690228 83.2979087,16.3746698 C82.5717824,17.2394058 81.5297199,18.0266298 80.1723067,18.7359514 C78.8148934,19.4454683 77.0642675,19.8000315 74.9202337,19.8000315 L74.7126018,19.8000315 L74.479211,19.8000315 C71.5743155,19.8000315 69.628937,19.2031705 68.6434659,18.0094483 C67.6577997,16.8155309 67.0959836,15.492362 66.9574322,14.0391605 C66.9402597,13.8140441 66.9275754,13.5850228 66.9184037,13.3513156 C66.9098174,13.1176085 66.9057194,12.8885872 66.9057194,12.6636661 L66.9057194,12.6378939 Z M139.808723,6.92837196 C139.998987,4.59286258 140.997533,2.88896771 142.80436,1.81610163 C144.611382,0.743821277 146.742341,0.207290613 149.198018,0.207290613 C149.405455,0.207095369 149.616795,0.211585982 149.833208,0.220371965 C150.049231,0.229157947 150.261351,0.242044055 150.468593,0.259030288 C151.800052,0.363095369 153.019109,0.713363204 154.125764,1.31022428 C155.232614,1.90708536 155.794235,2.95808411 155.811798,4.46302528 C155.811993,4.74027184 155.789942,5.0339189 155.746815,5.34552841 C155.703493,5.65674743 155.63012,5.98592891 155.526304,6.33151089 L150.209638,6.30554343 C150.243984,6.20186884 150.265449,6.09780375 150.274036,5.99451965 C150.282817,5.89025932 150.287305,5.79537071 150.287305,5.70868235 C150.304478,5.10323054 150.097041,4.66666483 149.6648,4.3983995 C149.232168,4.13013417 148.739628,3.9960015 148.186008,3.9960015 C148.134295,3.99580626 148.082582,3.9960015 148.030479,3.9960015 C147.978766,3.99580626 147.918467,3.9960015 147.849191,3.9960015 C147.278594,4.04813166 146.746635,4.24259474 146.253899,4.57978123 C145.761164,4.91716295 145.514893,5.36290513 145.514893,5.91642203 C145.514893,6.43538073 146.011922,6.89830438 147.006174,7.3048025 C148.000622,7.71130063 149.206605,8.0701592 150.624122,8.38157347 C151.78288,8.64105282 152.651655,9.02197397 153.230839,9.52375119 C153.810218,10.0249427 154.203626,10.5528826 154.411258,11.1063995 C154.514879,11.3658788 154.588252,11.6298488 154.631574,11.8981141 C154.674701,12.165989 154.696361,12.421173 154.696361,12.6634708 C154.696361,14.497203 153.879299,16.1452581 152.245368,17.6070503 C150.611437,19.0690378 148.160249,19.8000315 144.892388,19.8000315 C142.056768,19.7998363 140.206229,19.3068451 139.341746,18.3208626 C138.477264,17.3342944 138.045023,16.2098839 138.045023,14.9472406 C138.045023,14.808422 138.049316,14.6701892 138.057902,14.5317612 C138.066683,14.3937237 138.070781,14.2551004 138.070781,14.1168676 C138.088149,13.9782443 138.105322,13.8398163 138.122885,13.7015835 C138.140057,13.5629602 138.157425,13.4247274 138.174597,13.2862994 L143.465699,13.2603319 C143.448526,13.3813832 143.439745,13.4895484 143.439745,13.5848275 C143.43994,13.6795209 143.439745,13.7708951 143.439745,13.8573882 C143.43994,14.5317612 143.621423,15.0809827 143.984388,15.5048576 C144.347744,15.9287324 144.926928,16.1409627 145.722135,16.1409627 C145.895227,16.1409627 146.11125,16.1190954 146.37079,16.0759464 C146.630134,16.0326023 146.889284,15.9677812 147.148824,15.8812881 C147.615801,15.7256786 148.039456,15.4921667 148.419399,15.1805572 C148.800122,14.8691429 148.990191,14.4540541 148.990191,13.9352906 C148.990386,13.9003419 148.990191,13.8614884 148.990191,13.8183394 C148.990386,13.7749952 148.990191,13.7361417 148.990191,13.7015835 C148.990386,13.2691179 148.661766,12.9055735 148.00472,12.6115359 C147.34787,12.3173031 146.621353,12.0582143 145.825951,11.8330979 C145.324629,11.6946698 144.840285,11.5648325 144.373308,11.4439765 C143.906526,11.3227299 143.517607,11.2016786 143.206159,11.0806273 C143.189182,11.0806273 143.167326,11.0761367 143.141567,11.0675459 C143.115613,11.0589552 143.094147,11.0458738 143.076584,11.0284971 L143.063705,11.0284971 L143.05063,11.0284971 C142.877734,10.9591855 142.696056,10.8947549 142.505987,10.834034 C142.316113,10.7735084 142.116872,10.6999014 141.90963,10.6136035 C141.390941,10.3886824 140.91089,10.0165472 140.470062,9.49758849 C140.029039,8.97862979 139.808528,8.1308801 139.808528,6.95453467 L139.808723,6.92837196 Z M102.304231,6.92837196 C102.494495,4.59286258 103.492845,2.88896771 105.299868,1.81629687 C107.106695,0.743626033 109.237849,0.207290613 111.693331,0.207290613 C111.900768,0.207290613 112.112693,0.211585982 112.328716,0.220371965 C112.544934,0.228962703 112.756664,0.242044055 112.964101,0.259225532 C114.29556,0.363095369 115.514617,0.713363204 116.621272,1.31022428 C117.727926,1.90708536 118.289938,2.95808411 118.30711,4.46322053 C118.307305,4.7400766 118.285449,5.03411414 118.242323,5.34552841 C118.199001,5.65694268 118.125432,5.98573367 118.021811,6.33170613 L112.704756,6.30554343 C112.739491,6.20186884 112.760957,6.09819424 112.769738,5.99432441 C112.778325,5.89025932 112.782618,5.79517547 112.782618,5.70868235 C112.799986,5.10323054 112.592354,4.66646959 112.160112,4.3983995 C111.727871,4.13013417 111.235136,3.9960015 110.681711,3.9960015 L110.525987,3.9960015 L110.344504,3.9960015 C109.773906,4.04813166 109.242337,4.24259474 108.749407,4.57997647 C108.256866,4.91716295 108.010206,5.36270989 108.010206,5.91642203 C108.010206,6.43538073 108.50743,6.89830438 109.501682,7.3048025 C110.49574,7.71130063 111.701917,8.07035444 113.119629,8.38157347 C114.278387,8.64105282 115.147163,9.02177872 115.726542,9.52355594 C116.305531,10.0249427 116.698938,10.5528826 116.90657,11.1063995 C117.010191,11.3656836 117.08376,11.6298488 117.127082,11.8979189 C117.170403,12.1661842 117.191869,12.421173 117.191869,12.6634708 C117.191869,14.497203 116.374806,16.1450628 114.740876,17.6070503 C113.10675,19.0690378 110.655757,19.7998363 107.3877,19.7998363 C104.552081,19.7996411 102.701932,19.3066498 101.837254,18.3206673 C100.972772,17.3342944 100.54053,16.2098839 100.54053,14.9470453 C100.54053,14.8086173 100.544823,14.6701892 100.55341,14.5319564 C100.561996,14.3935284 100.566289,14.2551004 100.566289,14.1166723 C100.583852,13.9782443 100.601025,13.8398163 100.618392,13.7013882 C100.63576,13.5629602 100.652737,13.4247274 100.670105,13.2862994 L105.961402,13.2603319 C105.944229,13.3813832 105.935253,13.4895484 105.935253,13.5846323 L105.935253,13.857193 C105.935253,14.5319564 106.116931,15.081178 106.479896,15.5050528 C106.843057,15.9287324 107.422436,16.1407675 108.217838,16.1407675 C108.390734,16.1407675 108.606757,16.1190954 108.866297,16.0759464 C109.125837,16.0326023 109.384987,15.9677812 109.644332,15.8812881 C110.111113,15.7254834 110.534768,15.4921667 110.915297,15.1805572 C111.29563,14.8691429 111.485699,14.4540541 111.485699,13.9350954 L111.485699,13.8183394 L111.485699,13.7013882 C111.485699,13.2689227 111.157274,12.9057687 110.500228,12.6115359 C109.842987,12.3174984 109.116861,12.058019 108.321459,11.8330979 C107.820137,11.6946698 107.335988,11.5648325 106.869206,11.4437812 C106.402034,11.3227299 106.013115,11.2014834 105.701862,11.0806273 C105.684689,11.0806273 105.663028,11.0761367 105.637074,11.0675459 C105.61112,11.0589552 105.589655,11.0458738 105.572092,11.0286924 L105.559212,11.0286924 L105.546333,11.0286924 C105.373437,10.9593807 105.191759,10.8945597 105.00169,10.834034 C104.811425,10.7733131 104.61238,10.6999014 104.405138,10.6134083 C103.886448,10.3886824 103.406397,10.0165472 102.96557,9.49758849 C102.524742,8.97862979 102.304231,8.1308801 102.304231,6.95453467 L102.304231,6.92837196 Z" id="Fill-1" fill="#FFFFFF" mask="url(#mask-2)"></path>
            </g>
        </g>
    </g>
</svg>